<svg xmlns="http://www.w3.org/2000/svg" width="192.114" height="154.433" viewBox="0 0 192.114 154.433"><defs><style>.a{fill:#e6ecef;}.b{fill:#0d78c1;}.c{fill:#38aefe;}.d{fill:#2f2e41;stroke:#000;}</style></defs><g transform="translate(-1566.659 -452.603)"><ellipse class="a" cx="75.341" cy="9.484" rx="75.341" ry="9.484" transform="translate(1566.659 588.069)"/><g transform="translate(3543 4096)"><g transform="translate(2383 -1263)"><path class="b" d="M188.543,755.607c4.275,7.928,13.348,11.332,13.348,11.332s2.142-9.451-2.133-17.379-13.348-11.332-13.348-11.332S184.268,747.678,188.543,755.607Z" transform="translate(-4533.323 -3003.098)"/><path class="c" d="M169.26,774.97c7.718,4.644,10.691,13.867,10.691,13.867s-9.541,1.695-17.26-2.949S152,772.021,152,772.021,161.541,770.326,169.26,774.97Z" transform="translate(-4511.102 -3025.069)"/><path class="d" d="M206.723,632.1H125.274v-.586h80.863V603.091H132.121l-3.6-7.491.528-.254,3.436,7.158h74.233Z" transform="translate(-4441.284 -2883.218)"/><circle cx="6.153" cy="6.153" r="6.153" transform="translate(-4311.322 -2249.071)"/><circle cx="6.153" cy="6.153" r="6.153" transform="translate(-4250.675 -2249.071)"/><circle class="b" cx="5.809" cy="5.809" r="5.809" transform="translate(-4178.844 -2380.397)"/><path class="d" d="M327.006,542.28H235.457l-19.809-64.749H347.406l-.12.381Zm-91.115-.586h90.686l20.031-63.577H216.44Z" transform="translate(-4552.856 -2832.075)"/><path class="b" d="M180.07,470.439H99.659l-17.4-57.424H197.988l-.105.338Z" transform="translate(-4413.066 -2763.604)"/><path class="d" d="M450.385,356.618l-.567-.15,3.867-14.574h22.492v.586H454.136Z" transform="translate(-4654.192 -2716.947)"/><rect class="d" width="118.773" height="0.586" transform="translate(-4330.807 -2334.914)"/><rect class="d" width="105.366" height="0.586" transform="translate(-4324.202 -2313.326)"/><rect class="d" width="0.586" height="64.163" transform="translate(-4271.624 -2354.251)"/><rect class="d" width="64.299" height="0.586" transform="matrix(0.065, -0.998, 0.998, 0.065, -4249.009, -2290.108)"/><rect class="d" width="0.586" height="64.299" transform="translate(-4298.431 -2354.233) rotate(-3.729)"/></g></g></g></svg>