<svg xmlns="http://www.w3.org/2000/svg" width="322.39" height="244.162" viewBox="0 0 322.39 244.162"><defs><style>.a{fill:#e6ecef;}.b{fill:#efb7b9;}.c,.f,.q{opacity:0.1;}.d{fill:#f9852a;}.e{fill:#ff9a30;}.f{fill:#fff;}.g{fill:#ffbe9d;}.h{fill:#4c4051;}.i{fill:#285faf;}.j{fill:#16528e;}.k{fill:#cfeffe;}.l{opacity:0.08;}.m{fill:#f2a181;}.n{fill:#fbb693;}.o{fill:#2a2a2a;}.p,.s,.u,.w{fill:#389fe5;}.q,.r{fill:#a91352;}.s{opacity:0.16;}.t{fill:#93cbf1;opacity:0.27;}.u{opacity:0.54;}.v{opacity:0.2;}.w{opacity:0.23;}.x{fill:#fbf3f6;stroke:#fff;stroke-width:2px;}</style></defs><g transform="translate(8451.03 2562.156)"><ellipse class="a" cx="55.341" cy="10.484" rx="55.341" ry="10.484" transform="translate(-8405.891 -2343.769)"/><g transform="translate(549.869 -242.922)"><g transform="translate(-910 -88.13)"><path class="b" d="M505.374,438.936c-3.143,4.5-14.44,2.115-14.44,2.115l-8.755-8.193L481,431.748l1.977-4.2s.628.173,1.706.481C490.343,429.674,508.026,435.155,505.374,438.936Z" transform="translate(-8436.778 -2553.721)"/><path class="c" d="M484.677,428.031a18.434,18.434,0,0,1-2.5,4.827L481,431.748l1.977-4.2S483.611,427.723,484.677,428.031Z" transform="translate(-8436.778 -2553.721)"/><path class="c" d="M421.6,380.89s-1.631,3.341-.629,3.114S421.6,380.89,421.6,380.89Z" transform="translate(-8395.389 -2521.724)"/><path class="d" d="M330.96,338.738l24.2-3.938v22.909l-22.991-1.2Z" transform="translate(-8303.963 -2472.824)"/><path class="d" d="M407.96,334.8l29.018,2.172-1.606,19.936-27.413.8Z" transform="translate(-8356.765 -2472.824)"/><path class="e" d="M416.882,312.55l-8.922,6.992,29.018,2.172,4.742-7.156Z" transform="translate(-8356.765 -2457.567)"/><path class="e" d="M303.08,317.242l21.784-2.652,11.175,6.351-24.2,3.938Z" transform="translate(-8284.844 -2458.966)"/><path class="e" d="M360.462,349.341v31.322L349.127,379.5,344.2,379l-1.5-.157-4.928-.506-6.807-.7V347.33l24.195,1.647Z" transform="translate(-8303.963 -2481.417)"/><path class="d" d="M448.554,341.71v30.546L439.469,374l-4.418.848-10.21,1.961V345.487Z" transform="translate(-8368.34 -2477.563)"/><path class="e" d="M303.08,353.923l8.762-6.593,29.5,2.011L337,356.657Z" transform="translate(-8284.844 -2481.417)"/><path class="e" d="M448.554,341.71l-23.714,3.777,7.718,6.914,25.4-4.261Z" transform="translate(-8368.34 -2477.563)"/><path class="f" d="M461.748,429.792l-4.418.848v-6.527l4.139-1.043Z" transform="translate(-8390.62 -2533.355)"/><path class="f" d="M378.011,435.96v4.318l-4.931-.5V435.96Z" transform="translate(-8332.846 -2542.194)"/><path class="f" d="M357.548,440.29v2.3l-4.928-.506V440.29Z" transform="translate(-8318.815 -2545.164)"/><g transform="translate(-220.711 451.954)"><g transform="translate(-7759.754 -2469.365)"><path class="g" d="M104.163,401.127s.288,7.435-.1,9.138c-.305,1.341-4.471,1.472-4.978.762s-1.155-9.339-1.155-9.339" transform="translate(-97.837 -401.127)"/><path class="h" d="M97.956,410.094c0,.944-.468,3.76.684,3.76H110.8c3.109,0,4.876-.4,4.954-.944.322-2.234-10.54-6-11.58-5.993a.348.348,0,0,0-.132.03,1.5,1.5,0,0,0-.762.675,2.851,2.851,0,0,1-3.623,1.178,2.473,2.473,0,0,1-.73-.521A1.837,1.837,0,0,0,97.956,410.094Z" transform="translate(-97.862 -398.986)"/></g><g transform="translate(-7807.634 -2470.938)"><path class="g" d="M71.417,403.226s-1.309,3.526-1.883,4.7-4.471-.274-4.669-1.082,2.966-6.868,2.966-6.868" transform="translate(-62.187 -399.978)"/><path class="h" d="M63.786,405.893c-1.223,2.455-.93,3.6-.542,3.835l3.259,1.959.022.014c.108.053,1.494.757,2.555,1.416a14.383,14.383,0,0,0,3.626,1.522c3.334.767,5.913.4,6.176-.057,1.071-1.86-7.182-9-8.121-9.38a.374.374,0,0,0-.134-.021,1.438,1.438,0,0,0-.949.36,2.429,2.429,0,0,1-2.829.338,2.893,2.893,0,0,1-1.211-1.323A2.481,2.481,0,0,0,63.786,405.893Z" transform="translate(-62.907 -398.285)"/></g><g transform="translate(-7803.245 -2573.924)"><path class="i" d="M66.149,428.471a.507.507,0,0,0,.175.6,11.782,11.782,0,0,0,5.052,2.344c0-.01.01-.018.018-.026.69-1.086,22.324-35.252,26.477-41.88.084-.142.168-.278.244-.4.016-.025.042-.033.042-.067a7.9,7.9,0,0,0,.674-1.322c.033-.085.075-.168.1-.237a3.5,3.5,0,0,0,.219-.707c.034-.144.059-.278.085-.429,0-.018.016-.043.016-.068.581-2.948,1.963-8,3.638-13.887.952-3.335,1.988-6.931,3.023-10.561.826-2.846,1.642-5.676,2.392-8.362l6.039-23.491a.5.5,0,0,0-.453-.626l-4.845-.322c-6.15-.419-13.656-3.518-15.255-4.2a.507.507,0,0,0-.559.114c-7.053,7.051-5.709,15.889-4.852,20.318,0,.008.008.018.008.034a23.669,23.669,0,0,1,.345,6.173c-.489,6.363-1.43,18.244-1.525,26.5V378c-.016.229-.359,5.152-5.053,10.984a25.068,25.068,0,0,0-2.5,3.157C72.639,402.729,70.046,419.194,66.149,428.471Z" transform="translate(-66.111 -324.793)"/><path class="j" d="M69.968,425.663c.69-1.086,22.324-35.252,26.477-41.88.084-.142.168-.278.244-.4.016-.025.042-.033.042-.067A7.9,7.9,0,0,0,97.405,382c.033-.085.075-.168.1-.237a3.5,3.5,0,0,0,.219-.707c.034-.144.059-.278.085-.429,0-.018.016-.042.016-.068.575-2.92,1.937-7.908,3.593-13.726a.516.516,0,0,0-.012-.315l-9.657-25.9a.505.505,0,0,0-.471-.327H88.745a.5.5,0,0,0-.479.658c.86,2.6,4.048,12.293,5.468,17.029,1.642,5.474,2.1,14.055,2.24,17.2.321,6.9-8.151,18.6-10.577,22.865C82.8,402.6,70.936,423.76,69.968,425.663Z" transform="translate(-64.685 -319.065)"/></g><path class="i" d="M87.642,348.9c-.725-.338-3.637-1.979-5.483-7.187a.513.513,0,0,1,.2-.6c2.813-1.783,22.412-14.04,27.1-12.546,1.438.466,4.163,46.057,4.142,47.028-.01.479.021,5.42,0,6-.31,7.766-3.033,46.425-3.335,50.711a.493.493,0,0,1-.414.455,32.829,32.829,0,0,1-5.326.352l-.5-.438c-1.226-10.373-6.569-29.9-3.879-42.135.033-.152.051-.3.079-.452.016-.242.047-.555.1-.967.649-5.41.67-3.833-.811-10.657a.438.438,0,0,0-.023-.075c-3.309-8.529-9.551-24.076-11.6-29.228A.452.452,0,0,0,87.642,348.9Z" transform="translate(-7863.434 -2897.368)"/><path class="k" d="M80.211,312.534c.023,2.6.179,5.191.384,7.684.275,3.057.647,5.971,1.031,8.609.911,6.294,1.918,10.969,1.822,12.1a6.15,6.15,0,0,1-.636,2.014,1.339,1.339,0,0,0,.3,1.559c.419.179.851.348,1.294.516,10.981,4.016,27.143.6,27.143.6.671.048,1.342-.479,1.078-1.751a62.523,62.523,0,0,1-1.174-6.6c.036-.912-.229-4.005-.744-8.284-.179-1.523-.4-3.178-.648-4.952-.2-1.5-.442-3.081-.694-4.712-.3-1.894-.552-3.752-.8-5.563-.275-2.051-.538-4.041-.827-6.006a78.9,78.9,0,0,0-2.037-9.807,40.809,40.809,0,0,0-2.986-7.636c-3.057-5.886-10.466-6.809-11.748-6.93a.474.474,0,0,0-.336.083c-5.527,3.693-8.345,10.047-9.591,17.24A65.506,65.506,0,0,0,80.211,312.534Z" transform="translate(-7864.146 -2914.036)"/><path class="l" d="M88.237,293.541c.437,5.486,2.475,23.161,10.917,31.013a.5.5,0,0,0,.116.084c.434.234,3.053,1.493,7.968.842a.512.512,0,0,0,.445-.559c-.33-2.666-.751-5.756-1.264-9.046a.518.518,0,0,0-.1-.231L89.139,293.2A.5.5,0,0,0,88.237,293.541Z" transform="translate(-7861.176 -2910.471)"/><path class="m" d="M118.708,333.121a7.372,7.372,0,0,1,3.059,2.648h-3.224" transform="translate(-7849.97 -2895.637)"/><g transform="translate(-7771.578 -2621.259)"><path class="g" d="M89.812,298.136a23.547,23.547,0,0,1-.575-4.364c.479-4.46,5.191-3.645,6.042-3.105.983.6,3.453,2.53,6.223,10.742,1.907,5.658,3.045,10.023,3.752,12.744.229.815.54,1.8.792,2.626l-5.672,8.145C95.708,322,91.338,306.138,89.812,298.136Z" transform="translate(-89.23 -290.235)"/><path class="g" d="M107.191,316.571c2.49,3.613,11.592,17.69,15.693,22.784l-3.144,2.477c-.13-.216-.267-.442-.421-.671-.015-.021-1.388-.922-1.419-.944-2.75-3.02-5.831-5.568-10.239-10.047-4.564-4.649-8.771-9.522-10.479-12.524a51.606,51.606,0,0,1-2.723-4.808l9.087-4.569A32.485,32.485,0,0,0,107.191,316.571Z" transform="translate(-87.296 -283.567)"/></g><path class="g" d="M115.323,329.8a11.286,11.286,0,0,0,2.434,2.5c.967.5,2.4,1.553,3.364,1.955s2.881,5.006,2.279,5.575-4.309,1.533-6.535.441c-2.126-1.042-1.334-2.471-1.855-3.33a45.431,45.431,0,0,0-3.437-4.678l.731-1.448Z" transform="translate(-7852.546 -2896.866)"/><path class="g" d="M87.724,289.962a4.37,4.37,0,0,0,.822,1.066l.025.025c1.97,1.908,5.474,2.263,6.976,2.325a.5.5,0,0,0,.511-.608,7.266,7.266,0,0,1,.363-3.5.508.508,0,0,1,.662-.319c2.544.945,4.957,1.4,6.489.8a.57.57,0,0,0,.212-.147,17.5,17.5,0,0,0,2.76-4.1.49.49,0,0,1,.5-.273c.712.1,1.722.125,1.944-.47.277-.766-.245-3.45-.456-4.46.008-.033.025-.074.033-.114a7.828,7.828,0,0,1-.025-2.556c.064-.244.594-.529.725-.725A14.525,14.525,0,0,0,111,271.976a.476.476,0,0,0-.2-.477c-1.083-.779-5.432-3.9-5.782-3.968-.407-.089-10.4-1.929-10.743-1.79s-5.4,6.08-6.064,12.55a9.274,9.274,0,0,0,1.067,5.73H89.27S89.368,288.562,87.724,289.962Z" transform="translate(-7861.365 -2920.554)"/><path class="k" d="M103.422,303.578c-1.778,2.152-8.857,4.554-11.8,4.759-1.644-4.274-7.019-18.1-1.038-20.5C97.181,285.192,101.149,295.444,103.422,303.578Z" transform="translate(-7861.327 -2912.537)"/><path class="n" d="M88.342,285.447c1.97,1.908,5.474,2.263,6.976,2.325a.5.5,0,0,0,.511-.608,7.438,7.438,0,0,1,.415-3.67.51.51,0,0,0-.16-.555,17.591,17.591,0,0,1-2.005-1.872.5.5,0,0,0-.875.352l.211,4.565a.5.5,0,0,1-.458.525A6.926,6.926,0,0,1,88.342,285.447Z" transform="translate(-7861.137 -2914.948)"/><path class="o" d="M110.267,275.864c-3.623,2.079-9.738.032-11.273.937s-2.1,4.678-2.807,4.8c-.749.126-.575-1.012-.492-2.4s.312-2.946-2.108-2.489c-1.078.192-1.708,3.308-2.482,5.745a9.118,9.118,0,0,1-1.392,3.078.5.5,0,0,1-.8-.1c-3.912-6.812-3.13-21.886,7.264-21.785a.484.484,0,0,0,.3-.1,9.359,9.359,0,0,1,6.413-1.948c.021.007.048,0,.068.008,2.955.305,11.724,3.253,13.241,6.176C117.988,271.237,112.137,274.784,110.267,275.864Z" transform="translate(-7861.729 -2922.096)"/></g></g></g><path class="p" d="M725.739,167.386s-11.942-.72-10.546,7.658a2.044,2.044,0,0,0,1.062,2.153s.022-.629,1.226-.412a5.5,5.5,0,0,0,1.3.063,2.693,2.693,0,0,0,1.59-.657h0s3.359-1.386,4.667-6.879c0,0,.968-1.2.943-1.508l-2.018.864a3.615,3.615,0,0,1,.145,2.665s-.063-2.611-.452-2.552c-.079,0-1.047.506-1.047.506s1.185,2.533.289,4.378c0,0,.339-3.124-.66-4.2l-1.421.83s1.386,2.618.446,4.755c0,0,.242-3.278-.745-4.554l-1.288,1s1.3,2.583.509,4.356c0,0-.1-3.815-.789-4.1a7.77,7.77,0,0,0-1.295,1.4s.889,1.886.336,2.863c0,0-.339-2.542-.629-2.555a8.458,8.458,0,0,0-1.238,2.828,6.115,6.115,0,0,1,.965-3,3.366,3.366,0,0,0-1.716.889s.173-1.191,1.992-1.295a8.6,8.6,0,0,1,1.175-1.358,7.369,7.369,0,0,0-2.907.336s.965-1.122,3.24-.628l1.257-1.037a10.843,10.843,0,0,0-3.394.035s1.163-.993,3.737-.27l1.383-.827a12.415,12.415,0,0,0-3.24-.28,4.971,4.971,0,0,1,3.645.057l.99-.443s-1.49-.292-1.923-.339-.459-.167-.459-.167a5.141,5.141,0,0,1,2.794.314A12.329,12.329,0,0,0,725.739,167.386Z" transform="translate(-8962.125 -2698.302)"/><path class="q" d="M841.2,300.726s-11.942-.72-10.547,7.658a2.044,2.044,0,0,0,1.062,2.153s.022-.629,1.229-.412a5.5,5.5,0,0,0,1.3.063,2.691,2.691,0,0,0,1.571-.654h0s3.362-1.389,4.67-6.882c0,0,.965-1.2.927-1.505l-2.017.861a3.626,3.626,0,0,1,.148,2.665s-.066-2.611-.452-2.552c-.079,0-1.05.506-1.05.506s1.188,2.536.292,4.378c0,0,.339-3.124-.663-4.2l-1.4.82s1.386,2.618.446,4.755c0,0,.242-3.278-.745-4.554l-1.285,1.006s1.3,2.58.509,4.352c0,0-.1-3.815-.789-4.1a7.882,7.882,0,0,0-1.3,1.4s.892,1.886.339,2.863c0,0-.339-2.542-.628-2.555a8.458,8.458,0,0,0-1.238,2.828,6.135,6.135,0,0,1,.968-3,3.381,3.381,0,0,0-1.719.889s.176-1.191,2-1.295a7.852,7.852,0,0,1,1.175-1.358,7.368,7.368,0,0,0-2.907.336s.965-1.122,3.237-.613l1.257-1.037a10.846,10.846,0,0,0-3.394.035s1.163-.993,3.737-.27l1.383-.826a12.593,12.593,0,0,0-3.243-.28,4.981,4.981,0,0,1,3.648.057l.99-.443s-1.49-.292-1.926-.339-.459-.167-.459-.167a5.151,5.151,0,0,1,2.8.314A12.684,12.684,0,0,0,841.2,300.726Z" transform="translate(-9041.301 -2789.739)"/><path class="k" d="M615.824,251.316s2.75-11.656-5.748-11.7a2.041,2.041,0,0,0-2.3.679s.607.129.195,1.279a5.592,5.592,0,0,0-.283,1.257,2.7,2.7,0,0,0,.374,1.675h0s.8,3.551,5.971,5.776c0,0,1.018,1.156,1.326,1.169l-.5-2.134a3.611,3.611,0,0,1-2.652-.314s2.586.38,2.589,0c0-.079-.314-1.119-.314-1.119s-2.7.735-4.365-.462c0,0,3.02.867,4.249.066l-.566-1.546s-2.828.921-4.764-.371c0,0,3.19.8,4.616.044l-.77-1.439s-2.765.842-4.378-.242c0,0,3.771.547,4.18-.075a7.809,7.809,0,0,0-1.16-1.518s-2,.559-2.879-.154c0,0,2.561.1,2.621-.173a8.474,8.474,0,0,0-2.586-1.706,6.16,6.16,0,0,1,2.794,1.464,3.392,3.392,0,0,0-.585-1.845s1.144.377.943,2.2a7.831,7.831,0,0,1,1.134,1.389,7.391,7.391,0,0,0,.163-2.923s.943,1.144.053,3.3l.8,1.43a10.429,10.429,0,0,0,.544-3.35s.783,1.314-.371,3.727l.581,1.505a12.585,12.585,0,0,0,.827-3.143,4.968,4.968,0,0,1-.679,3.586l.27,1.05s.54-1.417.66-1.838.242-.424.242-.424a5.147,5.147,0,0,1-.783,2.7A12.494,12.494,0,0,0,615.824,251.316Z" transform="translate(-8888.473 -2747.767)"/><path class="k" d="M520.743,283.143s-9.591-7.174-13.02.6a2.045,2.045,0,0,0-.3,2.382s.358-.506,1.257.333a5.5,5.5,0,0,0,1.05.767,2.7,2.7,0,0,0,1.688.314h0s3.57.688,7.68-3.18c0,0,1.468-.471,1.606-.748l-2.165-.38a3.631,3.631,0,0,1-1.342,2.307s1.38-2.219,1.021-2.379c-.072-.035-1.153-.157-1.153-.157s-.4,2.772-2.162,3.818c0,0,2-2.423,1.754-3.869l-1.644-.088s-.28,2.951-2.241,4.22c0,0,2-2.605,1.886-4.214l-1.628.132s-.33,2.869-1.967,3.912c0,0,2.008-3.243,1.6-3.859a7.9,7.9,0,0,0-1.854.456s-.286,2.055-1.292,2.577c0,0,1.116-2.31.889-2.47a8.448,8.448,0,0,0-2.6,1.688,6.137,6.137,0,0,1,2.458-1.974,3.385,3.385,0,0,0-1.923-.2s.8-.9,2.376.016a7.935,7.935,0,0,1,1.729-.487,7.355,7.355,0,0,0-2.615-1.317s1.427-.409,3.045,1.257l1.631-.167a10.764,10.764,0,0,0-2.854-1.835s1.518-.192,3.268,1.826l1.609.072a12.538,12.538,0,0,0-2.552-2.018A4.969,4.969,0,0,1,517,282.527l1.072.173s-1.084-1.062-1.423-1.339-.292-.393-.292-.393a5.164,5.164,0,0,1,2.165,1.8A12.7,12.7,0,0,0,520.743,283.143Z" transform="translate(-8819.543 -2775.621)"/><path class="k" d="M622.353,71.03s-9.591-7.178-13.02.6a2.045,2.045,0,0,0-.3,2.382s.358-.506,1.257.333a5.592,5.592,0,0,0,1.053.764,2.693,2.693,0,0,0,1.688.314h0s3.57.688,7.68-3.183c0,0,1.468-.468,1.6-.748l-2.165-.374a3.615,3.615,0,0,1-1.342,2.307s1.383-2.219,1.024-2.379c-.072-.035-1.153-.157-1.153-.157s-.415,2.778-2.175,3.818c0,0,2-2.423,1.754-3.868l-1.644-.088s-.283,2.951-2.241,4.217c0,0,2-2.605,1.886-4.214l-1.625.132s-.333,2.872-1.97,3.916c0,0,2.011-3.243,1.6-3.859a7.9,7.9,0,0,0-1.854.456s-.286,2.055-1.292,2.577c0,0,1.116-2.31.889-2.473a8.479,8.479,0,0,0-2.6,1.691,6.109,6.109,0,0,1,2.457-1.974,3.362,3.362,0,0,0-1.926-.2s.8-.9,2.379.016a7.761,7.761,0,0,1,1.728-.487,7.394,7.394,0,0,0-2.615-1.32s1.424-.405,3.042,1.257l1.631-.167a10.774,10.774,0,0,0-2.853-1.838s1.518-.189,3.271,1.829l1.609.069a12.415,12.415,0,0,0-2.555-2.014A4.971,4.971,0,0,1,618.6,70.41l1.068.173s-1.087-1.05-1.427-1.32-.292-.39-.292-.39a5.154,5.154,0,0,1,2.165,1.8A13.566,13.566,0,0,0,622.353,71.03Z" transform="translate(-8889.222 -2630.165)"/><path class="k" d="M741,89.253s-3.834-11.348-11.065-6.889a2.066,2.066,0,0,0-1.593,1.794s.581-.214.839.98a5.659,5.659,0,0,0,.43,1.229,2.721,2.721,0,0,0,1.207,1.222h0s2.552,2.593,8.133,1.735c0,0,1.474.446,1.744.292l-1.571-1.543a3.615,3.615,0,0,1-2.414,1.138s2.4-1.043,2.2-1.38c-.041-.066-.861-.779-.861-.779s-1.9,2.052-3.947,1.917c0,0,3.02-.861,3.636-2.2l-1.3-1s-1.9,2.269-4.239,2.2c0,0,3.143-1.009,3.938-2.4l-1.414-.814s-1.886,2.178-3.84,2.109c0,0,3.495-1.53,3.5-2.272a7.857,7.857,0,0,0-1.785-.676s-1.4,1.53-2.514,1.392c0,0,2.225-1.273,2.131-1.534a8.431,8.431,0,0,0-3.1-.079,6.125,6.125,0,0,1,3.143-.236,3.391,3.391,0,0,0-1.474-1.257s1.169-.286,1.952,1.361a7.913,7.913,0,0,1,1.7.578,7.387,7.387,0,0,0-1.4-2.567s1.4.475,1.788,2.772l1.439.786a10.606,10.606,0,0,0-1.31-3.143s1.361.7,1.656,3.359l1.289.971a12.5,12.5,0,0,0-.962-3.111,4.975,4.975,0,0,1,1.32,3.4l.783.748s-.289-1.49-.409-1.911-.022-.449-.022-.449a5.181,5.181,0,0,1,.763,2.709A12.524,12.524,0,0,0,741,89.253Z" transform="translate(-8971.219 -2639.297)"/><path class="k" d="M665.031,108.165s-11.91-1.326-10.927,7.124a2.04,2.04,0,0,0,.943,2.2s.053-.629,1.257-.346a5.781,5.781,0,0,0,1.295.129,2.7,2.7,0,0,0,1.618-.575h0s3.428-1.216,5.028-6.637c0,0,1.025-1.147,1-1.458l-2.058.76a3.5,3.5,0,0,1,0,2.668s.066-2.611-.314-2.571c-.079,0-1.072.453-1.072.453s1.056,2.593.069,4.4c0,0,.5-3.1-.449-4.224l-1.461.754s1.257,2.687.2,4.774c0,0,.409-3.262-.512-4.585l-1.336.943s1.169,2.643.286,4.374c0,0,.091-3.815-.578-4.139a8.179,8.179,0,0,0-1.367,1.332s.8,1.917.195,2.875c0,0-.211-2.555-.487-2.58a8.45,8.45,0,0,0-1.383,2.772,6.119,6.119,0,0,1,1.119-2.948,3.381,3.381,0,0,0-1.76.8s.232-1.178,2.055-1.191c0,0,.99-1.229,1.257-1.295a7.388,7.388,0,0,0-2.923.189s1.021-1.075,3.265-.449l1.323-.971a10.192,10.192,0,0,0-3.4-.17s1.213-.943,3.746-.079l1.424-.757a12.513,12.513,0,0,0-3.224-.443,4.936,4.936,0,0,1,3.639.242l1.012-.393s-1.474-.368-1.908-.437-.449-.189-.449-.189a5.17,5.17,0,0,1,2.778.453A12.854,12.854,0,0,0,665.031,108.165Z" transform="translate(-8920.271 -2657.65)"/><path class="q" d="M996.644,402.335s-11.9-1.326-10.92,7.115a2.04,2.04,0,0,0,.943,2.2s.053-.629,1.257-.349a5.436,5.436,0,0,0,1.295.129,2.681,2.681,0,0,0,1.619-.575h0s3.428-1.216,5.012-6.634c0,0,1.024-1.15,1-1.458l-2.058.757a3.514,3.514,0,0,1,0,2.671s.066-2.615-.314-2.571c-.079,0-1.072.449-1.072.449s1.056,2.593.069,4.4c0,0,.5-3.1-.449-4.224l-1.461.757s1.257,2.687.207,4.774c0,0,.405-3.262-.515-4.588l-1.336.943s1.169,2.643.286,4.371c0,0,.091-3.815-.578-4.136a8.3,8.3,0,0,0-1.367,1.332s.8,1.917.195,2.876c0,0-.211-2.555-.487-2.58a8.449,8.449,0,0,0-1.383,2.772,6.12,6.12,0,0,1,1.119-2.948,3.353,3.353,0,0,0-1.76.8s.232-1.182,2.055-1.194c0,0,.993-1.229,1.257-1.292a7.363,7.363,0,0,0-2.922.185s1.021-1.072,3.268-.446l1.32-.971a10.5,10.5,0,0,0-3.391-.138s1.213-.943,3.746-.082l1.424-.754a12.514,12.514,0,0,0-3.224-.443,4.936,4.936,0,0,1,3.639.242l1.012-.4s-1.474-.368-1.908-.434-.449-.188-.449-.188a5.15,5.15,0,0,1,2.778.449A12.308,12.308,0,0,0,996.644,402.335Z" transform="translate(-9147.678 -2859.375)"/><path class="k" d="M1054.554,437.715s-11.9-1.323-10.92,7.115a2.046,2.046,0,0,0,.943,2.2s.053-.629,1.257-.346a5.546,5.546,0,0,0,1.292.126,2.716,2.716,0,0,0,1.612-.572h0s3.425-1.216,5.009-6.637c0,0,1.028-1.147,1-1.458l-2.058.757a3.514,3.514,0,0,1,0,2.671s.066-2.611-.314-2.571c-.078,0-1.072.449-1.072.449s1.056,2.593.069,4.4c0,0,.5-3.1-.449-4.22l-1.461.754s1.257,2.687.207,4.774c0,0,.406-3.262-.515-4.585l-1.335.943s1.169,2.643.289,4.374c0,0,.088-3.818-.581-4.139a8.3,8.3,0,0,0-1.367,1.332s.8,1.917.195,2.875c0,0-.211-2.555-.487-2.58a8.4,8.4,0,0,0-1.38,2.772,6.133,6.133,0,0,1,1.116-2.948,3.38,3.38,0,0,0-1.76.8s.236-1.182,2.058-1.191c0,0,.99-1.229,1.257-1.295a7.389,7.389,0,0,0-2.922.189s1.021-1.075,3.268-.449l1.32-.971a10.5,10.5,0,0,0-3.391-.138s1.213-.943,3.746-.079l1.423-.757a12.511,12.511,0,0,0-3.224-.443,4.936,4.936,0,0,1,3.639.242l1.012-.393s-1.474-.368-1.9-.437-.452-.189-.452-.189a5.17,5.17,0,0,1,2.778.452A12.432,12.432,0,0,0,1054.554,437.715Z" transform="translate(-9183.39 -2862.637)"/><path class="k" d="M920.293,133.283s-9.591-7.174-13.02.6a2.045,2.045,0,0,0-.3,2.382s.358-.506,1.257.333a5.5,5.5,0,0,0,1.049.767,2.7,2.7,0,0,0,1.688.314h0s3.57.688,7.684-3.18c0,0,1.464-.471,1.6-.748l-2.159-.39a3.631,3.631,0,0,1-1.342,2.307s1.38-2.219,1.021-2.379c-.072-.035-1.15-.157-1.15-.157s-.405,2.772-2.165,3.818c0,0,2-2.423,1.754-3.868l-1.644-.088s-.28,2.951-2.241,4.22c0,0,2-2.605,1.886-4.214l-1.628.132s-.314,2.869-1.967,3.912c0,0,2.011-3.243,1.6-3.859a7.9,7.9,0,0,0-1.854.456s-.283,2.055-1.288,2.577c0,0,1.112-2.31.886-2.47a8.448,8.448,0,0,0-2.6,1.688,6.138,6.138,0,0,1,2.457-1.974,3.385,3.385,0,0,0-1.923-.2s.8-.9,2.379.016a7.9,7.9,0,0,1,1.725-.487,7.355,7.355,0,0,0-2.615-1.317s1.427-.409,3.045,1.257l1.631-.167a10.708,10.708,0,0,0-2.853-1.835s1.518-.192,3.268,1.826l1.612.072a12.6,12.6,0,0,0-2.555-2.018,4.961,4.961,0,0,1,3.014,2.052l1.072.173s-1.084-1.062-1.424-1.339-.289-.368-.289-.368a5.166,5.166,0,0,1,2.162,1.8A12.619,12.619,0,0,0,920.293,133.283Z" transform="translate(-9093.532 -2672.856)"/><path class="q" d="M946.426,286.635s-3.306-11.511-10.741-7.379a2.042,2.042,0,0,0-1.675,1.719s.591-.185.8,1.018a5.577,5.577,0,0,0,.377,1.257,2.7,2.7,0,0,0,1.15,1.282h0s2.432,2.7,8.045,2.1c0,0,1.452.509,1.728.371l-1.486-1.615a3.614,3.614,0,0,1-2.461,1.031s2.439-.943,2.25-1.279c-.038-.069-.823-.82-.823-.82s-1.992,1.967-4.029,1.738c0,0,3.058-.723,3.73-2.024l-1.257-1.062s-2,2.181-4.334,2.011c0,0,3.168-.87,4.041-2.225l-1.376-.877s-2,2.09-3.931,1.933c0,0,3.561-1.373,3.6-2.112a7.846,7.846,0,0,0-1.757-.754s-1.468,1.464-2.583,1.276c0,0,2.281-1.172,2.2-1.436a8.488,8.488,0,0,0-3.089-.22,6.131,6.131,0,0,1,3.143-.091,3.373,3.373,0,0,0-1.414-1.32s1.182-.236,1.886,1.446a7.841,7.841,0,0,1,1.669.654,7.349,7.349,0,0,0-1.288-2.627s1.383.534,1.662,2.847l1.4.852a10.451,10.451,0,0,0-1.169-3.187s1.326.764,1.505,3.429l1.257,1.028a12.461,12.461,0,0,0-.82-3.143,4.966,4.966,0,0,1,1.166,3.457l.748.786s-.22-1.5-.314-1.93,0-.487,0-.487a5.149,5.149,0,0,1,.644,2.74A12.472,12.472,0,0,0,946.426,286.635Z" transform="translate(-9112.255 -2774.412)"/><path class="q" d="M709.565,374.157s-6.42-10.113-12.382-4.06a2.033,2.033,0,0,0-1.125,2.121s.519-.346,1.053.754a5.379,5.379,0,0,0,.71,1.087,2.684,2.684,0,0,0,1.461.905h0s3.1,1.911,8.312-.251a5.365,5.365,0,0,0,1.763-.129l-1.886-1.131a3.613,3.613,0,0,1-2.074,1.681s2.08-1.571,1.8-1.86c-.053-.057-1.021-.553-1.021-.553s-1.361,2.445-3.378,2.8c0,0,2.731-1.556,3.014-2.995l-1.505-.663s-1.31,2.655-3.592,3.143c0,0,2.8-1.725,3.253-3.271l-1.571-.453s-1.326,2.567-3.227,2.96c0,0,3.029-2.319,2.863-3.042a7.806,7.806,0,0,0-1.886-.229s-1,1.82-2.121,1.952c0,0,1.86-1.766,1.706-2a8.467,8.467,0,0,0-3.026.66,6.115,6.115,0,0,1,3-.974,3.372,3.372,0,0,0-1.725-.87s1.065-.556,2.2.858a7.763,7.763,0,0,1,1.788.157,7.233,7.233,0,0,0-1.977-2.159s1.477.126,2.395,2.266l1.587.421a10.508,10.508,0,0,0-2.018-2.728s1.486.358,2.407,2.869l1.483.629a12.527,12.527,0,0,0-1.675-2.791,4.952,4.952,0,0,1,2.09,2.989l.943.544s-.629-1.38-.852-1.76-.135-.468-.135-.468a5.154,5.154,0,0,1,1.386,2.448A12.776,12.776,0,0,0,709.565,374.157Z" transform="translate(-8949.063 -2835.996)"/><path class="p" d="M843.993,209.183s-6.106-10.3-12.256-4.44a2.044,2.044,0,0,0-1.188,2.087s.525-.333,1.028.783a5.437,5.437,0,0,0,.676,1.112,2.668,2.668,0,0,0,1.433.943h0s3.033,2,8.315,0c0,0,1.534.129,1.766-.075l-1.845-1.188a3.613,3.613,0,0,1-2.124,1.615s2.128-1.518,1.86-1.8c-.057-.06-1.006-.588-1.006-.588s-1.436,2.4-3.457,2.7c0,0,2.778-1.471,3.1-2.9l-1.483-.7s-1.392,2.618-3.689,3.036c0,0,2.85-1.637,3.353-3.168l-1.552-.5s-1.408,2.514-3.319,2.86c0,0,3.1-2.225,2.954-2.951a7.761,7.761,0,0,0-1.886-.289s-1.053,1.788-2.181,1.886c0,0,1.914-1.7,1.769-1.942a8.46,8.46,0,0,0-3.045.566,6.133,6.133,0,0,1,3.026-.88,3.378,3.378,0,0,0-1.7-.924s1.084-.525,2.2.924a7.959,7.959,0,0,1,1.782.214,7.518,7.518,0,0,0-1.907-2.219s1.471.17,2.322,2.338l1.571.471a10.45,10.45,0,0,0-1.933-2.791s1.477.405,2.319,2.941l1.461.682a12.618,12.618,0,0,0-1.571-2.828,4.971,4.971,0,0,1,2,3.051l.921.572s-.591-1.4-.8-1.785-.119-.471-.119-.471a5.163,5.163,0,0,1,1.31,2.489A12.164,12.164,0,0,0,843.993,209.183Z" transform="translate(-9041.295 -2722.692)"/><path class="r" d="M728.352,268.96s.314-11.973-8-10.286a2.048,2.048,0,0,0-2.118,1.134s.628,0,.453,1.21a5.516,5.516,0,0,0-.019,1.3,2.687,2.687,0,0,0,.707,1.571h0s1.5,3.312,7.033,4.437c0,0,1.229.927,1.537.877L727,267.219a3.627,3.627,0,0,1-2.659.236s2.608-.154,2.536-.537c0-.079-.541-1.034-.541-1.034s-2.5,1.273-4.365.437c0,0,3.143.236,4.17-.8l-.877-1.392s-2.571,1.471-4.739.6c0,0,3.284.132,4.528-.9l-1.047-1.257s-2.536,1.389-4.333.654c0,0,3.809-.229,4.085-.924a8.151,8.151,0,0,0-1.446-1.257s-1.842.943-2.847.434c0,0,2.514-.421,2.53-.7a8.435,8.435,0,0,0-2.879-1.144,6.119,6.119,0,0,1,3.033.867,3.378,3.378,0,0,0-.943-1.688s1.2.135,1.361,1.948a7.814,7.814,0,0,1,1.4,1.131,7.349,7.349,0,0,0-.434-2.894s1.156.927.723,3.215l1.078,1.238a10.52,10.52,0,0,0-.148-3.391s1.031,1.128.4,3.724l.871,1.354a12.527,12.527,0,0,0,.173-3.249,4.987,4.987,0,0,1,.063,3.649l.478.974s.242-1.5.273-1.936.151-.465.151-.465a5.162,5.162,0,0,1-.217,2.806A11.981,11.981,0,0,0,728.352,268.96Z" transform="translate(-8964.285 -2760.801)"/><ellipse class="s" cx="8.463" cy="1.43" rx="8.463" ry="1.43" transform="translate(-8230.645 -2342.563)"/><ellipse class="t" cx="8.463" cy="1.43" rx="8.463" ry="1.43" transform="translate(-8261.495 -2320.854)"/><ellipse class="q" cx="8.463" cy="1.43" rx="8.463" ry="1.43" transform="translate(-8451.03 -2331.975)"/><ellipse class="t" cx="8.463" cy="1.43" rx="8.463" ry="1.43" transform="translate(-8197.305 -2322.284)"/><ellipse class="u" cx="12.636" cy="2.137" rx="12.636" ry="2.137" transform="translate(-8192.666 -2341.133)"/><path class="p" d="M919.494,754.3a3.649,3.649,0,0,0,1.2-1.816,1.614,1.614,0,0,0-.839-1.851,2.372,2.372,0,0,0-2.228.779,2.986,2.986,0,0,1-2.162,1.047,3.3,3.3,0,0,0,1.018-3.083,1.291,1.291,0,0,0-.283-.629c-.431-.459-1.207-.261-1.722.1-1.634,1.15-2.09,3.369-2.1,5.367a10.092,10.092,0,0,1-.028-2.2,2.257,2.257,0,0,0-.833-1.955,2.485,2.485,0,0,0-1.257-.314,2.625,2.625,0,0,0-2.055.584,2.025,2.025,0,0,0,.079,2.514,8.13,8.13,0,0,0,2.128,1.7A4.757,4.757,0,0,1,911.936,756a1.468,1.468,0,0,1,.11.258h4.607A12.711,12.711,0,0,0,919.494,754.3Z" transform="translate(-9094.285 -3096.793)"/><path class="p" d="M170.29,778.179s4.824-.148,6.285-1.185,7.426-2.272,7.787-.61,7.253,8.262,1.8,8.306-12.661-.849-14.113-1.735S170.29,778.179,170.29,778.179Z" transform="translate(-8618.539 -3115.371)"/><path class="v" d="M186.257,789.789c-5.449.044-12.661-.848-14.113-1.735-1.106-.672-1.546-3.089-1.694-4.2h-.16s.314,3.894,1.757,4.777,8.664,1.779,14.113,1.735c1.571,0,2.115-.572,2.087-1.4C188.027,789.466,187.426,789.78,186.257,789.789Z" transform="translate(-8618.539 -3121.048)"/><g transform="translate(-8257.225 -2508.273)"><rect class="k" width="119.529" height="66.284" rx="7"/><g transform="translate(11.807 10.734)"><g transform="translate(0 33.048)"><path class="w" d="M-2664.495,1520.412l1.138,2.306a1.021,1.021,0,0,0,.768.558l2.545.37a1.02,1.02,0,0,1,.565,1.74l-1.842,1.8a1.022,1.022,0,0,0-.293.9l.434,2.535a1.019,1.019,0,0,1-1.479,1.075l-2.277-1.2a1.02,1.02,0,0,0-.949,0l-2.277,1.2a1.02,1.02,0,0,1-1.48-1.075l.435-2.535a1.019,1.019,0,0,0-.293-.9l-1.842-1.8a1.02,1.02,0,0,1,.566-1.74l2.544-.37a1.02,1.02,0,0,0,.768-.558l1.138-2.306A1.02,1.02,0,0,1-2664.495,1520.412Z" transform="translate(2671.649 -1519.843)"/><path class="w" d="M-2561.685,1520.412l1.138,2.306a1.019,1.019,0,0,0,.768.558l2.544.37a1.02,1.02,0,0,1,.565,1.74l-1.842,1.8a1.021,1.021,0,0,0-.293.9l.435,2.535a1.019,1.019,0,0,1-1.479,1.075l-2.276-1.2a1.02,1.02,0,0,0-.949,0l-2.276,1.2a1.02,1.02,0,0,1-1.48-1.075l.435-2.535a1.019,1.019,0,0,0-.293-.9l-1.841-1.8a1.02,1.02,0,0,1,.565-1.74l2.545-.37a1.018,1.018,0,0,0,.768-.558l1.139-2.306A1.02,1.02,0,0,1-2561.685,1520.412Z" transform="translate(2590.052 -1519.843)"/><path class="w" d="M-2458.874,1520.412l1.138,2.306a1.02,1.02,0,0,0,.768.558l2.544.37a1.02,1.02,0,0,1,.565,1.74l-1.841,1.8a1.02,1.02,0,0,0-.293.9l.435,2.535a1.02,1.02,0,0,1-1.48,1.075l-2.276-1.2a1.02,1.02,0,0,0-.949,0l-2.276,1.2a1.02,1.02,0,0,1-1.48-1.075l.435-2.535a1.02,1.02,0,0,0-.293-.9l-1.842-1.8a1.02,1.02,0,0,1,.565-1.74l2.545-.37a1.02,1.02,0,0,0,.768-.558l1.138-2.306A1.02,1.02,0,0,1-2458.874,1520.412Z" transform="translate(2508.457 -1519.843)"/><path class="w" d="M-2356.064,1520.412l1.138,2.306a1.019,1.019,0,0,0,.768.558l2.545.37a1.02,1.02,0,0,1,.565,1.74l-1.841,1.8a1.019,1.019,0,0,0-.293.9l.435,2.535a1.02,1.02,0,0,1-1.48,1.075l-2.276-1.2a1.019,1.019,0,0,0-.949,0l-2.276,1.2a1.02,1.02,0,0,1-1.48-1.075l.435-2.535a1.02,1.02,0,0,0-.293-.9l-1.842-1.8a1.02,1.02,0,0,1,.565-1.74l2.545-.37a1.019,1.019,0,0,0,.767-.558l1.139-2.306A1.02,1.02,0,0,1-2356.064,1520.412Z" transform="translate(2426.859 -1519.843)"/><path class="w" d="M-2253.253,1520.412l1.139,2.306a1.018,1.018,0,0,0,.768.558l2.545.37a1.02,1.02,0,0,1,.565,1.74l-1.841,1.8a1.018,1.018,0,0,0-.293.9l.435,2.535a1.02,1.02,0,0,1-1.48,1.075l-2.277-1.2a1.02,1.02,0,0,0-.949,0l-2.276,1.2a1.02,1.02,0,0,1-1.48-1.075l.435-2.535a1.019,1.019,0,0,0-.293-.9l-1.842-1.8a1.02,1.02,0,0,1,.565-1.74l2.545-.37a1.019,1.019,0,0,0,.768-.558l1.138-2.306A1.02,1.02,0,0,1-2253.253,1520.412Z" transform="translate(2345.263 -1519.843)"/></g><g transform="translate(39.827 3.954)"><g transform="translate(0 0)"><rect class="x" width="57.508" height="0.766" rx="0.383"/><rect class="x" width="40.328" height="0.766" rx="0.383" transform="translate(0 7.969)"/><rect class="x" width="34.049" height="0.766" rx="0.383" transform="translate(0 15.939)"/></g></g><path class="p" d="M-2666.444,1356.461h1.5a1.336,1.336,0,0,0,.192.041,11.855,11.855,0,0,1,4.455,1.16,12.642,12.642,0,0,1,7.182,9.349c.1.488.111.986.2,1.475v1.5a1.808,1.808,0,0,0-.042.215,11.573,11.573,0,0,1-1.17,4.453,12.533,12.533,0,0,1-11.027,7.334,11.776,11.776,0,0,1-7.047-1.773,12.517,12.517,0,0,1-6.242-10.439,11.9,11.9,0,0,1,1.49-6.55,12.579,12.579,0,0,1,9.063-6.563C-2667.417,1356.57-2666.928,1356.527-2666.444,1356.461Zm.953,14.326c-.993,0-1.8-.006-2.606,0a4.255,4.255,0,0,0-4.213,3.263,2.353,2.353,0,0,0,.2,2.017,3.72,3.72,0,0,0,1.026.9,9.276,9.276,0,0,0,6.67,1.6,9.276,9.276,0,0,0,4.8-2.141,1.786,1.786,0,0,0,.649-1.427,4.246,4.246,0,0,0-3.723-4.169C-2663.682,1370.723-2664.681,1370.817-2665.491,1370.787Zm-4.43-6.283a4.242,4.242,0,0,0,4.217,4.229,4.244,4.244,0,0,0,4.236-4.236,4.229,4.229,0,0,0-4.23-4.21A4.226,4.226,0,0,0-2669.921,1364.5Z" transform="translate(2678.472 -1356.461)"/></g></g></g></svg>