<?xml version="1.0" encoding="utf-8"?>
<!-- Generator: Adobe Illustrator 24.1.3, SVG Export Plug-In . SVG Version: 6.00 Build 0)  -->
<svg version="1.1" id="Layer_1" xmlns="http://www.w3.org/2000/svg" xmlns:xlink="http://www.w3.org/1999/xlink" x="0px" y="0px"
	 width="240px" height="240px" viewBox="0 0 240 240" enable-background="new 0 0 240 240" xml:space="preserve">
<path fill="#525A7E" d="M24.8,220.4l-3.5,0.4l-0.4-3.5c-0.1-0.9-0.9-1.5-1.8-1.4s-1.5,0.9-1.4,1.8l0.4,3.5l-3.5,0.4
	c-0.9,0.1-1.5,0.9-1.4,1.8c0.1,0.9,0.9,1.5,1.8,1.4l3.5-0.4l0.4,3.5c0.1,0.9,0.9,1.5,1.8,1.4c0.9-0.1,1.5-0.9,1.4-1.8l-0.4-3.5
	l3.5-0.4c0.9-0.1,1.5-0.9,1.4-1.8C26.5,221,25.7,220.3,24.8,220.4z"/>
<path fill="#525A7E" d="M238.2,203.4l-3.5,0.4l-0.4-3.5c-0.1-0.9-0.9-1.5-1.8-1.4c-0.9,0.1-1.5,0.9-1.4,1.8l0.4,3.5l-3.5,0.4
	c-0.9,0.1-1.5,0.9-1.4,1.8s0.9,1.5,1.8,1.4l3.5-0.4l0.4,3.5c0.1,0.9,0.9,1.5,1.8,1.4s1.5-0.9,1.4-1.8l-0.4-3.5l3.5-0.4
	c0.9-0.1,1.5-0.9,1.4-1.8C239.9,204,239.1,203.3,238.2,203.4z"/>
<path fill="#525A7E" d="M37.2,4.5l-3.5,0.4l-0.4-3.5c-0.1-0.9-0.9-1.5-1.8-1.4S30,0.9,30.1,1.8l0.4,3.5L27,5.7
	c-0.9,0.1-1.5,0.9-1.4,1.8c0.1,0.9,0.9,1.5,1.8,1.4l3.5-0.4l0.4,3.5c0.1,0.9,0.9,1.5,1.8,1.4c0.9-0.1,1.5-0.9,1.4-1.8l-0.4-3.5
	l3.5-0.4c0.9-0.1,1.5-0.9,1.4-1.8C38.9,5,38.1,4.4,37.2,4.5z"/>
<circle fill="#FFFFFF" cx="120" cy="120" r="117.3"/>
<path fill="#EAEDF7" d="M123.7,50.4c53.4,0,98.5,35.7,112.6,84.6c0.6-4.9,1-9.9,1-15C237.3,55.2,184.8,2.7,120,2.7
	C55.2,2.7,2.7,55.2,2.7,120c0,11.3,1.6,22.3,4.6,32.7C14.8,95,64,50.4,123.7,50.4z"/>
<path fill="#525A7E" d="M120,240C53.8,240,0,186.2,0,120S53.8,0,120,0s120,53.8,120,120S186.2,240,120,240z M120,5.5
	C56.9,5.5,5.5,56.9,5.5,120S56.9,234.5,120,234.5c63.1,0,114.5-51.4,114.5-114.5S183.1,5.5,120,5.5z"/>
<path fill="#525A7E" d="M157.3,214.4c-1.1,0-2.1-0.6-2.5-1.7c-0.6-1.4,0.1-3,1.5-3.6c26.1-10.6,46.2-32.1,55.1-58.9
	c0.5-1.4,2-2.2,3.5-1.7c1.4,0.5,2.2,2,1.7,3.5c-9.4,28.3-30.6,51-58.2,62.2C158,214.3,157.6,214.4,157.3,214.4z"/>
<path fill="#525A7E" d="M133.7,220.7c-1.4,0-2.5-1-2.7-2.4c-0.2-1.5,0.8-2.9,2.3-3.1c3.1-0.4,6.3-1,9.4-1.8c1.5-0.4,3,0.6,3.3,2
	c0.4,1.5-0.5,3-2,3.3c-3.2,0.8-6.6,1.4-9.9,1.9C134,220.7,133.8,220.7,133.7,220.7z"/>
<path fill="#FFFFFF" d="M197,24.7h-51.8c-4.9,0-9.5,1.9-12.9,5.4l-97.5,97.5c-3.6,3.6-3.6,9.4,0,12.9l64.8,64.8
	c3.6,3.6,9.4,3.6,13,0l97.5-97.5c3.4-3.4,5.4-8.1,5.4-12.9V43C215.3,32.9,207.1,24.7,197,24.7z M177.1,79.4
	c-9.1,0-16.5-7.4-16.5-16.5c0-9.1,7.4-16.5,16.5-16.5c9.1,0,16.5,7.4,16.5,16.5C193.6,72,186.2,79.4,177.1,79.4z"/>
<path fill="#EAEDF7" d="M108.6,183.5c-1.4,1.4-3.8,1.4-5.2,0l-62.3-62.3l-6.3,6.4c-3.6,3.6-3.6,9.4,0,12.9l64.8,64.8
	c3.6,3.6,9.4,3.6,13,0l97.5-97.5c3.4-3.4,5.4-8.1,5.4-12.9V69.2c0,4.9-1.9,9.5-5.4,13L108.6,183.5z"/>
<path fill="#525A7E" d="M106,210.7c-3.2,0-6.2-1.2-8.4-3.5l-64.8-64.8c-2.2-2.2-3.5-5.2-3.5-8.4c0-3.2,1.2-6.2,3.5-8.4l97.5-97.5
	c4-4,9.3-6.2,14.9-6.2H197C208.6,22,218,31.4,218,43v51.8c0,5.6-2.2,10.9-6.2,14.9l-97.5,97.5C112.1,209.4,109.2,210.7,106,210.7z
	 M145.1,27.5c-4.2,0-8.1,1.6-11,4.6l-97.5,97.5c-2.5,2.5-2.5,6.6,0,9.1l64.8,64.8c2.5,2.5,6.6,2.5,9.1,0l97.5-97.5
	c2.9-2.9,4.6-6.9,4.6-11V43c0-8.6-7-15.6-15.6-15.6H145.1z M177.1,82.1c-10.6,0-19.2-8.6-19.2-19.2s8.6-19.2,19.2-19.2
	s19.2,8.6,19.2,19.2S187.7,82.1,177.1,82.1z M177.1,49.1c-7.6,0-13.7,6.2-13.7,13.7c0,7.6,6.2,13.7,13.7,13.7s13.7-6.2,13.7-13.7
	C190.9,55.3,184.7,49.1,177.1,49.1z"/>
<path fill="#FFFFFF" d="M145,103.4c1.5,8.9-5.2,16.5-12.9,14.8c-4.3-0.9-7.8-5-8.6-9.9c-1.5-8.8,5.2-16.5,12.9-14.8
	C140.7,94.4,144.2,98.4,145,103.4z"/>
<path fill="#EAEDF7" d="M145,103.4c-0.5-3-2-5.7-4.1-7.5c1.3,8.7-5.3,16.1-13,14.5c-1.7-0.4-3.2-1.2-4.5-2.4c0,0.1,0,0.2,0,0.3
	c0.8,4.9,4.3,8.9,8.6,9.9C139.8,119.8,146.5,112.2,145,103.4z"/>
<path fill="#525A7E" d="M134.2,121.1c-0.9,0-1.8-0.1-2.7-0.3c-5.4-1.2-9.8-6-10.8-12.1c-0.9-5.5,0.8-11,4.6-14.6
	c3.2-3.1,7.5-4.3,11.7-3.4c5.4,1.2,9.8,6,10.8,12.1l0,0c0.9,5.5-0.8,11-4.6,14.6C140.7,119.9,137.5,121.1,134.2,121.1z M134.3,96
	c-1.9,0-3.7,0.7-5.1,2.1c-2.5,2.3-3.6,6-2.9,9.7c0.6,3.8,3.3,6.9,6.5,7.6c2.4,0.5,4.8-0.2,6.7-2c2.5-2.3,3.6-6,2.9-9.7l0,0
	c-0.6-3.8-3.3-6.9-6.5-7.6C135.3,96.1,134.8,96,134.3,96z"/>
<path fill="#FFFFFF" d="M109.8,142.3c-4.4,7.4-13.9,7.4-18.3,0c-2.5-4.1-2.5-9.8,0-14c4.4-7.4,13.9-7.4,18.3,0
	C112.2,132.5,112.2,138.2,109.8,142.3z"/>
<path fill="#EAEDF7" d="M107.2,125.4c0.5,3.1,0,6.4-1.6,9.1c-3.7,6.2-10.9,7.2-15.8,3c0.3,1.7,0.7,3.4,1.6,4.9
	c4.4,7.4,13.9,7.4,18.3,0c2.5-4.1,2.5-9.8,0-14C109,127.2,108.2,126.2,107.2,125.4z"/>
<path fill="#525A7E" d="M100.6,150.6c-4.6,0-8.9-2.6-11.5-6.9c-3-5-3-11.8,0-16.8c2.6-4.3,6.9-6.9,11.5-6.9s8.9,2.6,11.5,6.9
	c3,5,3,11.8,0,16.8C109.5,148.1,105.2,150.6,100.6,150.6z M100.6,125.5c-2.7,0-5.2,1.5-6.8,4.2c-2,3.3-2,7.9,0,11.1
	c1.6,2.7,4.1,4.2,6.8,4.2s5.2-1.5,6.8-4.2l0,0c2-3.3,2-7.9,0-11.1C105.8,127.1,103.3,125.5,100.6,125.5z"/>
<path fill="#525A7E" d="M139.1,78.7c-28.3,0-51.3-16.8-51.3-37.5c0-20.7,23-37.5,51.3-37.5c8.5,0,16.8,1.5,24.1,4.3
	c1.4,0.6,2.1,2.1,1.6,3.6c-0.6,1.4-2.1,2.1-3.6,1.6c-6.6-2.6-14.3-3.9-22.1-3.9c-25.3,0-45.8,14.4-45.8,32s20.5,32,45.8,32
	c21.1,0,39.9-10.5,44.6-24.9c0.5-1.4,2-2.2,3.5-1.8c1.4,0.5,2.2,2,1.8,3.5C183.4,67,162.9,78.7,139.1,78.7z"/>
<path fill="#525A7E" d="M10.1,42.1C4.5,42.1,0,37.6,0,32.1S4.5,22,10.1,22s10.1,4.5,10.1,10.1S15.6,42.1,10.1,42.1z M10.1,27.5
	c-2.5,0-4.6,2.1-4.6,4.6c0,2.5,2.1,4.6,4.6,4.6c2.5,0,4.6-2.1,4.6-4.6C14.7,29.5,12.6,27.5,10.1,27.5z"/>
<circle fill="#FFFFFF" cx="207.9" cy="229.9" r="7.3"/>
<path fill="#525A7E" d="M207.9,240c-5.6,0-10.1-4.5-10.1-10.1s4.5-10.1,10.1-10.1s10.1,4.5,10.1,10.1S213.5,240,207.9,240z
	 M207.9,225.3c-2.5,0-4.6,2.1-4.6,4.6c0,2.5,2.1,4.6,4.6,4.6c2.5,0,4.6-2.1,4.6-4.6C212.5,227.4,210.5,225.3,207.9,225.3z"/>
</svg>
