<?xml version="1.0" encoding="utf-8"?>
<!-- Generator: Adobe Illustrator 24.1.3, SVG Export Plug-In . SVG Version: 6.00 Build 0)  -->
<svg version="1.1" id="Layer_1" xmlns="http://www.w3.org/2000/svg" xmlns:xlink="http://www.w3.org/1999/xlink" x="0px" y="0px"
	 width="240px" height="240px" viewBox="0 0 240 240" enable-background="new 0 0 240 240" xml:space="preserve">
<rect x="36.2" y="88.9" fill="#EAEDF7" width="167.6" height="148.2"/>
<path fill="#FFFFFF" d="M184.4,88.9H36.2V221h145c1.8,0,3.2-1.4,3.2-3.2V88.9z"/>
<path fill="#525A7E" d="M203.8,239.5H36.2c-1.3,0-2.4-1.1-2.4-2.4V88.9c0-1.3,1.1-2.4,2.4-2.4h167.6c1.3,0,2.4,1.1,2.4,2.4v148.2
	C206.2,238.5,205.1,239.5,203.8,239.5z M38.6,234.7h162.7V91.3H38.6V234.7z"/>
<path fill="#525A7E" d="M237.2,240H2.8c-1.5,0-2.7-1.2-2.7-2.7c0-1.5,1.2-2.7,2.7-2.7h234.5c1.5,0,2.7,1.2,2.7,2.7
	C240,238.8,238.8,240,237.2,240z"/>
<path fill="#EAEDF7" d="M203.8,110.4h-12.9c-10.6,0-19.3-8.7-19.3-19.3v-2.1h51.6V91C223.1,101.7,214.4,110.4,203.8,110.4z"/>
<path fill="#FFFFFF" d="M190.9,110.4L190.9,110.4c-10.6,0-19.3-8.7-19.3-19.3v-2.1h32.2v8.6C203.8,104.6,198,110.4,190.9,110.4z"/>
<path fill="#525A7E" d="M203.8,112.8h-12.9c-12,0-21.8-9.8-21.8-21.8v-2.1c0-1.3,1.1-2.4,2.4-2.4h51.6c1.3,0,2.4,1.1,2.4,2.4V91
	C225.5,103,215.8,112.8,203.8,112.8z M174,91.3c0.1,9.2,7.7,16.6,16.9,16.6h12.9c9.2,0,16.8-7.4,16.9-16.6H174z"/>
<path fill="#EAEDF7" d="M152.2,110.4h-12.9c-10.6,0-19.3-8.7-19.3-19.3v-2.1h51.6V91C171.6,101.7,162.9,110.4,152.2,110.4z"/>
<path fill="#FFFFFF" d="M139.3,110.4L139.3,110.4c-10.6,0-19.3-8.7-19.3-19.3v-2.1h32.2v8.6C152.2,104.6,146.4,110.4,139.3,110.4z"
	/>
<path fill="#525A7E" d="M152.2,112.8h-12.9c-12,0-21.8-9.8-21.8-21.8v-2.1c0-1.3,1.1-2.4,2.4-2.4h51.6c1.3,0,2.4,1.1,2.4,2.4V91
	C174,103,164.2,112.8,152.2,112.8z M122.4,91.3c0.1,9.2,7.7,16.6,16.9,16.6h12.9c9.2,0,16.8-7.4,16.9-16.6H122.4z"/>
<path fill="#EAEDF7" d="M100.7,110.4H87.8c-10.6,0-19.3-8.7-19.3-19.3v-2.1H120V91C120,101.7,111.3,110.4,100.7,110.4z"/>
<path fill="#FFFFFF" d="M87.8,110.4L87.8,110.4c-10.6,0-19.3-8.7-19.3-19.3v-2.1h32.2v8.6C100.7,104.6,94.9,110.4,87.8,110.4z"/>
<path fill="#525A7E" d="M100.7,112.8H87.8C75.8,112.8,66,103,66,91v-2.1c0-1.3,1.1-2.4,2.4-2.4H120c1.3,0,2.4,1.1,2.4,2.4V91
	C122.4,103,112.7,112.8,100.7,112.8z M70.9,91.3c0.1,9.2,7.7,16.6,16.9,16.6h12.9c9.2,0,16.8-7.4,16.9-16.6H70.9z"/>
<path fill="#EAEDF7" d="M49.1,110.4H36.2c-10.6,0-19.3-8.7-19.3-19.3v-2.1h51.6V91C68.4,101.7,59.7,110.4,49.1,110.4z"/>
<path fill="#FFFFFF" d="M36.2,110.4L36.2,110.4c-10.6,0-19.3-8.7-19.3-19.3v-2.1h32.2v8.6C49.1,104.6,43.3,110.4,36.2,110.4z"/>
<path fill="#525A7E" d="M49.1,112.8H36.2c-12,0-21.8-9.8-21.8-21.8v-2.1c0-1.3,1.1-2.4,2.4-2.4h51.6c1.3,0,2.4,1.1,2.4,2.4V91
	C70.9,103,61.1,112.8,49.1,112.8z M19.3,91.3c0.1,9.2,7.7,16.6,16.9,16.6h12.9c9.2,0,16.8-7.4,16.9-16.6H19.3z"/>
<polygon fill="#EAEDF7" points="49.1,56.7 16.9,88.9 68.4,88.9 84.6,56.7 "/>
<polygon fill="#FFFFFF" points="49.1,56.7 16.9,88.9 49.1,88.9 71.7,56.7 "/>
<path fill="#525A7E" d="M68.4,91.3H16.9c-1,0-1.9-0.6-2.2-1.5c-0.4-0.9-0.2-1.9,0.5-2.6l32.2-32.2c0.5-0.5,1.1-0.7,1.7-0.7h35.4
	c0.8,0,1.6,0.4,2.1,1.1c0.4,0.7,0.5,1.6,0.1,2.4L70.6,90C70.2,90.8,69.4,91.3,68.4,91.3z M22.7,86.5h44.2l13.7-27.4H50.1L22.7,86.5z
	"/>
<polygon fill="#EAEDF7" points="190.9,56.7 155.4,56.7 171.6,88.9 223.1,88.9 "/>
<polygon fill="#FFFFFF" points="178,56.7 155.4,56.7 171.6,88.9 203.8,88.9 "/>
<path fill="#525A7E" d="M223.1,91.3h-51.6c-0.9,0-1.8-0.5-2.2-1.3l-16.1-32.2c-0.4-0.7-0.3-1.6,0.1-2.4c0.4-0.7,1.2-1.1,2.1-1.1
	h35.4c0.6,0,1.3,0.3,1.7,0.7l32.2,32.2c0.7,0.7,0.9,1.7,0.5,2.6C225,90.7,224.1,91.3,223.1,91.3z M173.1,86.5h44.2l-27.4-27.4h-30.5
	L173.1,86.5z"/>
<polygon fill="#EAEDF7" points="84.6,56.7 68.4,88.9 120,88.9 120,56.7 "/>
<polygon fill="#EAEDF7" points="84.6,56.7 68.4,88.9 100.7,88.9 107.1,56.7 "/>
<path fill="#525A7E" d="M120,91.3H68.4c-0.8,0-1.6-0.4-2.1-1.1c-0.4-0.7-0.5-1.6-0.1-2.4l16.1-32.2c0.4-0.8,1.2-1.3,2.2-1.3H120
	c1.3,0,2.4,1.1,2.4,2.4v32.2C122.4,90.2,121.3,91.3,120,91.3z M72.4,86.5h45.2V59.1H86L72.4,86.5z"/>
<polygon fill="#EAEDF7" points="155.4,56.7 120,56.7 120,88.9 171.6,88.9 "/>
<polygon fill="#FFFFFF" points="142.6,56.7 120,56.7 120,88.9 152.2,88.9 "/>
<path fill="#525A7E" d="M171.6,91.3H120c-1.3,0-2.4-1.1-2.4-2.4V56.7c0-1.3,1.1-2.4,2.4-2.4h35.4c0.9,0,1.8,0.5,2.2,1.3l16.1,32.2
	c0.4,0.7,0.3,1.6-0.1,2.4C173.2,90.9,172.4,91.3,171.6,91.3z M122.4,86.5h45.2L154,59.1h-31.5V86.5z"/>
<rect x="49.1" y="30.9" fill="#EAEDF7" width="141.8" height="25.8"/>
<rect x="49.1" y="30.9" fill="#FFFFFF" width="116" height="25.8"/>
<path fill="#525A7E" d="M190.9,59.1H49.1c-1.3,0-2.4-1.1-2.4-2.4V30.9c0-1.3,1.1-2.4,2.4-2.4h141.8c1.3,0,2.4,1.1,2.4,2.4v25.8
	C193.3,58,192.2,59.1,190.9,59.1z M51.5,54.2h137V33.3h-137V54.2z"/>
<path fill="#525A7E" d="M229.9,221.7c-1.5,0-2.7-1.2-2.7-2.7v-50.5c0-1.5,1.2-2.7,2.7-2.7s2.7,1.2,2.7,2.7v50.5
	C232.7,220.5,231.4,221.7,229.9,221.7z"/>
<path fill="#525A7E" d="M229.9,156.5c-1.5,0-2.7-1.2-2.7-2.7v-8.1c0-1.5,1.2-2.7,2.7-2.7s2.7,1.2,2.7,2.7v8.1
	C232.7,155.3,231.4,156.5,229.9,156.5z"/>
<path fill="#525A7E" d="M10.1,185c-1.5,0-2.7-1.2-2.7-2.7v-43.2c0-1.5,1.2-2.7,2.7-2.7c1.5,0,2.7,1.2,2.7,2.7v43.2
	C12.8,183.8,11.6,185,10.1,185z"/>
<path fill="#525A7E" d="M10.1,127.2c-1.5,0-2.7-1.2-2.7-2.7v-8.1c0-1.5,1.2-2.7,2.7-2.7c1.5,0,2.7,1.2,2.7,2.7v8.1
	C12.8,126,11.6,127.2,10.1,127.2z"/>
<g>
	<g>
		<path fill="#FFFFFF" d="M157.9,173.9c0.3-2,0.5-4.1,0.5-6.2c0-2.1-0.2-4.2-0.5-6.2l-13.1-2.1c-0.4-1.2-0.9-2.3-1.4-3.4l7.8-10.7
			c-2.4-3.4-5.4-6.4-8.8-8.8l-10.7,7.8c-1.1-0.5-2.2-1-3.4-1.4l-2.1-13.1c-2-0.3-4.1-0.5-6.2-0.5c-2.1,0-4.2,0.2-6.2,0.5l-2.1,13.1
			c-1.2,0.4-2.3,0.9-3.4,1.4l-10.7-7.8c-3.4,2.4-6.4,5.4-8.8,8.8l7.8,10.7c-0.5,1.1-1,2.2-1.4,3.4l-13.1,2.1c-0.3,2-0.5,4.1-0.5,6.2
			c0,2.1,0.2,4.2,0.5,6.2l13.1,2.1c0.4,1.2,0.9,2.3,1.4,3.4l-7.8,10.7c2.4,3.4,5.4,6.4,8.8,8.8l10.7-7.8c1.1,0.6,2.2,1,3.4,1.4
			l2.1,13.1c2,0.3,4.1,0.5,6.2,0.5c2.1,0,4.2-0.2,6.2-0.5l2.1-13.1c1.2-0.4,2.3-0.9,3.4-1.4l10.7,7.8c3.4-2.4,6.4-5.4,8.8-8.8
			l-7.8-10.7c0.5-1.1,1-2.2,1.4-3.4L157.9,173.9z"/>
	</g>
	<g>
		<path fill="#EAEDF7" d="M151.2,145.3c-2.4-3.4-5.4-6.4-8.8-8.8l-2.1,1.6c2.6,4.9,4.2,10.5,4.3,16.4L151.2,145.3z"/>
	</g>
	<g>
		<path fill="#EAEDF7" d="M157.9,173.9c0.3-2,0.5-4.1,0.5-6.2c0-2.1-0.2-4.2-0.5-6.2l-13.1-2.1c-0.1-0.3-0.3-0.6-0.4-0.9
			c-1.5,18-15.8,32.2-33.7,33.7c0.3,0.1,0.6,0.3,1,0.4l2.1,13.1c2,0.3,4.1,0.5,6.2,0.5c2.1,0,4.2-0.2,6.2-0.5l2.1-13.1
			c1.2-0.4,2.3-0.9,3.4-1.4l10.7,7.8c3.4-2.4,6.4-5.4,8.8-8.8l-7.8-10.7c0.5-1.1,1-2.2,1.4-3.4L157.9,173.9z"/>
	</g>
	<g>
		<path fill="#EAEDF7" d="M88.8,190.1c2.4,3.4,5.4,6.4,8.8,8.8l9.2-6.7c-5.9-0.1-11.5-1.7-16.4-4.3L88.8,190.1z"/>
	</g>
	<g>
		<path fill="#525A7E" d="M120,208c-2.2,0-4.4-0.2-6.5-0.5c-0.8-0.1-1.5-0.8-1.6-1.6l-1.9-12c-0.5-0.2-1-0.4-1.4-0.6l-9.8,7.1
			c-0.7,0.5-1.6,0.5-2.3,0c-3.6-2.6-6.7-5.7-9.3-9.3c-0.5-0.7-0.5-1.6,0-2.2l7.1-9.8c-0.2-0.5-0.4-1-0.6-1.4l-12-1.9
			c-0.8-0.1-1.5-0.8-1.6-1.6c-0.4-2.2-0.5-4.4-0.5-6.6c0-2.2,0.2-4.4,0.5-6.6c0.1-0.8,0.8-1.5,1.6-1.6l12-1.9c0.2-0.5,0.4-1,0.6-1.4
			l-7.1-9.8c-0.5-0.7-0.5-1.6,0-2.2c2.6-3.6,5.7-6.7,9.3-9.3c0.7-0.5,1.6-0.5,2.3,0l9.8,7.1c0.5-0.2,1-0.4,1.4-0.6l1.9-12
			c0.1-0.8,0.8-1.5,1.6-1.6c4.3-0.7,8.8-0.7,13.1,0c0.8,0.1,1.5,0.8,1.6,1.6l1.9,12c0.5,0.2,1,0.4,1.4,0.6l9.8-7.1
			c0.7-0.5,1.6-0.5,2.2,0c3.6,2.6,6.7,5.7,9.3,9.3c0.5,0.7,0.5,1.6,0,2.2l-7.1,9.8c0.2,0.5,0.4,1,0.6,1.4l12,1.9
			c0.8,0.1,1.5,0.8,1.6,1.6c0.4,2.2,0.5,4.4,0.5,6.5c0,2.1-0.2,4.3-0.5,6.5c-0.1,0.8-0.8,1.5-1.6,1.6l-12,1.9
			c-0.2,0.5-0.4,1-0.6,1.4l7.1,9.8c0.5,0.7,0.5,1.6,0,2.2c-2.6,3.6-5.7,6.7-9.3,9.3c-0.7,0.5-1.6,0.5-2.2,0l-9.8-7.1
			c-0.5,0.2-1,0.4-1.4,0.6l-1.9,12c-0.1,0.8-0.8,1.5-1.6,1.6C124.4,207.8,122.2,208,120,208z M115.4,203.9c3,0.4,6.1,0.4,9.1,0
			l1.9-11.7c0.1-0.7,0.6-1.3,1.3-1.5c1.1-0.4,2.1-0.8,3.1-1.3c0.6-0.3,1.4-0.3,2,0.2l9.6,7c2.4-1.9,4.6-4,6.4-6.5l-7-9.6
			c-0.4-0.6-0.5-1.3-0.2-2c0.5-1.1,1-2.1,1.3-3.1c0.2-0.7,0.8-1.2,1.5-1.3l11.7-1.9c0.2-1.5,0.3-3.1,0.3-4.6c0-1.5-0.1-3-0.3-4.6
			l-11.7-1.9c-0.7-0.1-1.3-0.6-1.5-1.3c-0.3-1-0.8-2-1.3-3.1c-0.3-0.6-0.3-1.4,0.2-2l6.9-9.6c-1.9-2.4-4-4.6-6.4-6.5l-9.6,7
			c-0.6,0.4-1.3,0.5-2,0.2c-1.1-0.5-2.1-1-3.1-1.3c-0.7-0.2-1.2-0.8-1.3-1.5l-1.9-11.7c-3-0.4-6.1-0.4-9.1,0l-1.9,11.7
			c-0.1,0.7-0.6,1.3-1.3,1.5c-1,0.3-2,0.8-3.1,1.3c-0.6,0.3-1.4,0.3-2-0.2l-9.6-6.9c-2.4,1.9-4.6,4-6.4,6.5l7,9.6
			c0.4,0.6,0.5,1.4,0.2,2c-0.5,1-0.9,2.1-1.3,3.1c-0.2,0.7-0.8,1.2-1.5,1.3l-11.7,1.9c-0.2,1.5-0.3,3-0.3,4.6c0,1.5,0.1,3.1,0.3,4.6
			l11.7,1.9c0.7,0.1,1.3,0.6,1.5,1.3c0.3,1,0.8,2.1,1.3,3.1c0.3,0.6,0.3,1.4-0.2,2l-7,9.6c1.9,2.4,4,4.6,6.4,6.5l9.6-7
			c0.6-0.4,1.4-0.5,2-0.2c1,0.5,2,0.9,3.1,1.3c0.7,0.2,1.2,0.8,1.3,1.5L115.4,203.9z M157.9,173.9L157.9,173.9L157.9,173.9z"/>
	</g>
	<g>
		<path fill="#FFFFFF" d="M132.3,167.7c0,6.8-5.5,12.3-12.3,12.3c-6.8,0-12.3-5.5-12.3-12.3c0-6.8,5.5-12.3,12.3-12.3
			C126.8,155.4,132.3,160.9,132.3,167.7z"/>
	</g>
	<g>
		<path fill="#EAEDF7" d="M129,159.3c0.1,0.7,0.2,1.4,0.2,2.2c0,6.8-5.5,12.3-12.3,12.3c-3.6,0-6.8-1.5-9-4c1,5.8,6,10.1,12.1,10.1
			c6.8,0,12.3-5.5,12.3-12.3C132.3,164.4,131,161.5,129,159.3z"/>
	</g>
	<g>
		<path fill="#525A7E" d="M120,181.9c-7.8,0-14.2-6.4-14.2-14.2c0-7.8,6.4-14.2,14.2-14.2s14.2,6.4,14.2,14.2
			C134.2,175.5,127.8,181.9,120,181.9z M120,157.3c-5.7,0-10.4,4.7-10.4,10.4S114.3,178,120,178c5.7,0,10.4-4.7,10.4-10.4
			S125.7,157.3,120,157.3z"/>
	</g>
</g>
<path fill="#525C7F" d="M45.3,2.4l-1.9,0.2l-0.2-1.9c-0.1-0.5-0.5-0.8-1-0.8c-0.5,0.1-0.8,0.5-0.8,1l0.2,1.9l-1.9,0.2
	c-0.5,0.1-0.8,0.5-0.8,1s0.5,0.8,1,0.8l1.9-0.2l0.2,1.9c0.1,0.5,0.5,0.8,1,0.8c0.5-0.1,0.8-0.5,0.8-1l-0.2-1.9l1.9-0.2
	c0.5-0.1,0.8-0.5,0.8-1C46.3,2.7,45.8,2.4,45.3,2.4z"/>
<path fill="#525C7F" d="M125.7,6.8l-3.5-1.1l1.1-3.5c0.3-0.9-0.2-1.8-1.1-2.1s-1.8,0.2-2.1,1.1L119,4.7l-3.6-1.1
	c-0.9-0.3-1.8,0.2-2.1,1.1c-0.3,0.9,0.2,1.8,1.1,2.1l3.6,1.1l-1.1,3.5c-0.3,0.9,0.2,1.8,1.1,2.1c0.9,0.3,1.8-0.2,2.1-1.1l1.1-3.5
	l3.5,1.1c0.9,0.3,1.8-0.2,2.1-1.1C127.1,8,126.6,7,125.7,6.8z"/>
<path fill="#525C7F" d="M236,46.7l-2.4,0.3l-0.3-2.4c-0.1-0.6-0.6-1-1.2-1c-0.6,0.1-1,0.6-1,1.2l0.3,2.4l-2.4,0.3
	c-0.6,0.1-1,0.6-1,1.2c0.1,0.6,0.6,1,1.2,1l2.4-0.3l0.3,2.4c0.1,0.6,0.6,1,1.2,1c0.6-0.1,1-0.6,1-1.2l-0.3-2.4l2.4-0.3
	c0.6-0.1,1-0.6,1-1.2C237.1,47,236.6,46.6,236,46.7z"/>
<path fill="#525C7F" d="M189.3,0.6c-2.4,0-4.4,2-4.4,4.4s2,4.4,4.4,4.4s4.4-2,4.4-4.4S191.7,0.6,189.3,0.6z M189.3,7.4
	c-1.3,0-2.4-1.1-2.4-2.4s1.1-2.4,2.4-2.4c1.3,0,2.4,1.1,2.4,2.4S190.6,7.4,189.3,7.4z"/>
<path fill="#525C7F" d="M14.5,43c-1.6,0-2.9,1.3-2.9,2.9c0,1.6,1.3,2.9,2.9,2.9s2.9-1.3,2.9-2.9C17.3,44.3,16,43,14.5,43z
	 M14.5,47.5c-0.9,0-1.6-0.7-1.6-1.6c0-0.9,0.7-1.6,1.6-1.6s1.6,0.7,1.6,1.6C16.1,46.8,15.3,47.5,14.5,47.5z"/>
</svg>
