<?xml version="1.0" encoding="utf-8"?>
<!-- Generator: Adobe Illustrator 24.1.3, SVG Export Plug-In . SVG Version: 6.00 Build 0)  -->
<svg version="1.1" id="Layer_1" xmlns="http://www.w3.org/2000/svg" xmlns:xlink="http://www.w3.org/1999/xlink" x="0px" y="0px"
	 width="240px" height="240px" viewBox="0 0 240 240" enable-background="new 0 0 240 240" xml:space="preserve">
<g>
	<path fill="#525C7F" d="M56,13l-3.2-1.4l1.5-3.3c0.4-0.8,0-1.8-0.8-2.2c-0.8-0.4-1.8,0-2.2,0.8l-1.5,3.3l-3.3-1.5
		c-0.8-0.4-1.8,0-2.2,0.8c-0.4,0.8,0,1.8,0.8,2.2l3.3,1.5L47,16.5c-0.4,0.8,0,1.8,0.8,2.2c0.8,0.4,1.8,0,2.2-0.8l1.4-3.3l3.2,1.4
		c0.8,0.4,1.8,0,2.2-0.8C57.2,14.3,56.8,13.3,56,13z"/>
	<path fill="#525C7F" d="M232.8,49.7l-2.1,0.3l-0.3-2.1c-0.1-0.5-0.6-0.9-1.1-0.9s-0.9,0.6-0.9,1.1l0.3,2.1l-2.2,0.3
		c-0.5,0.1-0.9,0.6-0.9,1.1c0.1,0.5,0.6,0.9,1.1,0.9l2.2-0.3l0.3,2.1c0.1,0.5,0.6,0.9,1.1,0.9c0.5-0.1,0.9-0.6,0.9-1.1l-0.3-2.1
		l2.1-0.3c0.5-0.1,0.9-0.6,0.9-1.1C233.9,50,233.3,49.6,232.8,49.7z"/>
	<path fill="#525C7F" d="M186.6,4.6c-1.8,0-3.3,1.5-3.3,3.3s1.5,3.3,3.3,3.3c1.8,0,3.3-1.5,3.3-3.3S188.4,4.6,186.6,4.6z M186.6,9.9
		c-1,0-1.9-0.8-1.9-1.9s0.8-1.9,1.9-1.9c1,0,1.9,0.8,1.9,1.9S187.6,9.9,186.6,9.9z"/>
	<path fill="#525C7F" d="M9.7,38.1c-5.4,0-9.8,4.4-9.8,9.8s4.4,9.8,9.8,9.8s9.8-4.4,9.8-9.8S15.2,38.1,9.7,38.1z M9.7,53.4
		c-3,0-5.5-2.4-5.5-5.5c0-3,2.4-5.5,5.5-5.5s5.5,2.4,5.5,5.5C15.2,51,12.7,53.4,9.7,53.4z"/>
	<g>
		<polygon fill="#EAEDF7" points="207.9,71.4 32,71.4 72.3,34.8 167.6,34.8 		"/>
		<path fill="#FFFFFF" d="M171.1,60.4h-127l28.2-25.6H155l17.6,22.7C173.5,58.6,172.7,60.4,171.1,60.4z"/>
		<path fill="#525A7E" d="M207.9,74.1H32c-1.1,0-2.2-0.7-2.6-1.8c-0.4-1.1-0.1-2.3,0.7-3l40.3-36.6c0.5-0.5,1.2-0.7,1.8-0.7h95.2
			c0.7,0,1.3,0.3,1.8,0.7l40.3,36.6c0.8,0.8,1.1,2,0.7,3C210,73.4,209,74.1,207.9,74.1z M39.1,68.6h161.6l-34.3-31.1H73.4L39.1,68.6
			z"/>
		<rect x="32" y="71.4" fill="#EAEDF7" width="175.9" height="161.2"/>
		<path fill="#FFFFFF" d="M185.9,210.6H32V71.4h157.5V207C189.5,209,187.9,210.6,185.9,210.6z"/>
		<path fill="#525A7E" d="M207.9,235.4H32c-1.5,0-2.7-1.2-2.7-2.7V71.4c0-1.5,1.2-2.7,2.7-2.7h175.9c1.5,0,2.7,1.2,2.7,2.7v161.2
			C210.6,234.1,209.4,235.4,207.9,235.4z M34.8,229.9h170.4V74.2H34.8V229.9z"/>
		<polygon fill="#EAEDF7" points="149.2,71.4 90.6,71.4 100.7,34.8 139.2,34.8 		"/>
		<polygon fill="#FFFFFF" points="130.9,71.4 90.6,71.4 100.7,34.8 128.2,34.8 		"/>
		<path fill="#525A7E" d="M149.2,74.1H90.6c-0.9,0-1.7-0.4-2.2-1.1c-0.5-0.7-0.7-1.6-0.5-2.4L98.1,34c0.3-1.2,1.4-2,2.6-2h38.5
			c1.2,0,2.3,0.8,2.6,2l10.1,36.6c0.2,0.8,0.1,1.7-0.5,2.4C150.9,73.7,150.1,74.1,149.2,74.1z M94.2,68.6h51.4l-8.6-31.1h-34.3
			L94.2,68.6z"/>
		<polygon fill="#EAEDF7" points="149.2,119 119.9,104.4 90.6,119 90.6,71.4 149.2,71.4 		"/>
		<polygon fill="#FFFFFF" points="130.9,109.9 119.9,104.4 90.6,119 90.6,71.4 130.9,71.4 		"/>
		<path fill="#525A7E" d="M149.2,121.8c-0.4,0-0.8-0.1-1.2-0.3l-28.1-14l-28.1,14c-0.8,0.4-1.9,0.4-2.7-0.1
			c-0.8-0.5-1.3-1.4-1.3-2.3V71.4c0-1.5,1.2-2.7,2.7-2.7h58.6c1.5,0,2.7,1.2,2.7,2.7V119c0,1-0.5,1.8-1.3,2.3
			C150.2,121.6,149.7,121.8,149.2,121.8z M119.9,101.6c0.4,0,0.8,0.1,1.2,0.3l25.3,12.7V74.1H93.4v40.4l25.3-12.7
			C119.1,101.7,119.5,101.6,119.9,101.6z"/>
		<rect x="130.9" y="155.7" fill="#EAEDF7" width="58.6" height="36.6"/>
		<path fill="#FFFFFF" d="M171.2,177.6h-40.3v-22h44V174C174.9,176,173.3,177.6,171.2,177.6z"/>
		<path fill="#525A7E" d="M189.6,195.1h-58.6c-1.5,0-2.7-1.2-2.7-2.7v-36.6c0-1.5,1.2-2.7,2.7-2.7h58.6c1.5,0,2.7,1.2,2.7,2.7v36.6
			C192.3,193.8,191.1,195.1,189.6,195.1z M133.7,189.6h53.1v-31.1h-53.1V189.6z"/>
	</g>
	<path fill="#525A7E" d="M237.3,185.9c-1.5,0-2.7-1.2-2.7-2.7v-46.8c0-1.5,1.2-2.7,2.7-2.7c1.5,0,2.7,1.2,2.7,2.7v46.8
		C240.1,184.7,238.9,185.9,237.3,185.9z"/>
	<path fill="#525A7E" d="M237.3,124.4c-1.5,0-2.7-1.2-2.7-2.7v-8.1c0-1.5,1.2-2.7,2.7-2.7c1.5,0,2.7,1.2,2.7,2.7v8.1
		C240.1,123.2,238.9,124.4,237.3,124.4z"/>
	<path fill="#525A7E" d="M4.3,185.9c-1.5,0-2.7-1.2-2.7-2.7v-46.8c0-1.5,1.2-2.7,2.7-2.7c1.5,0,2.7,1.2,2.7,2.7v46.8
		C7.1,184.7,5.9,185.9,4.3,185.9z"/>
	<path fill="#525A7E" d="M4.3,124.4c-1.5,0-2.7-1.2-2.7-2.7v-8.1c0-1.5,1.2-2.7,2.7-2.7c1.5,0,2.7,1.2,2.7,2.7v8.1
		C7.1,123.2,5.9,124.4,4.3,124.4z"/>
</g>
</svg>
