<?xml version="1.0" encoding="utf-8"?>
<!-- Generator: Adobe Illustrator 25.0.0, SVG Export Plug-In . SVG Version: 6.00 Build 0)  -->
<svg version="1.1" id="Layer_1" xmlns="http://www.w3.org/2000/svg" xmlns:xlink="http://www.w3.org/1999/xlink" x="0px" y="0px"
	 width="452.2px" height="384.3px" viewBox="0 0 452.2 384.3" enable-background="new 0 0 452.2 384.3" xml:space="preserve">
<g>
	<path opacity="0.47" fill="#B8EBF4" enable-background="new    " d="M74.4,343.9c-27.8-24-102-87.3-63.5-135.9
		c8.8-11.1,26.8-10.7,36.4-21.2c12-13.2,5.9-33.8,1.3-51c-5.6-21-7.8-43.7-0.1-64s27.2-37.2,48.9-36.4c12.8,0.5,24.5,6.6,36.1,11.9
		c18.9,8.6,39.4,15.1,60.1,13.7c27-1.8,51.4-16.8,78.2-20.6c34.4-4.9,69.9,10,94.3,34.7s38.5,58.3,44.3,92.6
		c5.8,34.4,3.5,70.5-9.2,102.9s-36.2,61.1-67,77.5L74.4,343.9z"/>
	<path opacity="0.6" fill="#B2C8CC" enable-background="new    " d="M47,349.6c-12.6-0.2-41.8,3.1-40.6,8.1
		c1.1,4.8,21.6,6.9,29.5,7.3c34.7,1.9,63.8,3.4,98,4.3c4.2,0.1,5.8,4,2.6,5.9l0,0c-2.8,1.7-5.4,4.6-2.1,5.7
		c16,5.3,89.7,3.1,127.1,1.3c45.3-2.1,151.4-7.4,159.5-21.6c2.7-4.7-4.7-8.2-11-9.6c-15-3.2-30.3-4.5-45.6-3.9L47,349.6z"/>
	<rect x="81.4" y="92.7" fill="#FFBE60" width="264.9" height="252.2"/>
	<rect x="82.2" y="328.8" fill="#FFE2BB" width="264.9" height="18.3"/>
	<rect x="82.2" y="94.9" fill="#F29D2C" width="264.9" height="77.9"/>
	<path fill="#DFDFDF" d="M65.9,137.8C65,151.2,77,162.1,90.7,162.1s24.8-10.9,24.8-24.3s-11.1-24.3-24.8-24.3S66.7,124.3,65.9,137.8
		z"/>
	<ellipse fill="#E33B38" cx="140.3" cy="137.8" rx="24.8" ry="24.3"/>
	<ellipse fill="#DFDFDF" cx="189.9" cy="137.8" rx="24.8" ry="24.3"/>
	<ellipse fill="#E33B38" cx="239.5" cy="137.8" rx="24.8" ry="24.3"/>
	<ellipse fill="#DFDFDF" cx="289.1" cy="137.8" rx="24.8" ry="24.3"/>
	<ellipse fill="#E33B38" cx="338.7" cy="137.8" rx="24.8" ry="24.3"/>
	<path fill="#F25757" d="M363.5,137.8H65.9l7.2-44.3h285.3L363.5,137.8z"/>
	<path fill="#FFFFFF" d="M65.9,137.8l7.2-44.3h49.2l-6.8,44.3H65.9z"/>
	<path fill="#FFFFFF" d="M214.7,137.8V93.5h-45l-4.6,44.3L214.7,137.8z"/>
	<path fill="#FFFFFF" d="M264.3,137.8V93.5h45l4.6,44.3L264.3,137.8z"/>
	<rect x="72.5" y="81.6" fill="#E33B38" width="286.1" height="14.5"/>
	<rect x="202.7" y="191.7" fill="#FFFFFF" width="144.5" height="110.8"/>
	<rect x="105" y="191.7" fill="#FFFFFF" width="80.2" height="149.4"/>
	<rect x="111.2" y="198.1" fill="#0D78C1" width="67.3" height="143.1"/>
	<rect x="209.5" y="199" fill="#0D78C1" width="137.6" height="97.3"/>
	<rect x="41.6" y="341.2" fill="#282F39" width="346" height="11.9"/>
	<rect x="41.6" y="341.2" fill="#4D555E" width="346" height="3.8"/>
	<path fill="#F1F9FB" d="M368.7,188.6c-2.7-1.3-5.4-2.7-7.3-5.1s-2.7-5.8-1-8.3c1.4-2.1,4-2.9,6.4-3.2c6.2-0.8,12.5,0.7,17.6,4.4
		c-1.1-10.5,3.1-20.8,11.4-27.4c3.9-3,8.7-5.1,13.6-5s9.9,2.8,12.1,7.2c1.4,2.8,1.5,6,1.4,9.2c-0.3,6.2-1.5,12.3-3.8,18
		c11.2-3.1,30.1-4.8,33,6.4c5.9,22.6-89.7,34.4-95.6,13.9C354.7,193.3,368.7,188.6,368.7,188.6z"/>
	<path fill="#FFFFFF" d="M18.6,230c-1.9-0.8-3.6-2-5-3.5c-1.3-1.6-1.8-4-0.7-5.7c0.9-1.4,2.7-2,4.4-2.2c4.3-0.6,8.6,0.5,12.1,3
		c-0.8-7.2,2.2-14.3,7.8-18.8c2.6-2.2,5.9-3.4,9.3-3.5c3.5,0,6.6,1.9,8.3,4.9c0.8,2,1.2,4.1,0.9,6.3c-0.2,4.2-1.1,8.4-2.6,12.4
		c7.7-2.1,20.6-3.3,22.6,4.4c4.1,15.5-61.6,23.6-65.7,9.5C9.1,233.2,18.6,230,18.6,230z"/>
	<path fill="#B8EBF4" d="M318.2,54c-1.7-0.7-3.2-1.7-4.4-3c-1.2-1.4-1.5-3.4-0.6-5c1-1.2,2.4-1.9,3.9-2c3.7-0.5,7.5,0.4,10.6,2.6
		c-0.7-6.3,1.9-12.5,6.8-16.5c2.3-1.9,5.2-3,8.2-3c3,0,5.8,1.7,7.3,4.3c0.7,1.7,1,3.6,0.8,5.5c-0.2,3.7-0.9,7.4-2.3,10.9
		c6.8-1.8,18.1-2.9,19.9,3.9c3.6,13.6-54.1,20.7-57.7,8.4C309.8,56.8,318.2,54,318.2,54z"/>
	<path fill="#B8EBF4" d="M376.4,191.1c-2.2-0.9-4.1-2.2-5.7-4c-1.5-1.8-2.1-4.6-0.8-6.5c1.1-1.6,3.1-2.3,5-2.5
		c4.9-0.6,9.8,0.6,13.8,3.4c-0.9-8.2,2.5-16.3,8.9-21.5c3-2.5,6.7-3.9,10.6-3.9c3.9,0.1,7.8,2.2,9.4,5.6c0.9,2.3,1.3,4.7,1.1,7.2
		c-0.2,4.8-1.2,9.6-3,14.1c8.8-2.4,23.5-3.8,25.8,5c4.6,17.7-70.2,26.9-74.9,10.9C365.4,194.7,376.4,191.1,376.4,191.1z"/>
	<path fill="#B8EBF4" d="M35,18.5c-1.1-0.5-2.2-1.2-3-2.1c-0.9-0.9-1-2.3-0.4-3.4c0.7-0.8,1.6-1.3,2.7-1.3c2.6-0.3,5.2,0.3,7.3,1.8
		C41,9.1,42.8,4.8,46.2,2.1C47.8,0.8,49.8,0,51.8,0c2.1,0,4,1.2,5,3c0.5,1.2,0.7,2.5,0.6,3.8c-0.1,2.6-0.6,5.1-1.6,7.5
		c4.6-1.3,12.5-2,13.7,2.7c2.4,9.4-37.2,14.3-39.7,5.8C29.2,20.5,35,18.5,35,18.5z"/>
	<path fill="#FFFFFF" d="M282.6,219c0,1.5-1.2,2.8-2.8,2.8s-2.8-1.2-2.8-2.8c0-1.5,1.2-2.8,2.8-2.8
		C281.4,216.2,282.6,217.5,282.6,219L282.6,219z"/>
	<path fill="#FFFFFF" d="M239.4,229h79.3c1.7,0,3.1,1.4,3.1,3.1v40.7c0,1.7-1.4,3.1-3.1,3.1h-79.3c-1.7,0-3.1-1.4-3.1-3.1V232
		C236.3,230.3,237.7,229,239.4,229z"/>
	<g enable-background="new    ">
		<path fill="#054651" d="M266,241l-0.6,5.7h-2.3l-1.2-10.7h1.6l0.9,8.4l0.8-8.4h1.6l0.8,8.5l0.9-8.5h1.5l-1.2,10.7h-2.2L266,241z"
			/>
		<path fill="#054651" d="M272.5,240.5h2.3v1.5h-2.3v3.1h2.9v1.5h-4.6V236h4.6v1.5h-2.9V240.5z"/>
		<path fill="#054651" d="M284.3,246.7h-1.7l-0.3-1.9h-2.1l-0.3,1.9h-1.5l1.7-10.7h2.5L284.3,246.7z M280.5,243.3h1.6l-0.8-5.4
			L280.5,243.3z"/>
		<path fill="#054651" d="M288.6,246.7c-0.1-0.3-0.2-0.4-0.2-1.3v-1.7c0-1-0.3-1.4-1.1-1.4h-0.6v4.4h-1.7V236h2.5
			c1.7,0,2.5,0.8,2.5,2.5v0.8c0,1.1-0.4,1.8-1.1,2.2c0.8,0.4,1.1,1.2,1.1,2.3v1.7c0,0.5,0,0.9,0.2,1.3H288.6z M286.8,237.5v3.3h0.7
			c0.6,0,1-0.3,1-1.1v-1.1c0-0.8-0.3-1.1-0.9-1.1H286.8z"/>
		<path fill="#054651" d="M292.9,240.5h2.3v1.5h-2.3v3.1h2.9v1.5h-4.6V236h4.6v1.5h-2.9V240.5z"/>
	</g>
	<g enable-background="new    ">
		<path fill="#054651" d="M255.2,254.6c0-3.4,1.8-5.3,5-5.3s5,1.9,5,5.3v11c0,3.4-1.8,5.3-5,5.3s-5-1.9-5-5.3V254.6z M258.5,265.8
			c0,1.5,0.7,2.1,1.7,2.1s1.7-0.6,1.7-2.1v-11.4c0-1.5-0.7-2.1-1.7-2.1s-1.7,0.6-1.7,2.1V265.8z"/>
		<path fill="#054651" d="M277.9,254.8v2.7c0,3.4-1.6,5.2-5,5.2h-1.6v7.9H268v-21.1h4.9C276.3,249.5,277.9,251.4,277.9,254.8z
			 M271.4,252.5v7.2h1.6c1.1,0,1.6-0.5,1.6-2v-3.2c0-1.5-0.6-2-1.6-2H271.4z"/>
		<path fill="#054651" d="M283.5,258.4h4.6v3h-4.6v6.2h5.7v3h-9.1v-21.1h9.1v3h-5.7V258.4z"/>
		<path fill="#054651" d="M294.9,255.4v15.3h-3v-21.1h4.2l3.4,12.7v-12.7h3v21.1H299L294.9,255.4z"/>
	</g>
	<path fill="#FFFFFF" d="M298.6,233.2h-39l20.3-15L298.6,233.2z M263.3,232h31.8l-15.3-12.2L263.3,232z"/>
	<rect x="159.2" y="41.6" fill="#FFFFFF" width="115.7" height="35.6"/>
	<path fill="#329BAD" d="M276.4,78.7H157.7V40.1h118.7V78.7z M160.7,75.7h112.7V43.1H160.7V75.7z"/>
	<g enable-background="new    ">
		<path fill="#054651" d="M172.6,58.4l-1,9.2h-3.7L166,50.4h2.6l1.5,13.6l1.3-13.6h2.6l1.4,13.7l1.4-13.7h2.4l-1.9,17.3h-3.6
			L172.6,58.4z"/>
		<path fill="#054651" d="M188.2,57.7h3.7v2.5h-3.7v5.1h4.7v2.5h-7.4V50.4h7.4v2.5h-4.7V57.7z"/>
		<path fill="#054651" d="M199.5,50.4h2.7v14.8h4.5v2.5h-7.2V50.4z"/>
		<path fill="#054651" d="M220.7,61.2v2.3c0,2.8-1.4,4.3-4,4.3c-2.7,0-4-1.6-4-4.3v-9c0-2.8,1.4-4.3,4-4.3c2.7,0,4,1.6,4,4.3v1.7
			h-2.6v-1.9c0-1.2-0.5-1.7-1.4-1.7s-1.4,0.5-1.4,1.7v9.3c0,1.2,0.5,1.7,1.4,1.7s1.4-0.4,1.4-1.7v-2.5H220.7z"/>
		<path fill="#054651" d="M227,54.5c0-2.8,1.5-4.3,4.1-4.3c2.7,0,4.1,1.6,4.1,4.3v9c0,2.8-1.5,4.3-4.1,4.3c-2.7,0-4.1-1.6-4.1-4.3
			V54.5z M229.8,63.7c0,1.2,0.5,1.7,1.4,1.7s1.4-0.5,1.4-1.7v-9.3c0-1.2-0.5-1.7-1.4-1.7s-1.4,0.5-1.4,1.7V63.7z"/>
		<path fill="#054651" d="M247.7,62.6l1.9-12.3h3.8v17.3h-2.6V55.3l-1.9,12.4h-2.6l-2-12.2v12.2H242V50.4h3.8L247.7,62.6z"/>
		<path fill="#054651" d="M263,57.7h3.7v2.5H263v5.1h4.7v2.5h-7.4V50.4h7.4v2.5H263V57.7z"/>
	</g>
</g>
</svg>
