<svg xmlns="http://www.w3.org/2000/svg" width="28" height="28" viewBox="0 0 28 28"><defs><style>.a{fill:none;}.b{fill:#6661e8;}</style></defs><rect class="a" width="28" height="28"/><g transform="translate(-954.11 473.719)"><path class="b" d="M975.612-461.592h-15l-.9,4h16.8Z"/><path class="b" d="M978.86-469.345h-21.5a2.253,2.253,0,0,0-2.25,2.25v7.25a2.247,2.247,0,0,0,2.25,2.25h.81l1.11-4.91a.749.749,0,0,1,.73-.58h16.2a.741.741,0,0,1,.73.58l1.11,4.92h.81a2.256,2.256,0,0,0,2.25-2.26v-7.25A2.253,2.253,0,0,0,978.86-469.345Zm-3.25,4.25h-1a.749.749,0,0,1-.75-.75.755.755,0,0,1,.75-.75h1a.749.749,0,0,1,.75.75A.743.743,0,0,1,975.61-465.1Z"/><path class="b" d="M968.612-454.176a.693.693,0,0,1,.143-.447,2.154,2.154,0,0,0,.357-1.219.75.75,0,0,0-.75-.75.75.75,0,0,0-.75.75.68.68,0,0,1-.143.447,2.264,2.264,0,0,0,0,2.438.771.771,0,0,1,0,.895,2.172,2.172,0,0,0-.357,1.219.75.75,0,0,0,.75.75.75.75,0,0,0,.75-.75.7.7,0,0,1,.143-.448,2.26,2.26,0,0,0,0-2.438A.691.691,0,0,1,968.612-454.176Z"/><path class="b" d="M964.612-454.176a.693.693,0,0,1,.143-.447,2.154,2.154,0,0,0,.357-1.219.75.75,0,0,0-.75-.75.75.75,0,0,0-.75.75.68.68,0,0,1-.143.447,2.264,2.264,0,0,0,0,2.438.771.771,0,0,1,0,.895,2.172,2.172,0,0,0-.357,1.219.75.75,0,0,0,.75.75.75.75,0,0,0,.75-.75.7.7,0,0,1,.143-.448,2.26,2.26,0,0,0,0-2.438A.691.691,0,0,1,964.612-454.176Z"/><path class="b" d="M972.612-454.176a.693.693,0,0,1,.143-.447,2.154,2.154,0,0,0,.357-1.219.75.75,0,0,0-.75-.75.75.75,0,0,0-.75.75.68.68,0,0,1-.143.447,2.264,2.264,0,0,0,0,2.438.771.771,0,0,1,0,.895,2.172,2.172,0,0,0-.357,1.219.75.75,0,0,0,.75.75.75.75,0,0,0,.75-.75.7.7,0,0,1,.143-.448,2.26,2.26,0,0,0,0-2.438A.691.691,0,0,1,972.612-454.176Z"/></g></svg>