<svg xmlns="http://www.w3.org/2000/svg" width="20" height="20" viewBox="0 0 20 20"><defs><style>.a{fill:none;}.b{fill:#6661e8;}</style></defs><rect class="a" width="20" height="20"/><path class="b" d="M620.258,313.274a8,8,0,0,0-6.843,12.146l-1.122,3.1a.564.564,0,0,0,.723.723l3.1-1.122a8,8,0,1,0,4.146-14.843Zm-4.239,9.495a1.494,1.494,0,1,1,1.495-1.495A1.495,1.495,0,0,1,616.019,322.768Zm4.239,0a1.494,1.494,0,1,1,1.495-1.495A1.495,1.495,0,0,1,620.258,322.768Zm4.239,0a1.494,1.494,0,1,1,1.494-1.495A1.495,1.495,0,0,1,624.5,322.768Z" transform="translate(-610.258 -311.274)"/></svg>