<svg xmlns="http://www.w3.org/2000/svg" width="28" height="28" viewBox="0 0 28 28"><defs><style>.a,.c,.d{fill:none;}.b{fill:#6661e8;}.c,.d{stroke:#6661e8;stroke-linecap:round;}.d{stroke-width:2px;}</style></defs><rect class="a" width="28" height="28"/><g transform="translate(0 -1.299)"><path class="b" d="M1881.254-1387.412l-1.5-3.74h.178a1,1,0,0,0,1-1,1,1,0,0,0-1-1h-5.279l-2.773-8.316a1,1,0,0,0-1.264-.633,1,1,0,0,0-.632,1.265l3,9a.989.989,0,0,0,.8.661l-1.505,3.763a.7.7,0,0,0,.39.91.7.7,0,0,0,.26.05.7.7,0,0,0,.651-.44l1.7-4.26h2.96l1.7,4.26a.7.7,0,0,0,.65.44.7.7,0,0,0,.26-.05A.7.7,0,0,0,1881.254-1387.412Z" transform="translate(-1868.936 1409.452)"/><path class="b" d="M1869.985-1387.412l1.5-3.74h-.178a1,1,0,0,1-1-1,1,1,0,0,1,1-1h5.279l2.773-8.316a1,1,0,0,1,1.264-.633,1,1,0,0,1,.632,1.265l-3,9a.989.989,0,0,1-.8.661l1.505,3.763a.7.7,0,0,1-.39.91.7.7,0,0,1-.26.05.7.7,0,0,1-.651-.44l-1.7-4.26h-2.96l-1.7,4.26a.7.7,0,0,1-.65.44.7.7,0,0,1-.26-.05A.7.7,0,0,1,1869.985-1387.412Z" transform="translate(-1854.303 1409.452)"/><path class="c" d="M-6028-12918.436V-12929" transform="translate(6042 12941)"/><path class="d" d="M-6033-12929h10" transform="translate(6042 12941)"/></g></svg>