<svg xmlns="http://www.w3.org/2000/svg" width="28" height="28" viewBox="0 0 28 28"><defs><style>.a{fill:none;}.b{fill:#6661e8;}</style></defs><rect class="a" width="28" height="28"/><g transform="translate(-920.296 1118.666)"><g transform="translate(931.447 -1105.061)"><g transform="translate(0 0)"><path class="b" d="M1121.744-890.678a2.862,2.862,0,0,0-2.743,2.922,2.769,2.769,0,0,0,2.743,2.828,2.924,2.924,0,0,0,2.828-2.922A2.852,2.852,0,0,0,1121.744-890.678Z" transform="translate(-1119.001 890.678)"/></g></g><g transform="translate(935.908 -1102.682)"><g transform="translate(0 0)"><path class="b" d="M1218.827-831.6a3.517,3.517,0,0,0,4.743-1.33,3.651,3.651,0,0,0-1.295-4.923,36.855,36.855,0,0,0-6.142-2.336,4.15,4.15,0,0,1,.045.448,4.379,4.379,0,0,1-2.524,3.965c.525.511,1.088,1.024,1.657,1.512Z" transform="translate(-1213.654 840.193)"/></g></g><g transform="translate(930.74 -1115.666)"><g transform="translate(0 0)"><path class="b" d="M1110.979-1112.207a3.462,3.462,0,0,0-3.443-3.459,3.539,3.539,0,0,0-3.535,3.535,37.037,37.037,0,0,0,1.041,6.484,3.952,3.952,0,0,1,2.41-.828,4.2,4.2,0,0,1,2.5.83C1110.129-1106.362,1110.979-1112.207,1110.979-1112.207Z" transform="translate(-1104.001 1115.666)"/></g></g><g transform="translate(922.169 -1102.585)"><g transform="translate(0 0)"><path class="b" d="M923.866-835.751a3.524,3.524,0,0,0-1.225,4.775l.021.037a3.539,3.539,0,0,0,4.759,1.285l.049-.028h0a36.854,36.854,0,0,0,5.082-4.14,4.242,4.242,0,0,1-2.521-3.869,4.148,4.148,0,0,1,.045-.446c-.71.2-2.147.675-2.147.675l-1.371.505s-.974.385-1.376.559Z" transform="translate(-922.169 838.138)"/></g></g></g></svg>