<svg xmlns="http://www.w3.org/2000/svg" width="28" height="28" viewBox="0 0 28 28"><defs><style>.a{fill:none;}.b{fill:#6661e8;}</style></defs><rect class="a" width="28" height="28"/><g transform="translate(-2149.77 1866.824)"><path class="b" d="M2158.833-1859.814v-2.815h1.409v-1.406h-8.49v1.406h1.454v2.815h-1.457v12.665h0l0,5.63h5.27l1.406-1.406h10.667l1.408,1.406h5.268v-18.295Zm-.93,11.183.766-3.063-2.3-.013,3.063-4.582-.766,3.065h2.3Zm14.314-1.083a1.051,1.051,0,0,1-1.052,1.052h-5.1a1.051,1.051,0,0,1-1.052-1.052v-5.559a1.051,1.051,0,0,1,1.052-1.049h5.1a1.051,1.051,0,0,1,1.052,1.049Z" transform="translate(0 0)"/></g></svg>