<svg xmlns="http://www.w3.org/2000/svg" xmlns:xlink="http://www.w3.org/1999/xlink" width="440" height="208" viewBox="0 0 440 208"><defs><style>.a{fill:none;}.b{clip-path:url(#c);}.c{fill:#ffcc80;}.d{fill:#ffbe5d;}.e{fill:#fff;}.f{filter:url(#a);}</style><filter id="a" x="-39" y="-31" width="518" height="286" filterUnits="userSpaceOnUse"><feOffset dy="8" input="SourceAlpha"/><feGaussianBlur stdDeviation="13" result="b"/><feFlood flood-opacity="0.078"/><feComposite operator="in" in2="b"/><feComposite in="SourceGraphic"/></filter><clipPath id="c"><g class="f" transform="matrix(1, 0, 0, 1, 0, 0)"><rect class="a" width="440" height="208" rx="10" transform="translate(40 595)"/></g></clipPath></defs><g class="b" transform="translate(-40 -595)"><g transform="matrix(0.966, -0.259, 0.259, 0.966, 328.579, 646.539)"><g transform="translate(-0.502 -0.362)"><path class="c" d="M166.871,28.836,166.1,116.79c-.1,11.432-4.693,23.192-13.645,34.926a143.678,143.678,0,0,1-28.029,26.815,254.493,254.493,0,0,1-40.013,24.4,5.678,5.678,0,0,1-4.726.043A241.631,241.631,0,0,1,40.115,179.3a135.174,135.174,0,0,1-27.583-26.311C3.785,141.412-.6,129.755-.5,118.3L.273,30.347a6.1,6.1,0,0,1,4.174-5.753L82.179-.081a5.346,5.346,0,0,1,3.329-.03L162.8,23.158A5.832,5.832,0,0,1,166.871,28.836Z" transform="translate(0.502 0.362)"/></g><path class="d" d="M83.964,29.195l-.773,87.954c-.1,11.432-4.693,23.192-13.645,34.926A143.675,143.675,0,0,1,41.517,178.89,254.5,254.5,0,0,1,1.5,203.289a5.537,5.537,0,0,1-2.367.531L.928,0A5.469,5.469,0,0,1,2.6.248L79.89,23.516A5.832,5.832,0,0,1,83.964,29.195Z" transform="translate(82.908 -0.358)"/><path class="e" d="M42.028-.181l11.9,28,29.711,2.929L61.225,51.524l5.968,30.032L41.442,66.394,15.42,82.025l6.5-30.145L-.133,31.509,29.634,28.04Z" transform="translate(40.719 55.212)"/></g></g></svg>