<svg xmlns="http://www.w3.org/2000/svg" width="28" height="28" viewBox="0 0 28 28"><defs><style>.a{fill:none;}.b{fill:#6661e8;}</style></defs><rect class="a" width="28" height="28"/><path class="b" d="M887.052-357.842H864.3a1.624,1.624,0,0,0-1.625,1.625v13.339a1.625,1.625,0,0,0,1.625,1.62h1.264v.786a.6.6,0,0,0,.6.6h2.911a.6.6,0,0,0,.6-.6v-.791h11.99v.786a.6.6,0,0,0,.6.6h2.911a.6.6,0,0,0,.605-.6v-.791h1.263a1.625,1.625,0,0,0,1.626-1.62v-13.339A1.625,1.625,0,0,0,887.052-357.842Zm-7.185,13.131a.605.605,0,0,1-.6.605H866.316a.6.6,0,0,1-.6-.6v-9.678a.6.6,0,0,1,.595-.605h12.95a.605.605,0,0,1,.605.605h0v9.673Zm4.658.605a.975.975,0,0,1-.975-.975.974.974,0,0,1,.975-.975.975.975,0,0,1,.975.975h0A.976.976,0,0,1,884.525-344.106Zm0-2.762a1.156,1.156,0,0,1-1.16-1.152,1.155,1.155,0,0,1,1.152-1.16,1.156,1.156,0,0,1,1.16,1.152v.005A1.157,1.157,0,0,1,884.525-346.868Zm2.2-3.766a.605.605,0,0,1-.6.605h-3.2a.605.605,0,0,1-.6-.605v-3.75a.6.6,0,0,1,.595-.605h3.205a.605.605,0,0,1,.6.605h0Z" transform="translate(-861.677 362.842)"/></svg>