<svg xmlns="http://www.w3.org/2000/svg" width="28" height="28" viewBox="0 0 28 28"><defs><style>.a{fill:none;}.b{fill:#6661e8;}</style></defs><rect class="a" width="28" height="28"/><g transform="translate(-76.6 1)"><path class="b" d="M81.6,26h8.964V0H81.6Zm7.367-7.936a.813.813,0,0,1-1.625,0V13.921a.813.813,0,0,1,1.625,0ZM83.2,3.792a.812.812,0,0,1,.813-.813h4.144a.813.813,0,0,1,.813.813v6.446a.813.813,0,0,1-.812.813H84.011a.812.812,0,0,1-.812-.813Z"/><path class="b" d="M290.13,0V26h7.123V0Zm3.223,18.064a.813.813,0,1,1-1.625,0V7.936a.812.812,0,1,1,1.625,0Z" transform="translate(-197.941)"/><path class="b" d="M145.07,90.67h2.519v4.821H145.07Z" transform="translate(-60.247 -86.066)"/></g></svg>