<svg xmlns="http://www.w3.org/2000/svg" width="28" height="28" viewBox="0 0 28 28"><defs><style>.a{fill:none;}.b{fill:#6661e8;}</style></defs><rect class="a" width="28" height="28"/><g transform="translate(-651.791 325.464)"><path class="b" d="M677.789-322.714h0a.75.75,0,0,0-.75-.75h-9.374a6.759,6.759,0,0,0-6.708,6h-.382a5.658,5.658,0,0,0-5.659,5.659v.244h0v1.972h-.372a.75.75,0,0,0-.75.75v1.874a.75.75,0,0,0,.75.75H671.79a.75.75,0,0,0,.75-.75v-1.874a.75.75,0,0,0-.75-.75h-.377v-1.972h0v-.244a5.659,5.659,0,0,0-5.659-5.659h-.211a2.251,2.251,0,0,1,2.12-1.5h9.375a.751.751,0,0,0,.737-.61C677.8-319.574,677.789-319.334,677.789-322.714Z"/><path class="b" d="M661.728-308.465a.75.75,0,0,0-.75.75v1.08a.75.75,0,0,0,.75.75.75.75,0,0,0,.75-.75v-1.08A.75.75,0,0,0,661.728-308.465Z" transform="translate(1.437 2.999)"/><path class="b" d="M665.478-308.465a.75.75,0,0,0-.75.75v1.08a.75.75,0,0,0,.75.75.75.75,0,0,0,.75-.75v-1.08A.75.75,0,0,0,665.478-308.465Z" transform="translate(2.187 2.999)"/><path class="b" d="M663.6-305.613a.75.75,0,0,0-.75.75v1.08a.75.75,0,0,0,.75.75.75.75,0,0,0,.75-.75v-1.08A.75.75,0,0,0,663.6-305.613Z" transform="translate(1.812 3.569)"/><path class="b" d="M667.665-305.613a.75.75,0,0,0-.75.75v1.08a.75.75,0,0,0,.75.75.75.75,0,0,0,.75-.75v-1.08A.75.75,0,0,0,667.665-305.613Z" transform="translate(2.624 3.569)"/><path class="b" d="M657.978-308.465a.75.75,0,0,0-.75.75v1.08a.75.75,0,0,0,.75.75.75.75,0,0,0,.75-.75v-1.08A.75.75,0,0,0,657.978-308.465Z" transform="translate(0.687 2.999)"/><path class="b" d="M659.853-305.613a.75.75,0,0,0-.75.75v1.08a.75.75,0,0,0,.75.75.75.75,0,0,0,.75-.75v-1.08A.75.75,0,0,0,659.853-305.613Z" transform="translate(1.062 3.569)"/><path class="b" d="M656.1-305.613a.75.75,0,0,0-.75.75v1.08a.75.75,0,0,0,.75.75.75.75,0,0,0,.75-.75v-1.08A.75.75,0,0,0,656.1-305.613Z" transform="translate(0.312 3.569)"/></g></svg>