<svg xmlns="http://www.w3.org/2000/svg" width="0" height="0">
    <defs>    
        <symbol id="bag" viewBox="0 0 23.596 22.208">
            <g transform="translate(0 -13.148)">
                <path d="M23.46,17.384a.757.757,0,0,0-.589-.323L8.234,16.43a.757.757,0,0,0-.065,1.513l13.646.588L19.132,26.9H7.192L5.035,15.156a.757.757,0,0,0-.468-.568L1.034,13.2A.757.757,0,1,0,.48,14.61l3.141,1.234L5.817,27.8a.757.757,0,0,0,.745.62h.364l-.832,2.31a.631.631,0,0,0,.594.845h.583a2.271,2.271,0,1,0,3.376,0H15.6a2.271,2.271,0,1,0,3.376,0h.709a.631.631,0,1,0,0-1.262H7.585l.681-1.893H19.684a.757.757,0,0,0,.721-.526l3.155-9.842A.755.755,0,0,0,23.46,17.384ZM8.959,34.094a1.009,1.009,0,1,1,1.009-1.009A1.01,1.01,0,0,1,8.959,34.094Zm8.328,0A1.009,1.009,0,1,1,18.3,33.085,1.01,1.01,0,0,1,17.287,34.094Z" transform="translate(0 0)"/>
            </g>
        </symbol>
    </defs>
</svg>