<svg xmlns="http://www.w3.org/2000/svg" width="0" height="0">
    <defs>
        <symbol id="rides" viewBox="0 0 48 48">
            <g transform="translate(2.182 2.182)">
                <path class="a" d="M704.6-4106.339a21.818,21.818,0,0,0-21.818,21.818A21.819,21.819,0,0,0,704.6-4062.7a21.818,21.818,0,0,0,21.818-21.818A21.864,21.864,0,0,0,704.6-4106.339Zm0,5.2a16.644,16.644,0,0,1,16.423,14.062h-4.433a10.051,10.051,0,0,1-7.327-3.095,6.4,6.4,0,0,0-9.041-.282c-.1.091-.191.186-.283.282a10.052,10.052,0,0,1-7.327,3.094h-4.433A16.645,16.645,0,0,1,704.6-4101.14Zm0,21.732a3.835,3.835,0,0,1-3.835-3.835,3.835,3.835,0,0,1,3.835-3.835,3.835,3.835,0,0,1,3.835,3.835h0A3.839,3.839,0,0,1,704.6-4079.407Zm-15.476.946a10.084,10.084,0,0,1,3.97-.946,7.677,7.677,0,0,1,7.667,7.687,7.645,7.645,0,0,1-.086,1.133h0a7.642,7.642,0,0,1-.605,2.058A16.7,16.7,0,0,1,689.125-4078.461Zm20.007,9.932a7.635,7.635,0,0,1-.6-2.058h-.005a7.68,7.68,0,0,1,6.455-8.734,7.668,7.668,0,0,1,2.95.132,18.62,18.62,0,0,1,2.148.728A16.7,16.7,0,0,1,709.132-4068.53Z" transform="translate(-682.782 4106.339)"/>
            </g>
        </symbol>
        <symbol id="happy" viewBox="0 0 48 48">
            <g transform="translate(-2)">
                <path class="a" d="M2872.7-333.129a21.92,21.92,0,0,0-20.382,20.383,21.819,21.819,0,0,0,21.775,23.209,21.844,21.844,0,0,0,21.818-21.818A21.819,21.819,0,0,0,2872.7-333.129Zm6.752,15.233a6.2,6.2,0,0,1,8.755,0,1.471,1.471,0,0,1,.167,1.858.587.587,0,0,1-.493.23h-1.757a3.246,3.246,0,0,0-4.642.055,1.376,1.376,0,0,1-2.028-.054h0a1.478,1.478,0,0,1,0-2.085Zm-19.473,0a6.206,6.206,0,0,1,8.758,0,1.482,1.482,0,0,1,.167,1.856.584.584,0,0,1-.49.23h-1.763a3.242,3.242,0,0,0-4.585,0,1.475,1.475,0,0,1-2.086,0h0a1.474,1.474,0,0,1,0-2.085Zm14.115,23.642h0a14.534,14.534,0,0,1-13.771-9.9,2.71,2.71,0,0,1,2.6-3.526h22.331a2.71,2.71,0,0,1,2.6,3.526A14.533,14.533,0,0,1,2874.1-294.254Z" transform="translate(-2848.279 335.173)"/>
            </g>
        </symbol>
        <symbol id="rated" viewBox="0 0 48 48">
            <path class="b" d="M21.233,6.6a3,3,0,0,1,5.533,0l3.25,7.752a3,3,0,0,0,2.515,1.829l8.371.7a3,3,0,0,1,1.711,5.258l-6.371,5.513a3,3,0,0,0-.958,2.952l1.92,8.206a3,3,0,0,1-4.478,3.248l-7.171-4.354a3,3,0,0,0-3.114,0l-7.171,4.354a3,3,0,0,1-4.478-3.248l1.92-8.206a3,3,0,0,0-.958-2.952L5.385,22.142A3,3,0,0,1,7.1,16.884l8.371-.7a3,3,0,0,0,2.515-1.829Z" transform="translate(0 1.116)"/>
        </symbol>
        <symbol id="cars" viewBox="0 0 48 48">
            <g transform="translate(0 6.838)">
                <g transform="translate(0 0)">
                    <path class="b" d="M47.724,16.219a1.235,1.235,0,0,0-.952-.454H42.1c-1.153-3.041-2.655-6.02-4.362-7.144-5.905-3.885-21.569-3.885-27.475,0C8.555,9.747,7.06,12.73,5.9,15.765H1.229a1.23,1.23,0,0,0-1.2,1.479L.718,20.6a1.229,1.229,0,0,0,1.2.98H3.3A8.3,8.3,0,0,0,1.313,27,8.125,8.125,0,0,0,3.88,33.1c.018.016.037.027.054.043v4.691a1.845,1.845,0,0,0,1.844,1.844h4.309a1.845,1.845,0,0,0,1.844-1.844V35.949H36.069v1.885a1.845,1.845,0,0,0,1.844,1.844h4.309a1.847,1.847,0,0,0,1.844-1.844v-4.6A8.432,8.432,0,0,0,44.6,21.574H46.08a1.224,1.224,0,0,0,1.2-.981l.693-3.352A1.239,1.239,0,0,0,47.724,16.219ZM12.288,11.7C16.995,8.6,31,8.6,35.709,11.7c.914.6,2.091,3.025,3.168,5.994H9.122C10.2,14.725,11.373,12.3,12.288,11.7ZM6.774,27.462A3.627,3.627,0,1,1,10.4,31.089,3.626,3.626,0,0,1,6.774,27.462Zm30.872,3.627a3.626,3.626,0,1,1,3.627-3.627A3.627,3.627,0,0,1,37.646,31.089Z" transform="translate(0 -5.707)"/>
                </g>
            </g>
        </symbol>
        <symbol id="car-booking" viewBox="0 0 40 40">
            <g transform="translate(4.111 5.139)">
                <path class="b" d="M25.243,15.5H6.535A6.768,6.768,0,0,0,6.5,29.027H9.431v-5.3a4.238,4.238,0,0,1,4.158-4.3H13.6a4.24,4.24,0,0,1,4.149,4.3v5.3h7.5a6.767,6.767,0,0,0,0-13.527Zm1.849,5.82-3.724,3.854a.909.909,0,0,1-1.317,0L20.19,23.247a.987.987,0,0,1,0-1.363.909.909,0,0,1,1.317,0l1.2,1.246,3.066-3.173a.909.909,0,0,1,1.317,0A.988.988,0,0,1,27.092,21.32Z" transform="translate(0 -15.5)"/>
                <path class="b" d="M103.769,116.4l-6.2-.609v-6.962a2.381,2.381,0,0,0-4.753,0v11.651h-.022l-2.346-1.852a2.376,2.376,0,0,0-3.263.324,2.079,2.079,0,0,0,.333,2.993l4.762,3.755H106.3v-6.59A2.79,2.79,0,0,0,103.769,116.4Z" transform="translate(-81.591 -100.73)"/>
                <path class="b" d="M181.95,453.427a.963.963,0,0,0,.964.964h11.563a.964.964,0,0,0,.964-.964V451.5H181.95Z" transform="translate(-170.932 -424.604)"/>
            </g>
        </symbol>
        <symbol id="passenger" viewBox="0 0 22 22">
            <g transform="translate(0.313 0.469)">
                <g transform="translate(2.358 1.708)">
                    <path class="b" d="M91.476,8.889a4.3,4.3,0,0,0,3.143-1.3,4.3,4.3,0,0,0,1.3-3.142,4.3,4.3,0,0,0-1.3-3.142,4.444,4.444,0,0,0-6.285,0,4.3,4.3,0,0,0-1.3,3.142,4.3,4.3,0,0,0,1.3,3.143A4.3,4.3,0,0,0,91.476,8.889Zm0,0" transform="translate(-83.895 0)"/>
                    <path class="b" d="M15.358,252.592a10.979,10.979,0,0,0-.15-1.166,9.188,9.188,0,0,0-.287-1.172,5.791,5.791,0,0,0-.482-1.093,4.125,4.125,0,0,0-.727-.947,3.2,3.2,0,0,0-1.044-.656,3.608,3.608,0,0,0-1.333-.241,1.353,1.353,0,0,0-.722.306c-.217.141-.47.3-.753.485a4.31,4.31,0,0,1-.974.429,3.781,3.781,0,0,1-2.382,0,4.3,4.3,0,0,1-.973-.429c-.28-.179-.533-.342-.753-.485a1.351,1.351,0,0,0-.722-.306,3.6,3.6,0,0,0-1.333.241,3.2,3.2,0,0,0-1.044.656,4.127,4.127,0,0,0-.726.947,5.8,5.8,0,0,0-.482,1.093,9.209,9.209,0,0,0-.287,1.172,10.939,10.939,0,0,0-.15,1.166c-.024.353-.037.72-.037,1.09A3.064,3.064,0,0,0,.91,256a3.276,3.276,0,0,0,2.345.855H12.14A3.275,3.275,0,0,0,14.485,256a3.063,3.063,0,0,0,.91-2.318c0-.372-.013-.739-.037-1.09Zm0,0" transform="translate(0 -238.403)"/>
                </g>
            </g>
        </symbol>
        <symbol id="transmission" viewBox="0 0 22 22">
            <path class="b" d="M3125.657-420.94a2.2,2.2,0,0,0-2.2-2.2h-.011a2.2,2.2,0,0,0-2.186,2.2,2.187,2.187,0,0,0,1.093,1.889v2.5a1.1,1.1,0,0,1-1.1,1.1h-3.3v-3.6a2.188,2.188,0,0,0,1.1-1.895,2.2,2.2,0,0,0-2.2-2.2h-.011a2.2,2.2,0,0,0-2.186,2.2,2.187,2.187,0,0,0,1.093,1.889v3.6h-3.3a1.1,1.1,0,0,1-1.1-1.1v-2.5a2.187,2.187,0,0,0,1.1-1.895,2.2,2.2,0,0,0-2.2-2.2,2.2,2.2,0,0,0-2.2,2.2,2.187,2.187,0,0,0,1.093,1.889v2.5a3.275,3.275,0,0,0,.857,2.2,3.275,3.275,0,0,0-.857,2.2v2.5a2.185,2.185,0,0,0-1.093,1.889,2.2,2.2,0,0,0,2.2,2.2,2.2,2.2,0,0,0,2.2-2.2,2.187,2.187,0,0,0-1.1-1.895v-2.5a1.1,1.1,0,0,1,1.1-1.1h3.3v3.6a2.186,2.186,0,0,0-1.093,1.889,2.2,2.2,0,0,0,2.188,2.2h.009a2.2,2.2,0,0,0,2.2-2.2,2.188,2.188,0,0,0-1.1-1.895v-3.6h3.3a3.3,3.3,0,0,0,3.3-3.3v-2.5A2.188,2.188,0,0,0,3125.657-420.94Z" transform="translate(-3105.884 425.334)"/>
        </symbol>
        <symbol id="petrol" viewBox="0 0 22 22">
            <g transform="translate(0.313 0.265)">
                <path class="b" d="M6370.179,959.875l.015-.016-3.868-3.865-1.1,1.1,2.192,2.2a2.6,2.6,0,0,0,.924,5.025,2.562,2.562,0,0,0,1.039-.219v7.5a1.039,1.039,0,1,1-2.078.02v-4.7a2.078,2.078,0,0,0-2.075-2.081h-1.04v-7.283a2.078,2.078,0,0,0-2.075-2.081h-6.233a2.078,2.078,0,0,0-2.077,2.08h0V974.2h10.385v-7.8h1.558v5.2a2.6,2.6,0,1,0,5.193.031v-9.916A2.615,2.615,0,0,0,6370.179,959.875Zm-8.07,2.882h-6.231v-5.2h6.231Zm6.231,0a1.04,1.04,0,1,1,1.039-1.041h0A1.043,1.043,0,0,1,6368.34,962.757Z" transform="translate(-6352.001 -953.901)"/>
            </g>
        </symbol>
        <symbol id="capacity" viewBox="0 0 22 22">
            <g transform="translate(0.156 0.265)">
                <g transform="translate(0.955 2.612)">
                    <path class="b" d="M8572.061-5704.49a.425.425,0,0,0-.358-.257h-1.84a.423.423,0,0,0-.365.257c-.037.119-.074.247-.1.366l-1.227-3.405a1.341,1.341,0,0,0-.178-.324,1.006,1.006,0,0,0,.337-.479l.559-2.124h-13.512l.558,2.124a1.01,1.01,0,0,0,.337.48,1.408,1.408,0,0,0-.175.323l-1.235,3.405a1.9,1.9,0,0,0-.1-.366.42.42,0,0,0-.355-.257h-1.841a.425.425,0,0,0-.366.257,1.818,1.818,0,0,0,0,1.392.439.439,0,0,0,.366.256h1.841l-.029.073a.931.931,0,0,0-.64.9v6.225a.458.458,0,0,0,.457.458h2.279a.464.464,0,0,0,.458-.458v-2.207h10.408v2.207a.465.465,0,0,0,.458.458h2.288a.465.465,0,0,0,.458-.458v-6.225a.939.939,0,0,0-.649-.9l-.028-.082h1.851a.411.411,0,0,0,.355-.247A1.822,1.822,0,0,0,8572.061-5704.49Zm-4.643,1.666a1.872,1.872,0,0,0-.906,1.6v.924h-8.75v-.924a1.872,1.872,0,0,0-.9-1.6,1.937,1.937,0,0,0-.6-.238l1.348-3.735h9.053l1.347,3.735A1.93,1.93,0,0,0,8567.418-5702.824Z" transform="translate(-8552.057 5712.403)"/>
                    <path class="b" d="M8555.528-5711.063h13.713a.458.458,0,0,0,.366-.192.444.444,0,0,0,.064-.4l-.182-.6a.464.464,0,0,0-.441-.32h-13.327a.461.461,0,0,0-.439.32l-.184.6a.447.447,0,0,0,.064.4A.459.459,0,0,0,8555.528-5711.063Z" transform="translate(-8552.312 5712.583)"/>
                </g>
            </g>
        </symbol>
        <symbol id="location-detect" viewBox="0 0 512 512">
            <path d="m8.828125 282.484375h45.902344c12.0625 91.066406 83.71875 162.722656 174.785156 174.785156v45.902344c.015625 4.871094 3.960937 8.8125 8.828125 8.828125h35.3125c4.867188-.015625 8.8125-3.957031 8.828125-8.828125v-45.902344c91.066406-12.0625 162.722656-83.71875 174.785156-174.785156h45.902344c4.871094-.015625 8.8125-3.960937 8.828125-8.828125v-35.3125c-.015625-4.867188-3.957031-8.8125-8.828125-8.828125h-45.902344c-12.0625-91.066406-83.71875-162.722656-174.785156-174.785156v-45.902344c-.015625-4.871094-3.960937-8.8125-8.828125-8.828125h-35.3125c-4.867188.015625-8.8125 3.957031-8.828125 8.828125v45.902344c-91.066406 12.0625-162.722656 83.71875-174.785156 174.785156h-45.902344c-4.871094.015625-8.8125 3.960937-8.828125 8.828125v35.3125c.015625 4.867188 3.957031 8.8125 8.828125 8.828125zm247.171875-176.554687c82.878906 0 150.070312 67.191406 150.070312 150.070312s-67.191406 150.070312-150.070312 150.070312-150.070312-67.191406-150.070312-150.070312c.117187-82.832031 67.238281-149.953125 150.070312-150.070312zm0 0"/>
            <path d="m326.621094 256c0 39.003906-31.617188 70.621094-70.621094 70.621094s-70.621094-31.617188-70.621094-70.621094 31.617188-70.621094 70.621094-70.621094 70.621094 31.617188 70.621094 70.621094zm0 0"/>
        </symbol>
        <symbol id="star" viewBox="0 0 16 16">
            <path d="M8.364,0l2.551,5.313,5.813.8-4.236,4.082L13.533,16,8.364,13.209,3.195,16l1.042-5.807L0,6.111l5.813-.8Z"/>
        </symbol>
        <symbol id="rating" viewBox="0 0 20 20">
            <g transform="translate(1 1)">
                <path class="c" d="M 3.986962556838989 17.22722434997559 L 4.329410076141357 11.7475004196167 L 4.341360092163086 11.55628967285156 L 4.222479820251465 11.40606021881104 L 0.8645188212394714 7.162193298339844 L 5.933919906616211 5.809410095214844 L 6.129590034484863 5.757190227508545 L 6.23376989364624 5.583509922027588 L 9 0.9719924926757813 L 11.7662296295166 5.583509922027588 L 11.87040996551514 5.757190227508545 L 12.06608009338379 5.809410095214844 L 17.1354808807373 7.162193298339844 L 13.77752017974854 11.40606021881104 L 13.65863990783691 11.55628967285156 L 13.6705904006958 11.7475004196167 L 14.01302909851074 17.22722434997559 L 9.193499565124512 15.20450973510742 L 9 15.12329959869385 L 8.806500434875488 15.20450973510742 L 3.986962556838989 17.22722434997559 Z"/>
            </g>
        </symbol>
        <symbol id="fav-heart" viewBox="0 -28 512.001 512">
            <path d="m256 455.515625c-7.289062 0-14.316406-2.640625-19.792969-7.4375-20.683593-18.085937-40.625-35.082031-58.21875-50.074219l-.089843-.078125c-51.582032-43.957031-96.125-81.917969-127.117188-119.3125-34.644531-41.804687-50.78125-81.441406-50.78125-124.742187 0-42.070313 14.425781-80.882813 40.617188-109.292969 26.503906-28.746094 62.871093-44.578125 102.414062-44.578125 29.554688 0 56.621094 9.34375 80.445312 27.769531 12.023438 9.300781 22.921876 20.683594 32.523438 33.960938 9.605469-13.277344 20.5-24.660157 32.527344-33.960938 23.824218-18.425781 50.890625-27.769531 80.445312-27.769531 39.539063 0 75.910156 15.832031 102.414063 44.578125 26.191406 28.410156 40.613281 67.222656 40.613281 109.292969 0 43.300781-16.132812 82.9375-50.777344 124.738281-30.992187 37.398437-75.53125 75.355469-127.105468 119.308594-17.625 15.015625-37.597657 32.039062-58.328126 50.167969-5.472656 4.789062-12.503906 7.429687-19.789062 7.429687zm-112.96875-425.523437c-31.066406 0-59.605469 12.398437-80.367188 34.914062-21.070312 22.855469-32.675781 54.449219-32.675781 88.964844 0 36.417968 13.535157 68.988281 43.882813 105.605468 29.332031 35.394532 72.960937 72.574219 123.476562 115.625l.09375.078126c17.660156 15.050781 37.679688 32.113281 58.515625 50.332031 20.960938-18.253907 41.011719-35.34375 58.707031-50.417969 50.511719-43.050781 94.136719-80.222656 123.46875-115.617188 30.34375-36.617187 43.878907-69.1875 43.878907-105.605468 0-34.515625-11.605469-66.109375-32.675781-88.964844-20.757813-22.515625-49.300782-34.914062-80.363282-34.914062-22.757812 0-43.652344 7.234374-62.101562 21.5-16.441406 12.71875-27.894532 28.796874-34.609375 40.046874-3.453125 5.785157-9.53125 9.238282-16.261719 9.238282s-12.808594-3.453125-16.261719-9.238282c-6.710937-11.25-18.164062-27.328124-34.609375-40.046874-18.449218-14.265626-39.34375-21.5-62.097656-21.5zm0 0"/>
        </symbol>
        <symbol id="fav-heart-fill" viewBox="0 -28 512.00002 512">
            <path fill="red" d="m471.382812 44.578125c-26.503906-28.746094-62.871093-44.578125-102.410156-44.578125-29.554687 0-56.621094 9.34375-80.449218 27.769531-12.023438 9.300781-22.917969 20.679688-32.523438 33.960938-9.601562-13.277344-20.5-24.660157-32.527344-33.960938-23.824218-18.425781-50.890625-27.769531-80.445312-27.769531-39.539063 0-75.910156 15.832031-102.414063 44.578125-26.1875 28.410156-40.613281 67.222656-40.613281 109.292969 0 43.300781 16.136719 82.9375 50.78125 124.742187 30.992188 37.394531 75.535156 75.355469 127.117188 119.3125 17.613281 15.011719 37.578124 32.027344 58.308593 50.152344 5.476563 4.796875 12.503907 7.4375 19.792969 7.4375 7.285156 0 14.316406-2.640625 19.785156-7.429687 20.730469-18.128907 40.707032-35.152344 58.328125-50.171876 51.574219-43.949218 96.117188-81.90625 127.109375-119.304687 34.644532-41.800781 50.777344-81.4375 50.777344-124.742187 0-42.066407-14.425781-80.878907-40.617188-109.289063zm0 0"/>
        </symbol>
        <symbol id="review_liked" viewBox="0 0 18 18">
            <path class="b" d="M2591.6,157.285l-1.067,4.9a2.5,2.5,0,0,1-2.411,1.838h-10.166a.9.9,0,0,1-.9-.9v-7.172a.9.9,0,0,1,.9-.9h3.021l4.3-4.868a.491.491,0,0,1,.493-.152l.735.179a1.764,1.764,0,0,1,.359.143,1.5,1.5,0,0,1,.583,2.044l-1.04,1.874a.464.464,0,0,0-.062.242.5.5,0,0,0,.5.5h2.949a1.57,1.57,0,0,1,.412.045A1.842,1.842,0,0,1,2591.6,157.285Z" transform="translate(-2575.061 -148.026)"/>
        </symbol>
        <symbol id="review_dislike" viewBox="0 0 18 18">
            <path class="b" d="M2577.109,156.768l1.067-4.9a2.5,2.5,0,0,1,2.411-1.838h10.165a.9.9,0,0,1,.9.9v7.172a.9.9,0,0,1-.9.9h-3.021l-4.3,4.868a.491.491,0,0,1-.494.152l-.735-.179a1.752,1.752,0,0,1-.358-.143,1.5,1.5,0,0,1-.583-2.044l1.04-1.874a.467.467,0,0,0,.063-.242.5.5,0,0,0-.5-.5h-2.949a1.572,1.572,0,0,1-.412-.045A1.842,1.842,0,0,1,2577.109,156.768Z" transform="translate(-2575.06 -148.027)"/>
        </symbol>
        <symbol id="review_dislike" viewBox="0 0 18 18">
            <path class="b" d="M2577.109,156.768l1.067-4.9a2.5,2.5,0,0,1,2.411-1.838h10.165a.9.9,0,0,1,.9.9v7.172a.9.9,0,0,1-.9.9h-3.021l-4.3,4.868a.491.491,0,0,1-.494.152l-.735-.179a1.752,1.752,0,0,1-.358-.143,1.5,1.5,0,0,1-.583-2.044l1.04-1.874a.467.467,0,0,0,.063-.242.5.5,0,0,0-.5-.5h-2.949a1.572,1.572,0,0,1-.412-.045A1.842,1.842,0,0,1,2577.109,156.768Z" transform="translate(-2575.06 -148.027)"/>
        </symbol>
        <symbol id="icon__pencil" viewBox="0 0 18 18">
            <g transform="translate(2 2)">
                <path class="b" d="M8.941,82.473.975,90.44a.318.318,0,0,0-.083.145L.009,94.129a.314.314,0,0,0,.3.39.312.312,0,0,0,.076-.009l3.544-.883a.313.313,0,0,0,.145-.083l7.967-7.966Zm0,0" transform="translate(0 -79.852)"/>
                <path class="b" d="M338.519,1.578l-.887-.887a1.606,1.606,0,0,0-2.218,0l-1.086,1.086,3.1,3.1L338.519,3.8a1.569,1.569,0,0,0,0-2.218Zm0,0" transform="translate(-324.296 -0.246)"/>
            </g>
        </symbol>
        <symbol id="ask-question" viewBox="0 0 20 20">
            <path class="b" d="M620.258,313.274a8,8,0,0,0-6.843,12.146l-1.122,3.1a.564.564,0,0,0,.723.723l3.1-1.122a8,8,0,1,0,4.146-14.843Zm-4.239,9.495a1.494,1.494,0,1,1,1.495-1.495A1.495,1.495,0,0,1,616.019,322.768Zm4.239,0a1.494,1.494,0,1,1,1.495-1.495A1.495,1.495,0,0,1,620.258,322.768Zm4.239,0a1.494,1.494,0,1,1,1.494-1.495A1.495,1.495,0,0,1,624.5,322.768Z" transform="translate(-610.258 -311.274)"/>
        </symbol>
        <symbol id="" viewBox="0 0 18 18"></symbol>
        <symbol id="" viewBox="0 0 18 18"></symbol>
        <symbol id="location" viewBox="0 0 20 20">
            <path d="M9.75,0A6.782,6.782,0,0,0,3,6.8c0,5.327,6.116,10.828,6.376,11.059a.564.564,0,0,0,.748,0c.26-.232,6.376-5.732,6.376-11.06A6.782,6.782,0,0,0,9.75,0Zm0,10.5A3.75,3.75,0,1,1,13.5,6.75,3.754,3.754,0,0,1,9.75,10.5Z" transform="translate(0 1)"/>
        </symbol>
        <symbol id="calender" viewBox="0 0 20 20">
            <g transform="translate(1.667 1.667)">
                <path d="M6294.784,231.2a.977.977,0,0,0,.977-.977v-1.953a.977.977,0,1,0-1.953,0v1.953A.976.976,0,0,0,6294.784,231.2Z" transform="translate(-6282.544 -227.29)"/>
                <path d="M6054.784,231.2a.977.977,0,0,0,.977-.977v-1.953a.977.977,0,1,0-1.953,0v1.953A.976.976,0,0,0,6054.784,231.2Z" transform="translate(-6050.357 -227.29)"/>
                <path d="M5962.687,287.29H5962v.977a1.953,1.953,0,0,1-3.906,0v-.977h-3.906v.977a1.953,1.953,0,0,1-3.906,0v-.977h-.684a1.792,1.792,0,0,0-1.791,1.79v11.133A1.792,1.792,0,0,0,5949.6,302h13.086a1.792,1.792,0,0,0,1.79-1.79V289.08A1.792,1.792,0,0,0,5962.687,287.29Z" transform="translate(-5947.81 -285.337)"/>
            </g>
        </symbol>
        <symbol id="new" viewBox="0 0 28 28">
            <g transform="translate(-2373.895 -230.54)">
                <path d="M2398.4,238.773l-3.408,1.369-2.373.951-4.725,1.9-10.495-4.223,4.725-1.913,2.383-.951,3.387-1.369Z"/>
                <path d="M2387.894,243v12.974l-10.5-4.23V238.771Z"/>
                <path class="d" d="M2387.894,243v12.974l10.5-4.23V238.771Z"/>
                <path d="M2394.987,240.142v4.652l-1.119-.544-1.244,1.484V241.1l-.01-.01-10.495-4.234,2.383-.951Z"/>
            </g>
        </symbol>
        <symbol id="used" viewBox="0 0 28 28">
            <g transform="translate(-2296.553 -321.784)">
                <path d="M2310.493,338.074v8.085l-9.232-3.72v-3.452l4.288,1.726,1.6.646a1.527,1.527,0,0,0,.579.111,1.554,1.554,0,0,0,1.381-.824l.935-1.749Z" transform="translate(0.281 1.625)"/>
                <path d="M2318.782,338.987v3.452l-9.232,3.72v-8.085l.445.824.936,1.749a1.566,1.566,0,0,0,1.381.824,1.529,1.529,0,0,0,.579-.111l1.6-.646Z" transform="translate(1.224 1.625)"/>
                <g transform="translate(2298.791 332.66)">
                    <path d="M2310.773,335.474l-.446.835-.434.813-1.815,3.4-.055.111-.1-.045-6.381-2.562-2.751-1.114,2.751-5.156,7.8,3.14.713.29Z" transform="translate(-2298.79 -331.754)"/>
                    <g transform="translate(11.983)">
                        <path d="M2321.544,336.91l-2.762,1.114-6.37,2.562-.1.045-.056-.1-1.815-3.4L2310,336.3l-.445-.824.724-.289.724-.29,7.784-3.14Z" transform="translate(-2309.55 -331.754)"/>
                    </g>
                </g>
                <g transform="translate(2298.785 323.784)">
                    <path d="M2308.018,323.784l-9.233,3.72,2.758,5.157,9.232-3.72Z" transform="translate(-2298.786 -323.784)"/>
                    <path d="M2312.309,323.784l9.233,3.72-2.758,5.157-9.232-3.72Z" transform="translate(-2297.562 -323.784)"/>
                </g>
            </g>
        </symbol>
        <symbol id="ask" viewBox="0 0 24 24">
            <path fill="none" d="M0 0H24V24H0z"/>
            <path d="M12 19c.828 0 1.5.672 1.5 1.5S12.828 22 12 22s-1.5-.672-1.5-1.5.672-1.5 1.5-1.5zm0-17c3.314 0 6 2.686 6 6 0 2.165-.753 3.29-2.674 4.923C13.399 14.56 13 15.297 13 17h-2c0-2.474.787-3.695 3.031-5.601C15.548 10.11 16 9.434 16 8c0-2.21-1.79-4-4-4S8 5.79 8 8v1H6V8c0-3.314 2.686-6 6-6z"/>
        </symbol>
        <symbol id="maginifier" viewBox="0 0 29.093 30.528">
            <g transform="translate(0 0)">
                <path d="M12.812,0C5.747,0,0,6.027,0,13.434S5.747,26.868,12.812,26.868s12.812-6.026,12.812-13.434S19.876,0,12.812,0Zm0,24.388A10.721,10.721,0,0,1,2.365,13.434,10.721,10.721,0,0,1,12.812,2.48,10.721,10.721,0,0,1,23.258,13.434,10.721,10.721,0,0,1,12.812,24.388Z" transform="translate(0 0)"/>
            </g>
            <g transform="translate(19.947 20.938)">
                <path d="M359.845,358.519l-6.78-7.11a1.144,1.144,0,0,0-1.672,0,1.282,1.282,0,0,0,0,1.753l6.78,7.11a1.144,1.144,0,0,0,1.672,0A1.282,1.282,0,0,0,359.845,358.519Z" transform="translate(-351.046 -351.046)"/>
            </g>
        </symbol>
        <symbol id="user-login" viewBox="0 0 24 24">
            <path d="M14 14.252v2.09A6 6 0 0 0 6 22l-2-.001a8 8 0 0 1 10-7.748zM12 13c-3.315 0-6-2.685-6-6s2.685-6 6-6 6 2.685 6 6-2.685 6-6 6zm0-2c2.21 0 4-1.79 4-4s-1.79-4-4-4-4 1.79-4 4 1.79 4 4 4zm6 6v-3.5l5 4.5-5 4.5V19h-3v-2h3z"/>
        </symbol>
        <symbol id="grid-view" viewBox="0 0 28 28">
            <g transform="translate(0 -3.471)">
                <g transform="translate(0 2.471)">
                    <path d="M4.209,2.471A3.359,3.359,0,1,0,7.569,5.83,3.363,3.363,0,0,0,4.209,2.471Z" transform="translate(-0.762 -1.471)"/>
                    <path d="M108.728,2.471a3.359,3.359,0,1,0,3.36,3.359A3.363,3.363,0,0,0,108.728,2.471Z" transform="translate(-94.408 -1.471)"/>
                    <path d="M214.938,9.19a3.359,3.359,0,1,0-3.359-3.359A3.363,3.363,0,0,0,214.938,9.19Z" transform="translate(-189.569 -1.471)"/>
                    <path d="M3.36,112.668A3.36,3.36,0,1,0,0,109.309,3.363,3.363,0,0,0,3.36,112.668Z" transform="translate(0 -94.949)"/>
                    <path d="M107.884,112.668a3.36,3.36,0,1,0-3.359-3.359A3.363,3.363,0,0,0,107.884,112.668Z" transform="translate(-93.652 -94.949)"/>
                    <path d="M214.093,112.668a3.36,3.36,0,1,0-3.361-3.359A3.363,3.363,0,0,0,214.093,112.668Z" transform="translate(-188.81 -94.949)"/>
                    <path d="M4.1,209.108a3.359,3.359,0,1,0,3.359,3.359A3.364,3.364,0,0,0,4.1,209.108Z" transform="translate(-0.662 -188.108)"/>
                    <path d="M108.624,209.108a3.359,3.359,0,1,0,3.359,3.359A3.363,3.363,0,0,0,108.624,209.108Z" transform="translate(-94.314 -188.108)"/>
                    <path d="M214.836,209.108a3.359,3.359,0,1,0,3.359,3.359A3.363,3.363,0,0,0,214.836,209.108Z" transform="translate(-189.478 -188.108)"/>
                </g>
            </g>
        </symbol>
        <symbol id="list-view" viewBox="0 0 28 28">
            <g transform="translate(-1752 -172)">
                <rect width="28" height="5" rx="2.5" transform="translate(1752 193)"/>
                <rect width="28" height="5" rx="2.5" transform="translate(1752 183)"/>
                <rect width="28" height="5" rx="2.5" transform="translate(1752 172)"/>
            </g>
        </symbol>
        <symbol id="location" viewBox="0 0 16.231 20.062">
            <path d="M63.661,3.488a8.1,8.1,0,0,0-13.318,0,8.1,8.1,0,0,0-.943,7.464,6.38,6.38,0,0,0,1.176,1.941l5.892,6.921a.7.7,0,0,0,1.068,0L63.426,12.9A6.387,6.387,0,0,0,64.6,10.957,8.1,8.1,0,0,0,63.661,3.488Zm-.372,6.977a5,5,0,0,1-.925,1.516l0,0L57,18.279l-5.362-6.3a5.007,5.007,0,0,1-.927-1.52A6.7,6.7,0,0,1,51.5,4.286a6.7,6.7,0,0,1,11.01,0A6.7,6.7,0,0,1,63.288,10.466Z" transform="translate(-48.886 0)"/>
            <g transform="translate(4.187 4.162)">
                <path d="M159.682,106.219a3.928,3.928,0,1,0,3.928,3.928A3.933,3.933,0,0,0,159.682,106.219Zm0,6.453a2.525,2.525,0,1,1,2.525-2.525A2.528,2.528,0,0,1,159.682,112.672Z" transform="translate(-155.754 -106.219)"/>
            </g>
        </symbol>
        <symbol id="add-compare" viewBox="0 0 469.33333 469.33333">
            <path d="m437.332031 192h-160v-160c0-17.664062-14.335937-32-32-32h-21.332031c-17.664062 0-32 14.335938-32 32v160h-160c-17.664062 0-32 14.335938-32 32v21.332031c0 17.664063 14.335938 32 32 32h160v160c0 17.664063 14.335938 32 32 32h21.332031c17.664063 0 32-14.335937 32-32v-160h160c17.664063 0 32-14.335937 32-32v-21.332031c0-17.664062-14.335937-32-32-32zm0 0"/>
        </symbol>
        <symbol id="added-compare"  viewBox="0 -46 417.81333 417">
            <path d="m159.988281 318.582031c-3.988281 4.011719-9.429687 6.25-15.082031 6.25s-11.09375-2.238281-15.082031-6.25l-120.449219-120.46875c-12.5-12.5-12.5-32.769531 0-45.246093l15.082031-15.085938c12.503907-12.5 32.75-12.5 45.25 0l75.199219 75.203125 203.199219-203.203125c12.503906-12.5 32.769531-12.5 45.25 0l15.082031 15.085938c12.5 12.5 12.5 32.765624 0 45.246093zm0 0"/>
        </symbol>
        <symbol id="collection-location" viewBox="0 0 12.78 17.05">
            <g transform="translate(-106.15 -15.65)">
                <path d="M54.12,0a6.047,6.047,0,0,0-6.04,6.04,6.969,6.969,0,0,0,.512,2.325,9.74,9.74,0,0,0,.7,1.306l4.141,6.275a.788.788,0,0,0,1.376,0L58.95,9.671a9.7,9.7,0,0,0,.7-1.306A6.967,6.967,0,0,0,60.16,6.04,6.047,6.047,0,0,0,54.12,0Zm4.873,8.09a8.925,8.925,0,0,1-.636,1.19l-4.142,6.275c-.082.124-.108.124-.189,0L49.884,9.28a8.929,8.929,0,0,1-.636-1.191,6.326,6.326,0,0,1-.457-2.049,5.329,5.329,0,0,1,10.659,0A6.33,6.33,0,0,1,58.993,8.09Z" transform="translate(58.42 16)"/>
                <path class="b" d="M114.892,64.008a2.813,2.813,0,1,0,2.813,2.813A2.816,2.816,0,0,0,114.892,64.008Zm0,5a2.188,2.188,0,1,1,2.188-2.188A2.19,2.19,0,0,1,114.892,69.008Z" transform="translate(-2.342 -44.662)"/>
            </g>
        </symbol>
        <symbol id="info" viewBox="0 0 23.625 23.625">
            <g>
                <path  d="M11.812,0C5.289,0,0,5.289,0,11.812s5.289,11.813,11.812,11.813s11.813-5.29,11.813-11.813
		S18.335,0,11.812,0z M14.271,18.307c-0.608,0.24-1.092,0.422-1.455,0.548c-0.362,0.126-0.783,0.189-1.262,0.189
		c-0.736,0-1.309-0.18-1.717-0.539s-0.611-0.814-0.611-1.367c0-0.215,0.015-0.435,0.045-0.659c0.031-0.224,0.08-0.476,0.147-0.759
		l0.761-2.688c0.067-0.258,0.125-0.503,0.171-0.731c0.046-0.23,0.068-0.441,0.068-0.633c0-0.342-0.071-0.582-0.212-0.717
		c-0.143-0.135-0.412-0.201-0.813-0.201c-0.196,0-0.398,0.029-0.605,0.09c-0.205,0.063-0.383,0.12-0.529,0.176l0.201-0.828
		c0.498-0.203,0.975-0.377,1.43-0.521c0.455-0.146,0.885-0.218,1.29-0.218c0.731,0,1.295,0.178,1.692,0.53
		c0.395,0.353,0.594,0.812,0.594,1.376c0,0.117-0.014,0.323-0.041,0.617c-0.027,0.295-0.078,0.564-0.152,0.811l-0.757,2.68
		c-0.062,0.215-0.117,0.461-0.167,0.736c-0.049,0.275-0.073,0.485-0.073,0.626c0,0.356,0.079,0.599,0.239,0.728
		c0.158,0.129,0.435,0.194,0.827,0.194c0.185,0,0.392-0.033,0.626-0.097c0.232-0.064,0.4-0.121,0.506-0.17L14.271,18.307z
		 M14.137,7.429c-0.353,0.328-0.778,0.492-1.275,0.492c-0.496,0-0.924-0.164-1.28-0.492c-0.354-0.328-0.533-0.727-0.533-1.193
		c0-0.465,0.18-0.865,0.533-1.196c0.356-0.332,0.784-0.497,1.28-0.497c0.497,0,0.923,0.165,1.275,0.497
		c0.353,0.331,0.53,0.731,0.53,1.196C14.667,6.703,14.49,7.101,14.137,7.429z"/>
            </g>
        </symbol>

    </defs>
</svg>