<svg xmlns="http://www.w3.org/2000/svg" width="28" height="28" viewBox="0 0 28 28"><defs><style>.a{fill:none;}.b{fill:#6661e8;}</style></defs><rect class="a" width="28" height="28"/><g transform="translate(5.104 1)"><path class="b" d="M15.392,405.395V408.6H9.979v-3.206H7.813V408.6H2.4v-3.206H.234v4.275a1.016,1.016,0,0,0,1.083,1.069H16.475a1.016,1.016,0,0,0,1.083-1.069v-4.275Zm0,0" transform="translate(0 -384.739)"/><path class="b" d="M29.148,18.184A7.491,7.491,0,0,0,36.74,10.7,7.257,7.257,0,0,0,34.9,5.465c-.434-.641-.976-1.6-1.952-1.069l-1.085.535L30.124.656A1.1,1.1,0,0,0,28.171.549L25.46,6.107l-1.3-.641a1.106,1.106,0,0,0-1.41.428,12.11,12.11,0,0,0-1.193,4.81A7.492,7.492,0,0,0,29.148,18.184ZM28.388,7.817a1.059,1.059,0,0,1,1.518,0c.543.534,2.495,2.458,2.495,3.955a3.254,3.254,0,0,1-6.508,0C25.894,10.275,27.846,8.351,28.388,7.817Zm0,0" transform="translate(-20.252 0.815)"/></g></svg>