<svg xmlns="http://www.w3.org/2000/svg" width="28" height="28" viewBox="0 0 28 28"><defs><style>.a{fill:none;}.b{fill:#6661e8;}</style></defs><rect class="a" width="28" height="28"/><g transform="translate(1 -38.74)"><path class="b" d="M348.97,45.959a2.109,2.109,0,1,0-2.109-2.109A2.109,2.109,0,0,0,348.97,45.959Z" transform="translate(-328.705 0)"/><path class="b" d="M288.992,137.67l-3.009-6.59a.944.944,0,0,0-.9-.514H281.6a.945.945,0,0,0-.9.514l-3.008,6.59a.9.9,0,1,0,1.641.749l1.454-3.187v3.433c0,.006,0,.011,0,.017v7.781a1.082,1.082,0,1,0,2.165,0v-6.451h.79v6.451a1.082,1.082,0,1,0,2.165,0v-7.781s0-.008,0-.013v-3.438l1.455,3.187a.9.9,0,1,0,1.641-.749Z" transform="translate(-263.074 -84.175)"/><path class="b" d="M71.356,45.959a2.109,2.109,0,1,0-2.11-2.109A2.108,2.108,0,0,0,71.356,45.959Z" transform="translate(-65.621 0)"/><path class="b" d="M8.379,130.959a.9.9,0,0,0-.805-.521H3.893a.893.893,0,0,0-.8.521l-3.008,6.59a.9.9,0,1,0,1.641.749l.936-2.051-.815,3.837a.438.438,0,0,0,.428.529h.9v5.729a1.082,1.082,0,1,0,2.165,0v-5.729h.79v5.729a1.082,1.082,0,1,0,2.165,0v-5.729h.9a.438.438,0,0,0,.428-.529l-.817-3.847.94,2.06a.9.9,0,1,0,1.641-.749Z" transform="translate(0 -84.054)"/><path class="b" d="M236.3,71.315a.722.722,0,0,0-.722.722V89.192a.722.722,0,0,0,1.444,0V72.037A.722.722,0,0,0,236.3,71.315Z" transform="translate(-223.247 -28.026)"/></g></svg>