<svg version="1.1" id="Capa_1" xmlns="http://www.w3.org/2000/svg" xmlns:xlink="http://www.w3.org/1999/xlink" x="0px" y="0px"
	 viewBox="0 0 180.6 221.5" enable-background="new 0 0 180.6 221.5" xml:space="preserve">
<g>
	<g>
		<path fill="#FFFFFF" d="M132.9,0c0.5,0,1,0,1.6,0c1.3,15.6-4.7,27.3-11.9,35.7c-7.1,8.4-16.8,16.5-32.6,15.3
			c-1.1-15.4,4.9-26.2,12.2-34.6C108.8,8.5,121.1,1.6,132.9,0z"/>
		<path fill="#FFFFFF" d="M180.6,162.6c0,0.2,0,0.3,0,0.4c-4.4,13.4-10.7,24.9-18.4,35.5c-7,9.7-15.6,22.7-31,22.7
			c-13.3,0-22.1-8.5-35.8-8.8c-14.4-0.2-22.3,7.1-35.5,9c-1.5,0-3,0-4.5,0c-9.7-1.4-17.5-9.1-23.2-16C15.4,185.1,2.4,158.8,0,125
			c0-3.3,0-6.6,0-9.9C1,91,12.8,71.3,28.3,61.8c8.2-5.1,19.5-9.4,32.1-7.4c5.4,0.8,10.9,2.7,15.7,4.5c4.6,1.8,10.3,4.9,15.7,4.7
			c3.7-0.1,7.3-2,11-3.4c10.9-3.9,21.5-8.4,35.5-6.3c16.9,2.5,28.8,10,36.2,21.6c-14.3,9.1-25.5,22.7-23.6,46.1
			C152.8,142.9,165.2,155.3,180.6,162.6z"/>
	</g>
</g>
</svg>
