<svg xmlns="http://www.w3.org/2000/svg" width="512" height="512" viewBox="0 0 512 512"><g transform="translate(-1262 -1190)"><rect width="512" height="512" transform="translate(1262 1190)" fill="none"/><g transform="translate(361.766 -403.336)"><g transform="translate(1008.235 1705.267)"><g transform="translate(40.14 0)"><path d="M290.415,357.509l-9.752.846a89.325,89.325,0,0,1,39.359-81.981,76.553,76.553,0,0,0-3.16,8.376,79.046,79.046,0,0,1,8.6-.237A79.535,79.535,0,0,0,290.415,357.509Z" transform="translate(-129.788 -259.283)" fill="#d8d8d8"/><path d="M308.82,352.277l-10.489-1.618a96.841,96.841,0,0,1,62.545-76.215,82.731,82.731,0,0,0-5.483,8.008,85.92,85.92,0,0,1,9.118,1.962A86.228,86.228,0,0,0,308.82,352.277Z" transform="translate(-129.091 -259.359)" fill="#ededed"/><path d="M266.64,357.517l-10.081-.6a127.946,127.946,0,0,1,45.788-90.731,109.776,109.776,0,0,0-2.229,15.778A117.858,117.858,0,0,0,266.64,357.517Z" transform="translate(-130.708 -259.678)" fill="#c8c8c8"/><path d="M205.051,331.337l9.663-1.567a89.325,89.325,0,0,0-58.231-69.85,41.487,41.487,0,0,0-3.281,9.223A79.534,79.534,0,0,1,205.051,331.337Z" transform="translate(-134.709 -259.92)" fill="#ededed"/><path d="M198.465,350.151l10.235-2.8a96.842,96.842,0,0,0-70.829-68.583,82.7,82.7,0,0,1,6.36,7.331,85.366,85.366,0,0,0-8.833,2.989A86.229,86.229,0,0,1,198.465,350.151Z" transform="translate(-135.398 -259.191)" fill="#c8c8c8"/><path d="M236.51,356.262l10.059-.874A127.948,127.948,0,0,0,198.3,265.956a110,110,0,0,1,2.662,15.71A117.852,117.852,0,0,1,236.51,356.262Z" transform="translate(-132.963 -259.686)" fill="#d8d8d8"/></g><g transform="translate(0 61.604)"><g transform="translate(54.485 0)"><g transform="translate(0 0)"><path d="M7708.268-2735.458h204.464v181.527a22.938,22.938,0,0,1-22.938,22.937H7731.2a22.937,22.937,0,0,1-22.937-22.937v-181.527Z" transform="translate(-7708.268 2735.458)" fill="#ededed"/><g transform="translate(22.821 108.064)"><path d="M7771.71-2629.071a6,6,0,0,1-6,6h-35.992a6,6,0,0,1-6-5.993v-.009a6,6,0,0,1,6-6h36A6.006,6.006,0,0,1,7771.71-2629.071Z" transform="translate(-7723.71 2670.917)" fill="#d8d8d8"/><path d="M7789.3-2654.074a6,6,0,0,1-6,6h-53.588a6,6,0,0,1-6-5.994h0v-.009a6,6,0,0,1,6-6H7783.3A6,6,0,0,1,7789.3-2654.074Z" transform="translate(-7723.712 2660.077)" fill="#d8d8d8"/></g><path d="M7708.268-2612.146h204.464v4.751a22.938,22.938,0,0,1-22.938,22.937H7731.2a22.937,22.937,0,0,1-22.937-22.937v-4.751Z" transform="translate(-7707.586 2788.922)" fill="#d8d8d8"/></g></g><g transform="translate(0)"><path d="M0,.124l204.345-.41V70.573L0,41.7Z" transform="translate(54.485 22.813)" fill="#d8d8d8"/><g transform="translate(0)"><path d="M7951.6-2690.406H7687.451l29.841-45.052h204.465Z" transform="translate(-7662.127 2735.458)" fill="#c8c8c8"/><rect width="64.513" height="5.735" transform="translate(0 33.546) rotate(-31.331)" fill="#c8c8c8"/><rect width="5.735" height="64.513" transform="translate(256.706 4.899) rotate(-58.679)" fill="#c8c8c8"/></g></g></g></g><g transform="translate(1162.852 1927.023)"><path d="M95.282,122.853H8a8,8,0,0,1-8-8V8A8,8,0,0,1,8,0H182.563a8,8,0,0,1,8,8V114.853a8,8,0,0,1-8,8H118.542l-23.26,24.481Z" transform="translate(0.661 2.647)" fill="#d31140"/><path d="M93.958,121.749H8a8,8,0,0,1-8-8V8A8,8,0,0,1,8,0H179.917a8,8,0,0,1,8,8V113.749a8,8,0,0,1-8,8H116.9L93.958,146.012Z" fill="#ff3a59"/><g transform="translate(21.06 30.183)"><rect width="142.913" height="10.53" rx="5.265" transform="translate(0 0)" fill="#d31140"/><rect width="142.913" height="10.53" rx="5.265" transform="translate(0 28.583)" fill="#d31140"/><rect width="88.756" height="10.53" rx="5.265" transform="translate(0 55.661)" fill="#d31140"/></g></g><circle cx="3.956" cy="3.956" r="3.956" transform="translate(976.235 1699.336)" fill="#ededed"/><circle cx="3.956" cy="3.956" r="3.956" transform="translate(992.322 1747.424)" fill="#d8d8d8"/><circle cx="3.956" cy="3.956" r="3.956" transform="translate(1010.471 1649.555)" fill="#ededed"/><circle cx="3.956" cy="3.956" r="3.956" transform="translate(1160.234 1643.336)" fill="#ededed"/><circle cx="3.956" cy="3.956" r="3.956" transform="translate(1202.4 1649.555)" fill="#c8c8c8"/><circle cx="3.956" cy="3.956" r="3.956" transform="translate(1336.323 1643.423)" fill="#c8c8c8"/><path d="M162.417,133.844a11.291,11.291,0,0,0-12-12,14.071,14.071,0,0,0,8.716-3.283,14.057,14.057,0,0,0,3.283-8.716,11.292,11.292,0,0,0,12,12,11.292,11.292,0,0,0-12,12" transform="translate(913.816 1541.491)" fill="#d8d8d8"/><path d="M163.861,136.732a12.649,12.649,0,0,0-13.443-13.443,15.765,15.765,0,0,0,9.765-3.678,15.749,15.749,0,0,0,3.678-9.765,12.651,12.651,0,0,0,13.445,13.443,12.651,12.651,0,0,0-13.445,13.443" transform="translate(857.817 1586.604)" fill="#d8d8d8"/><path d="M158.418,125.844a7.527,7.527,0,0,0-8-8,9.381,9.381,0,0,0,5.811-2.189,9.371,9.371,0,0,0,2.189-5.811,7.528,7.528,0,0,0,8,8,7.528,7.528,0,0,0-8,8" transform="translate(1081.817 1557.491)" fill="#c8c8c8"/><path d="M158.418,125.844a7.527,7.527,0,0,0-8-8,9.381,9.381,0,0,0,5.811-2.189,9.371,9.371,0,0,0,2.189-5.811,7.528,7.528,0,0,0,8,8,7.528,7.528,0,0,0-8,8" transform="translate(1145.817 1581.491)" fill="#d8d8d8"/><path d="M389.4,96.511a11.289,11.289,0,0,0-12-12s5.487-.054,8.718-3.284,3.283-8.716,3.283-8.716a12.458,12.458,0,0,0,3.283,8.716,12.457,12.457,0,0,0,8.716,3.284,11.289,11.289,0,0,0-12,12" transform="translate(758.834 1602.826)" fill="#c8c8c8"/><circle cx="3.956" cy="3.956" r="3.956" transform="translate(1336.234 1747.336)" fill="#ededed"/><g transform="translate(936 1832.626)"><rect width="266.373" height="79.251" rx="8" transform="translate(0 3.433)" fill="#f8b545"/><g transform="translate(0 0)"><g transform="translate(0)"><rect width="266.373" height="79.251" rx="8" fill="#fde47c"/><g transform="translate(30.595 22.358)"><path d="M18.167,0l6.358,10.181,11.808,2.8-7.879,9.094.94,11.913-11.228-4.56L6.939,33.99l.94-11.913L0,12.983l11.808-2.8Z" fill="#ffc22a"/><path d="M18.167,0l6.358,10.181,11.808,2.8-7.879,9.094.94,11.913-11.228-4.56L6.939,33.99l.94-11.913L0,12.983l11.808-2.8Z" transform="translate(42.487)" fill="#ffc22a"/><path d="M18.167,0l6.358,10.181,11.808,2.8-7.879,9.094.94,11.913-11.228-4.56L6.939,33.99l.94-11.913L0,12.983l11.808-2.8Z" transform="translate(84.974)" fill="#ffc22a"/><path d="M18.167,0l6.358,10.181,11.808,2.8-7.879,9.094.94,11.913-11.228-4.56L6.939,33.99l.94-11.913L0,12.983l11.808-2.8Z" transform="translate(127.461)" fill="#ffc22a"/><path d="M18.167,0l6.358,10.181,11.808,2.8-7.879,9.094.94,11.913-11.228-4.56L6.939,33.99l.94-11.913L0,12.983l11.808-2.8Z" transform="translate(169.948)" fill="#ffc22a"/></g></g><path d="M7893.539-2535.5v56.45a11.455,11.455,0,0,1-11.329,11.579H7640.739l164.991-79.609h76.48A11.455,11.455,0,0,1,7893.539-2535.5Z" transform="translate(-7627.139 2547.08)" fill="#faa430" opacity="0.13" style="isolation:isolate"/></g></g></g></g></svg>