<svg xmlns="http://www.w3.org/2000/svg" xmlns:xlink="http://www.w3.org/1999/xlink" width="512" height="340.907" viewBox="0 0 512 340.907"><defs><clipPath id="a"><rect width="512" height="200" transform="translate(5165.903 -5013.681)" fill="none"/></clipPath></defs><g transform="translate(-330 -4967.814)"><g transform="translate(225.271 2702.013)"><path d="M312.517,15.016l-3.933-.746.747-4a1.862,1.862,0,0,0-3.663-.678l-.745,4-4.069-.746a1.862,1.862,0,0,0-.678,3.662l4.069.746-.747,4a1.862,1.862,0,0,0,3.663.678l.745-4,3.933.746a1.862,1.862,0,0,0,.678-3.662" transform="translate(-99.097 2318.625)" fill="#ccd0d9"/><path d="M312.518,15.016l-3.933-.746.747-4a1.863,1.863,0,0,0-3.663-.678l-.745,4-4.069-.746a1.862,1.862,0,1,0-.678,3.662l4.069.746-.747,4a1.863,1.863,0,0,0,3.663.678l.745-4,3.933.746a1.862,1.862,0,0,0,.678-3.662" transform="translate(-139.617 2358.483)" fill="#ccd0d9"/><path d="M308.022,12.762l-2.658-.5.5-2.7a1.259,1.259,0,0,0-2.475-.458l-.5,2.7-2.75-.5a1.259,1.259,0,1,0-.458,2.475l2.75.5-.5,2.7a1.259,1.259,0,0,0,2.475.458l.5-2.7,2.658.5a1.259,1.259,0,0,0,.458-2.475" transform="translate(285.353 2263.925)" fill="#ccd0d9"/><path d="M306.112,11.805,304,11.4l.4-2.153a1,1,0,0,0-1.971-.365l-.4,2.153-2.19-.4a1,1,0,0,0-.365,1.971l2.19.4-.4,2.153a1,1,0,0,0,1.971.365l.4-2.153,2.117.4a1,1,0,0,0,.365-1.971" transform="translate(214.065 2279.183)" fill="#ccd0d9"/><path d="M375.4,79.116a5.9,5.9,0,1,0,5.9,5.9,5.9,5.9,0,0,0-5.9-5.9m0,9.111a3.292,3.292,0,1,1,3.292-3.292,3.317,3.317,0,0,1-3.292,3.292" transform="translate(191.117 2230.697)" fill="#ccd0d9"/><path d="M373.2,79.116a3.7,3.7,0,1,0,3.7,3.7,3.7,3.7,0,0,0-3.7-3.7m0,5.719a2.067,2.067,0,1,1,2.067-2.067,2.082,2.082,0,0,1-2.067,2.067" transform="translate(169.599 2269.588)" fill="#ccd0d9"/><path d="M375.635,79.116a6.135,6.135,0,1,0,6.135,6.135,6.138,6.138,0,0,0-6.135-6.135m0,9.482a3.426,3.426,0,1,1,3.426-3.426,3.452,3.452,0,0,1-3.426,3.426" transform="translate(-241.771 2218.427)" fill="#ccd0d9"/><path d="M374.351,79.116a4.851,4.851,0,1,0,4.851,4.851,4.853,4.853,0,0,0-4.851-4.851m0,7.5a2.709,2.709,0,1,1,2.709-2.709,2.729,2.729,0,0,1-2.709,2.709" transform="translate(-152.552 2198.427)" fill="#ccd0d9"/></g><g transform="translate(-426.7 2797.306)"><rect width="19.7" height="3.4" transform="translate(794.8 2484.716)" fill="#b1b5c4"/><rect width="35.5" height="3.4" transform="translate(842.6 2484.716)" fill="#b1b5c4"/><rect width="68.899" height="3.4" transform="translate(1164.9 2484.716)" fill="#b1b5c4"/><rect width="17.4" height="3.4" transform="translate(765.7 2508.016)" fill="#b1b5c4"/><rect width="17.399" height="3.4" transform="translate(1242.4 2508.016)" fill="#b1b5c4"/></g><g transform="translate(-4835.903 10071.681)"><g clip-path="url(#a)"><path d="M5375.67-4774.679q-20.87-16.816-23.652-48.7l-6.936-79.409q-2.733-31.281,14.915-51.312t50.735-22.92q33.084-2.891,54.092,13.763t23.736,47.936l6.936,79.409q2.785,31.887-15,52.078t-50.874,23.083Q5396.53-4757.862,5375.67-4774.679Zm71.559-32.619q7.247-8.963,6.036-22.807l-7.225-82.718q-1.208-13.831-9.9-21.415t-22.23-6.388q-13.239,1.156-20.484,10.119t-6.036,22.807l7.225,82.718q1.208,13.838,9.9,21.415t21.928,6.414Q5439.98-4798.329,5447.229-4807.3Z" fill="#fff" stroke="#b1b5c4" stroke-miterlimit="3.999" stroke-width="2.999"/><path d="M5328.064-4823.534a75.97,75.97,0,0,1-2.4,28.093,59.677,59.677,0,0,1-21.7,32.659q-16.461,12.8-39.922,14.853-22.861,2-41.115-7.471a60.053,60.053,0,0,1-27.129-27.788,87.1,87.1,0,0,1-5.955-16.149l-.052-.6q-.289-3.306,3.319-3.624l36.4-3.179q3-.263,4.2,2.967a10.536,10.536,0,0,0,1.165,2.929,16.945,16.945,0,0,1,1.087,2.027,25.294,25.294,0,0,0,10.074,11.243,24.1,24.1,0,0,0,14.5,2.977,24.8,24.8,0,0,0,14.346-5.8,26.349,26.349,0,0,0,8.221-13.448q2.475-6.275,1.644-15.9a42.8,42.8,0,0,0-4.073-15.4,20.323,20.323,0,0,0-9.473-11.3,26.07,26.07,0,0,0-15.109-2.923,32.471,32.471,0,0,0-15.295,5.276q-6.877,4.542-8.732,11.068a3.794,3.794,0,0,1-3.649,3.35l-37,3.232a3.477,3.477,0,0,1-2.648-.83,3.467,3.467,0,0,1-1.276-2.464l-10.589-121.22a3.49,3.49,0,0,1,.83-2.648,3.489,3.489,0,0,1,2.464-1.276l124.228-10.851a3.507,3.507,0,0,1,2.648.829,3.507,3.507,0,0,1,1.277,2.465l2.547,29.162a3.5,3.5,0,0,1-.83,2.649,3.487,3.487,0,0,1-2.464,1.276l-83.922,7.331a1.332,1.332,0,0,0-1.4,1.256h0a1.33,1.33,0,0,0,.033.378l3.59,44.547q.185,2.108,1.883.745,12.776-9.9,30.521-11.456,21.049-1.838,37.785,7.459a57.907,57.907,0,0,1,24.971,27.37A97.773,97.773,0,0,1,5328.064-4823.534Z" fill="#ccd0d9" stroke="#b1b5c4" stroke-miterlimit="3.999" stroke-width="2.999"/><path d="M5326.576-4823.374a74.088,74.088,0,0,1-2.369,27.566,58.289,58.289,0,0,1-21.165,31.836c-10.694,8.32-23.856,13.213-39.124,14.547l-.04,0c-14.861,1.3-28.413-1.161-40.272-7.322a58.781,58.781,0,0,1-26.453-27.094,87.775,87.775,0,0,1-5.822-15.75l-.042-.488c-.1-1.175.18-1.843,1.953-2l16.1-1.407c3.843,10.664,10.965,25.346,27.959,34.681,7.359,4.044,17.491,5.838,27.81,4.937,20.7-1.808,37.206-16.748,42.065-38.078a60.318,60.318,0,0,0-8.279-45.482c-6.995-10.469-16.823-17.047-28.437-19.023a55.186,55.186,0,0,0-45.05,13.228c-5.709,5.185-10.557,7.707-16.122,8.343l-8.135-93.136,107.01-9.347,1.245,14.243a2.11,2.11,0,0,1-.508,1.549,2.061,2.061,0,0,1-1.431.728l-83.843,7.323a3.085,3.085,0,0,0-.675.079,2.835,2.835,0,0,0-1.766,1.269,2.818,2.818,0,0,0-.367,2.009l3.582,44.448a2.679,2.679,0,0,0,1.45,2.482,2.7,2.7,0,0,0,2.841-.679c8.243-6.391,18.242-10.144,29.726-11.148h.01c13.666-1.184,26.094,1.263,36.927,7.282a56.657,56.657,0,0,1,24.316,26.649A95.917,95.917,0,0,1,5326.576-4823.374Z" fill="#ccd0d9"/><path d="M5658.862-4853.213a82.11,82.11,0,0,1-2.787,30.552,59.656,59.656,0,0,1-21.587,32.194q-16.05,12.313-39.209,14.336-22.861,2-41.154-7.923a63.766,63.766,0,0,1-27.522-28.814,85.871,85.871,0,0,1-7.02-24.846q-.315-3.609,3.295-3.924l35.493-3.1q3.609-.316,3.925,3.295,2.061,9.82,4.6,14.451a24.145,24.145,0,0,0,9.938,11.407,24.678,24.678,0,0,0,14.969,3.087q16.842-1.47,21.874-16.764a49.53,49.53,0,0,0,2.371-21.423q-1.234-14.134-6.535-22.766-8.157-13.53-24.4-12.115a14.58,14.58,0,0,0-6.746,2.56,91.217,91.217,0,0,0-8.238,6.326,4.029,4.029,0,0,1-2.328,1.113,2.9,2.9,0,0,1-2.864-1.569l-19.928-23.415a3.709,3.709,0,0,1-.781-2.053,4.1,4.1,0,0,1,.94-3.113l44.174-45.988a1.258,1.258,0,0,0,.346-1.243c-.134-.389-.5-.558-1.1-.5l-70.686,6.174a3.476,3.476,0,0,1-2.649-.829,3.474,3.474,0,0,1-1.275-2.465l-2.549-29.177a3.492,3.492,0,0,1,.829-2.648,3.489,3.489,0,0,1,2.465-1.276l125.43-10.957a3.507,3.507,0,0,1,2.649.83,3.5,3.5,0,0,1,1.276,2.464l2.89,33.087a6.343,6.343,0,0,1-1.712,4.7L5609-4914.02a1.241,1.241,0,0,0-.347,1.243c.134.4.6.549,1.406.479q26.615,2.832,40,27.724Q5657.285-4871.258,5658.862-4853.213Z" fill="#ccd0d9" stroke="#b1b5c4" stroke-miterlimit="3.999" stroke-width="2.999"/><ellipse cx="28.218" cy="5.999" rx="28.218" ry="5.999" transform="translate(5385.87 -4955.431) rotate(-12.007)" fill="#ccd0d9"/></g><rect width="119.057" height="3.399" transform="translate(5165.903 -4817.08)" fill="#b1b5c4"/><rect width="25.332" height="3.399" transform="translate(5327.709 -4817.08)" fill="#b1b5c4"/><rect width="54.796" height="3.399" transform="translate(5396.911 -4817.072)" fill="#b1b5c4"/><rect width="31.313" height="3.399" transform="translate(5494.201 -4817.072)" fill="#b1b5c4"/><rect width="23.96" height="3.399" transform="translate(5653.943 -4817.072)" fill="#b1b5c4"/></g><g transform="translate(-1100.354 1948.463) rotate(-3)"><g transform="translate(-7534.713 5895.095)"><path d="M9070.91-2715.65l.189-9.09s15.04-13.53,14.66-14.47l-5.569-14.1c-.41-.97-20.771-.83-20.771-.83l-6.37-6.62s.771-20.21-.18-20.63l-14.01-6.29c-.99-.45-15.021,13.93-15.021,13.93l-9.2-.36s-13.989-15.07-14.92-14.7l-14.27,5.29c-.96.35-.5,20.42-.5,20.42l-6.65,6.23s-20.49-1.1-20.91-.19l-6.149,13.73c-.431.97,14.34,15.05,14.34,15.05l-.19,9.04s-15.04,13.56-14.67,14.51l5.57,14.11c.42.95,20.77.8,20.77.8l6.36,6.65s-.74,20.2.21,20.63l14.01,6.26c.96.44,15.021-13.86,15.021-13.86l9.22.31s13.94,15.06,14.92,14.73l14.24-5.29c.979-.35.51-20.46.51-20.46l6.641-6.17s20.489,1.05,20.92.14l6.149-13.74C9085.64-2701.55,9070.91-2715.65,9070.91-2715.65Zm-30.7,5.76a7.006,7.006,0,0,1,0,9.9,6.974,6.974,0,0,1-4.95,2.05,6.974,6.974,0,0,1-4.95-2.05l-12.069-12.07-12.07,12.07a6.958,6.958,0,0,1-4.95,2.05,6.974,6.974,0,0,1-4.95-2.05,7.008,7.008,0,0,1,0-9.9l12.07-12.06-12.07-12.07a7.008,7.008,0,0,1,0-9.9,6.99,6.99,0,0,1,9.9,0l12.07,12.07,12.069-12.07a6.99,6.99,0,0,1,9.9,0,7.006,7.006,0,0,1,0,9.9l-12.07,12.07Z" fill="#ccd0d9" stroke="#b1b5c4" stroke-width="3"/><g transform="translate(-150.264 426.415)"><path d="M9320-3143.7l-1.7,6.23s7.74,12.26,7.32,12.84l-6.61,8.42c-.45.55-14.4-3.7-14.4-3.7l-5.641,3.11s-3.13,13.96-3.87,14.03l-10.729,1.2c-.74.06-7.76-12.73-7.76-12.73l-6.311-1.79s-12.149,7.44-12.74,6.97l-8.59-6.73c-.58-.45,3.41-14.26,3.41-14.26l-3.25-5.68s-14.06-3.4-14.18-4.12l-1.42-10.69c-.09-.72,12.609-7.49,12.609-7.49l1.69-6.2s-7.771-12.26-7.3-12.85l6.6-8.41c.45-.56,14.39,3.72,14.39,3.72l5.66-3.15s3.13-13.92,3.851-14l10.76-1.19c.7-.1,7.76,12.7,7.76,12.7l6.28,1.83s12.15-7.5,12.76-7.02l8.58,6.75c.58.45-3.43,14.26-3.43,14.26l3.26,5.66s14.07,3.41,14.18,4.14l1.42,10.69C9332.7-3150.45,9320-3143.7,9320-3143.7Z" transform="translate(0.5 0.5)" fill="#fff" stroke="#b1b5c4" stroke-width="3"/><circle cx="19" cy="19" r="19" transform="translate(9263.524 -3168.789)" fill="#fff" stroke="#b1b5c4" stroke-width="3"/></g></g></g></g></svg>