<svg xmlns="http://www.w3.org/2000/svg" xmlns:xlink="http://www.w3.org/1999/xlink" width="512" height="374.825" viewBox="0 0 512 374.825"><defs><clipPath id="a"><rect width="512" height="186.148" transform="translate(3878.302 -1373.619)" fill="none"/></clipPath></defs><g transform="translate(-863 -3044.175)"><g transform="translate(115 907.584)"><rect width="23.9" height="3.399" transform="translate(1236.1 2457.416)" fill="#b1b5c4"/><rect width="20.1" height="3.399" transform="translate(748 2457.416)" fill="#b1b5c4"/><rect width="19.7" height="3.4" transform="translate(794.8 2484.716)" fill="#b1b5c4"/><rect width="35.5" height="3.4" transform="translate(842.6 2484.716)" fill="#b1b5c4"/><rect width="15.899" height="3.4" transform="translate(1129.9 2484.716)" fill="#b1b5c4"/><rect width="68.899" height="3.4" transform="translate(1164.9 2484.716)" fill="#b1b5c4"/><rect width="17.4" height="3.4" transform="translate(765.7 2508.016)" fill="#b1b5c4"/><rect width="17.399" height="3.4" transform="translate(1242.4 2508.016)" fill="#b1b5c4"/></g><g transform="translate(24)"><g transform="translate(-3039.302 4527.619)"><g clip-path="url(#a)"><path d="M4044.727-1202.045a3.509,3.509,0,0,1,1.276,2.464l2.654,30.378a3.491,3.491,0,0,1-.83,2.649,3.488,3.488,0,0,1-2.465,1.276l-12.933,1.13a1.334,1.334,0,0,0-1.405,1.259,1.335,1.335,0,0,0,.033.376l4.283,49.029a3.5,3.5,0,0,1-.831,2.649,3.488,3.488,0,0,1-2.463,1.276l-35.193,3.074a3.479,3.479,0,0,1-2.65-.83,3.471,3.471,0,0,1-1.275-2.464l-4.283-49.029a1.335,1.335,0,0,0-1.262-1.406,1.309,1.309,0,0,0-.374.033l-92.343,8.066a3.473,3.473,0,0,1-2.648-.829,3.478,3.478,0,0,1-1.277-2.465l-2.1-24.063a14.917,14.917,0,0,1,.508-4.591l43.529-126.247a4.268,4.268,0,0,1,3.974-3.075l37.6-3.284a3.326,3.326,0,0,1,2.949.8c.56.662.6,1.718.126,3.171l-40.38,117.185a1.277,1.277,0,0,0,.1,1.2.958.958,0,0,0,.956.519l45.717-3.993a1.335,1.335,0,0,0,1.406-1.259,1.323,1.323,0,0,0-.033-.377l-3.258-37.3a3.494,3.494,0,0,1,.829-2.649,3.5,3.5,0,0,1,2.466-1.276l35.192-3.074a3.507,3.507,0,0,1,2.648.83,3.51,3.51,0,0,1,1.277,2.464l3.258,37.3a1.331,1.331,0,0,0,1.253,1.405,1.322,1.322,0,0,0,.381-.033l12.934-1.13A3.506,3.506,0,0,1,4044.727-1202.045Z" fill="#ccd0d9" stroke="#b1b5c4" stroke-miterlimit="3.999" stroke-width="2.999"/><path d="M4099.6-1130.764q-20.87-16.816-23.652-48.7l-6.937-79.409q-2.733-31.28,14.916-51.312t50.735-22.92q33.084-2.891,54.092,13.763t23.736,47.936l6.937,79.409q2.785,31.889-15,52.078t-50.874,23.083Q4120.459-1113.945,4099.6-1130.764Zm71.559-32.619q7.247-8.962,6.037-22.807l-7.226-82.718q-1.208-13.832-9.9-21.415t-22.23-6.388q-13.239,1.155-20.484,10.119t-6.036,22.807l7.225,82.718q1.209,13.839,9.9,21.415t21.928,6.415q13.533-1.177,20.782-10.146Z" fill="#fff" stroke="#b1b5c4" stroke-miterlimit="3.999" stroke-width="2.999"/><path d="M4385.2-1202.539q1.576,18.046-4.813,31.638a57.052,57.052,0,0,1-21.8,26.3q-15.319,10.28-37.571,12.222-21.059,1.84-38.648-5.262a56.735,56.735,0,0,1-27.435-22.608,67.369,67.369,0,0,1-9.925-30.351,71,71,0,0,1,4.212-31.586,42.915,42.915,0,0,1,13.542-18.459q1.117-1.007-.184-2.1a46.3,46.3,0,0,1-13.594-13.365,53.472,53.472,0,0,1-9.283-26.467q-1.866-21.352,8.879-37.146a57.536,57.536,0,0,1,21.717-20.234,79.243,79.243,0,0,1,31.77-9.291q18.344-1.6,33.064,3.78a60.631,60.631,0,0,1,24.437,16.051,57.8,57.8,0,0,1,15.184,35.044,51.318,51.318,0,0,1-5.377,28.656,52.071,52.071,0,0,1-11.176,14.313q-1.1,1.311.184,2.1a43.766,43.766,0,0,1,17.188,16.381A68.607,68.607,0,0,1,4385.2-1202.539Zm-43.054-.18q-.972-11.124-5.84-18.281-7.722-12.055-24.264-10.61-15.644,1.367-21.182,14.276-3.853,7.917-2.8,19.946,1.024,11.73,6.821,19.1,7.915,10.83,22.957,9.512,14.44-1.262,20.436-12.393,5-8.619,3.876-21.553Zm-60.205-82.03a31.309,31.309,0,0,0,5.276,15.3q7.862,10.224,22.3,8.963t21.012-12.745a30.932,30.932,0,0,0,2.517-16.283,28.068,28.068,0,0,0-4.111-12.371,22.337,22.337,0,0,0-9.852-8.687,28.025,28.025,0,0,0-14.439-2.224,25.423,25.423,0,0,0-12.783,4.6,22.18,22.18,0,0,0-8.019,10.551,27.994,27.994,0,0,0-1.9,12.9Z" fill="#ccd0d9" stroke="#b1b5c4" stroke-miterlimit="3.999" stroke-width="2.999"/></g><rect width="12.519" height="3.4" transform="translate(3878.302 -1190.619)" fill="#b1b5c4"/><rect width="28.503" height="3.4" transform="translate(4046.935 -1190.619)" fill="#b1b5c4"/><rect width="59.186" height="3.4" transform="translate(4117.773 -1190.619)" fill="#b1b5c4"/><rect width="23.881" height="3.4" transform="translate(4221.128 -1190.619)" fill="#b1b5c4"/><rect width="50.519" height="3.4" transform="translate(4290.806 -1190.619)" fill="#b1b5c4"/><rect width="5.112" height="3.4" transform="translate(4385.19 -1190.619)" fill="#b1b5c4"/></g><g transform="translate(-37.531 126)"><ellipse cx="24.342" cy="5.836" rx="24.342" ry="5.836" transform="translate(1107.257 3086.016) rotate(-7)" fill="#ccd0d9"/><g transform="matrix(0.995, -0.105, 0.105, 0.995, -2529.044, 4465.647)"><circle cx="74.5" cy="74.5" r="74.5" transform="translate(3704.008 -1149.371)" fill="#ccd0d9" stroke="#b1b5c4" stroke-width="3"/><circle cx="60.5" cy="60.5" r="60.5" transform="translate(3718.008 -1135.371)" fill="#fff" stroke="#b1b5c4" stroke-width="3"/><path d="M3778.555-1126.467v7.123" fill="none" stroke="#b1b5c4" stroke-linecap="round" stroke-width="3"/><path d="M3778.555-1030.305v7.123" fill="none" stroke="#b1b5c4" stroke-linecap="round" stroke-width="3"/><path d="M3830.2-1074.824h-7.124" fill="none" stroke="#b1b5c4" stroke-linecap="round" stroke-width="3"/><path d="M3734.035-1074.824h-7.124" fill="none" stroke="#b1b5c4" stroke-linecap="round" stroke-width="3"/><path d="M3778.022-1068.871a5.982,5.982,0,0,1-4.242-1.757l-16.014-16.014a6,6,0,0,1,0-8.485,6,6,0,0,1,8.485,0l11.772,11.771,21.782-21.783a6,6,0,0,1,8.485,0,6,6,0,0,1,0,8.485l-26.024,26.026A5.987,5.987,0,0,1,3778.022-1068.871Z" fill="#ccd0d9" stroke="#b1b5c4" stroke-width="3"/><g transform="matrix(0.995, 0.105, -0.105, 0.995, -75.594, -415.511)"><circle cx="28.5" cy="28.5" r="28.5" transform="translate(3807.508 -1057.871)" fill="#fff" stroke="#b1b5c4" stroke-width="3"/><path d="M3836.008-1044.371v19.758" fill="none" stroke="#b1b5c4" stroke-linecap="round" stroke-width="6"/><path d="M3836.008-1016.011v.151" fill="none" stroke="#b1b5c4" stroke-linecap="round" stroke-width="6"/></g></g></g></g><g transform="translate(208.046 851.175)"><path d="M309.257,13.382l-3.009-.571.571-3.061a1.425,1.425,0,0,0-2.8-.519l-.57,3.061-3.112-.571a1.424,1.424,0,1,0-.519,2.8l3.113.571-.571,3.061a1.425,1.425,0,0,0,2.8.519l.57-3.061,3.009.571a1.424,1.424,0,0,0,.519-2.8" transform="translate(804.581 2272.158)" fill="#ccd0d9"/><path d="M306.816,12.158l-2.316-.439.44-2.356a1.1,1.1,0,0,0-2.157-.4l-.439,2.356-2.4-.439a1.1,1.1,0,1,0-.4,2.157l2.4.439-.44,2.356a1.1,1.1,0,0,0,2.157.4l.439-2.356,2.316.439a1.1,1.1,0,0,0,.4-2.157" transform="translate(706.905 2217.228)" fill="#ccd0d9"/><path d="M13.247,6.641,9.49,5.928,10.2,2.107a1.779,1.779,0,0,0-3.5-.648L5.993,5.281,2.107,4.568a1.778,1.778,0,1,0-.648,3.5l3.886.712L4.632,12.6a1.779,1.779,0,0,0,3.5.648l.712-3.821,3.757.712a1.778,1.778,0,0,0,.648-3.5" transform="translate(655.955 2337.353) rotate(-30)" fill="#ccd0d9"/><path d="M10.792,5.41l-3.06-.58.581-3.113a1.449,1.449,0,0,0-2.85-.528L4.883,4.3l-3.166-.58a1.449,1.449,0,1,0-.528,2.849l3.166.58-.581,3.113a1.449,1.449,0,0,0,2.85.528L7.2,7.679l3.06.58a1.449,1.449,0,0,0,.528-2.849" transform="translate(798.353 2368.921) rotate(-45)" fill="#ccd0d9"/><path d="M10.792,5.41l-3.06-.58.581-3.113a1.449,1.449,0,0,0-2.85-.528L4.883,4.3l-3.166-.58a1.449,1.449,0,1,0-.528,2.849l3.166.58-.581,3.113a1.449,1.449,0,0,0,2.85.528L7.2,7.679l3.06.58a1.449,1.449,0,0,0,.528-2.849" transform="translate(669.045 2259.042) rotate(-45)" fill="#ccd0d9"/><path d="M375.389,79.116a5.889,5.889,0,1,0,5.889,5.889,5.892,5.892,0,0,0-5.889-5.889m0,9.1a3.289,3.289,0,1,1,3.289-3.289,3.313,3.313,0,0,1-3.289,3.289" transform="translate(393.1 2138.931)" fill="#ccd0d9"/><path d="M375.389,79.116a5.889,5.889,0,1,0,5.889,5.889,5.892,5.892,0,0,0-5.889-5.889m0,9.1a3.289,3.289,0,1,1,3.289-3.289,3.313,3.313,0,0,1-3.289,3.289" transform="translate(360.1 2200.995)" fill="#ccd0d9"/><path d="M372.5,79.116a3,3,0,1,0,3,3,3,3,0,0,0-3-3m0,4.636a1.675,1.675,0,1,1,1.675-1.675,1.688,1.688,0,0,1-1.675,1.675" transform="translate(658.434 2206.884)" fill="#ccd0d9"/><path d="M375.389,79.116a5.889,5.889,0,1,0,5.889,5.889,5.892,5.892,0,0,0-5.889-5.889m0,9.1a3.289,3.289,0,1,1,3.289-3.289,3.313,3.313,0,0,1-3.289,3.289" transform="translate(733.728 2138.93)" fill="#ccd0d9"/></g></g></svg>