<svg xmlns="http://www.w3.org/2000/svg" xmlns:xlink="http://www.w3.org/1999/xlink" width="512" height="343.645" viewBox="0 0 512 343.645"><defs><clipPath id="a"><rect width="512" height="200" transform="translate(5580.064 -4213.299)" fill="none"/></clipPath></defs><g transform="translate(-642 -3347.996)"><g transform="translate(-4938.064 7654.299)"><g clip-path="url(#a)"><g transform="translate(-2.63)"><path d="M5743.8-4045.265a3.507,3.507,0,0,1,1.275,2.465l2.654,30.378a3.486,3.486,0,0,1-.829,2.648,3.487,3.487,0,0,1-2.465,1.276l-12.933,1.13a1.333,1.333,0,0,0-1.4,1.257h0a1.321,1.321,0,0,0,.033.377l4.283,49.029a3.5,3.5,0,0,1-.831,2.649,3.483,3.483,0,0,1-2.463,1.276l-35.193,3.074a3.467,3.467,0,0,1-2.648-.829A3.476,3.476,0,0,1,5692-3953l-4.282-49.029a1.336,1.336,0,0,0-1.263-1.405h0a1.347,1.347,0,0,0-.374.032l-92.343,8.067a3.481,3.481,0,0,1-2.648-.83,3.475,3.475,0,0,1-1.277-2.464l-2.1-24.064a14.881,14.881,0,0,1,.51-4.591l43.528-126.249a4.27,4.27,0,0,1,3.973-3.075l37.6-3.284a3.33,3.33,0,0,1,2.951.8c.559.662.6,1.718.124,3.171l-40.378,117.185a1.272,1.272,0,0,0,.1,1.2.955.955,0,0,0,.954.519l45.717-3.993a1.336,1.336,0,0,0,1.407-1.257,1.355,1.355,0,0,0-.033-.379l-3.258-37.3a3.483,3.483,0,0,1,.83-2.648,3.49,3.49,0,0,1,2.465-1.276l35.192-3.074a3.511,3.511,0,0,1,2.648.829,3.5,3.5,0,0,1,1.277,2.465l3.258,37.3a1.333,1.333,0,0,0,1.253,1.406,1.323,1.323,0,0,0,.382-.034l12.932-1.129A3.51,3.51,0,0,1,5743.8-4045.265Z" fill="#ccd0d9" stroke="#b1b5c4" stroke-miterlimit="3.999" stroke-width="2.999"/><path d="M5743.583-4042.669l2.657,30.408a2.03,2.03,0,0,1-.508,1.55,2.059,2.059,0,0,1-1.421.726l-12.849,1.122a3.23,3.23,0,0,0-.686.07,2.878,2.878,0,0,0-1.766,1.269,2.87,2.87,0,0,0-.366,2.019l4.277,48.963a2.031,2.031,0,0,1-.507,1.55,2.061,2.061,0,0,1-1.422.726l-17.6,1.538-5.682-65.056a5.031,5.031,0,0,0-5.45-4.574h0l-90.131,7.873a4.143,4.143,0,0,1-4.491-3.764,4.116,4.116,0,0,1,.2-1.69l46.17-136.752,19.438-1.7.179-.026a1.843,1.843,0,0,1,1.526.349,2.516,2.516,0,0,1-.176,1.661l-40.369,117.143a2.826,2.826,0,0,0,.207,2.481,2.548,2.548,0,0,0,2.389,1.277l45.637-3.986a2.523,2.523,0,0,0,.665-.079,2.78,2.78,0,0,0,1.767-1.258,2.817,2.817,0,0,0,.386-2.021l-3.253-37.24a2.06,2.06,0,0,1,.5-1.549,2.091,2.091,0,0,1,1.432-.727l35.218-3.077a1.981,1.981,0,0,1,1.54.508,1.982,1.982,0,0,1,.737,1.431l3.251,37.211a2.659,2.659,0,0,0,.069.686,2.853,2.853,0,0,0,3.278,2.132l12.918-1.128a2.039,2.039,0,0,1,1.477.473l.022.028A1.98,1.98,0,0,1,5743.583-4042.669Z" fill="#ccd0d9"/><path d="M5702.369-4126.367" fill="none" stroke="#000" stroke-miterlimit="9.998" stroke-width="1"/><path d="M5602.4-4122.193" fill="none" stroke="#000" stroke-miterlimit="9.998" stroke-width="1"/><path d="M5798.7-3973.6q-20.87-16.818-23.652-48.7l-6.936-79.409q-2.731-31.281,14.916-51.313t50.735-22.92q33.085-2.889,54.092,13.764t23.737,47.936l6.936,79.406q2.785,31.884-15,52.077t-50.874,23.083Q5819.563-3956.779,5798.7-3973.6Zm71.56-32.619q7.245-8.964,6.036-22.808l-7.225-82.716q-1.207-13.833-9.9-21.416t-22.231-6.393q-13.237,1.156-20.483,10.124t-6.037,22.808l7.226,82.716q1.208,13.845,9.9,21.416t21.928,6.414q13.539-1.179,20.785-10.145Z" fill="#fff" stroke="#b1b5c4" stroke-miterlimit="3.999" stroke-width="2.999"/><path d="M5970.144-3988.572q-20.868-16.816-23.651-48.7l-6.937-79.409q-2.732-31.28,14.916-51.312t50.735-22.92q33.084-2.89,54.092,13.763t23.736,47.936l6.936,79.406q2.785,31.886-15,52.078t-50.873,23.082Q5991.01-3971.755,5970.144-3988.572Zm71.559-32.619q7.247-8.963,6.037-22.807l-7.226-82.717q-1.208-13.832-9.9-21.415t-22.229-6.393q-13.241,1.156-20.483,10.124t-6.037,22.807l7.225,82.717q1.211,13.844,9.9,21.415t21.928,6.415q13.54-1.179,20.789-10.146Z" fill="#ccd0d9" stroke="#b1b5c4" stroke-miterlimit="3.999" stroke-width="2.999"/></g></g><rect width="6.04" height="3.4" transform="translate(5581.064 -4016.699)" fill="#b1b5c4"/><rect width="28.439" height="3.4" transform="translate(5744.516 -4016.699)" fill="#b1b5c4"/><rect width="55.951" height="3.4" transform="translate(5816.032 -4016.699)" fill="#b1b5c4"/><rect width="8.484" height="3.4" transform="translate(6083.581 -4016.699)" fill="#b1b5c4"/><rect width="34" height="3.4" transform="translate(5914.452 -4016.699)" fill="#b1b5c4"/><path d="M6035.839-4016.7h-34.194l1.1,3.4h30.774Z" transform="translate(-2)" fill="#b1b5c4"/></g><g transform="translate(-113.7 1180.225)"><rect width="19.7" height="3.4" transform="translate(794.8 2484.716)" fill="#b1b5c4"/><rect width="35.5" height="3.4" transform="translate(842.6 2484.716)" fill="#b1b5c4"/><rect width="68.899" height="3.4" transform="translate(1164.9 2484.716)" fill="#b1b5c4"/><rect width="17.4" height="3.4" transform="translate(765.7 2508.016)" fill="#b1b5c4"/><rect width="17.399" height="3.4" transform="translate(1242.4 2508.016)" fill="#b1b5c4"/></g><g transform="matrix(0.996, -0.087, 0.087, 0.996, -914.471, 186.998)"><g transform="translate(1445 3311)"><path d="M5872.061-5382.811l.462-.263v72.912a13.344,13.344,0,0,1-13.345,13.345H5753.072a13.352,13.352,0,0,1-13.354-13.345v-72.912l19.922-13.961v25.846l46.476,27.888,46.484-27.815v-25.973l19.922,13.953Z" transform="translate(-5739.718 5429.495)" fill="#ccd0d9" stroke="#b1b5c4" stroke-linecap="round" stroke-linejoin="round" stroke-width="3"/><path d="M5854.639-5432.81v58.378l-46.485,27.815-46.476-27.888v-58.306Z" transform="translate(-5741.756 5432.81)" fill="#fff" stroke="#b1b5c4" stroke-width="3"/><g transform="translate(-5016.372 2618.211) rotate(-1)"><path d="M5150.1-2490.415a22.245,22.245,0,0,1-22.25,22.25,22.249,22.249,0,0,1-22.249-22.25,22.263,22.263,0,0,1,22.249-22.25,22.194,22.194,0,0,1,15.728,6.522A22.178,22.178,0,0,1,5150.1-2490.415Z" fill="#ccd0d9" stroke="#b1b5c4" stroke-linecap="round" stroke-linejoin="round" stroke-width="3"/><g transform="translate(5116.255 -2501.745)"><path d="M5124.49-2496.025v.016a2.567,2.567,0,0,1-2.567,2.574h-.007a2.584,2.584,0,0,1-2.576-2.574,2.584,2.584,0,0,1,.753-1.823,2.6,2.6,0,0,1,1.823-.752A2.57,2.57,0,0,1,5124.49-2496.025Z" transform="translate(-5119.34 2498.584)" fill="#b1b5c4"/><path d="M5147.738-2496.009a2.581,2.581,0,0,1-.753,1.822,2.562,2.562,0,0,1-1.821.752,2.58,2.58,0,0,1-2.576-2.574h-.007v-.008a2.574,2.574,0,0,1,2.567-2.567h.016A2.569,2.569,0,0,1,5147.738-2496.009Z" transform="translate(-5124.557 2498.584)" fill="#b1b5c4"/><path d="M5140.884-2472.313h-.009a2.068,2.068,0,0,1-2.846-.636c-.022-.039-2.589-3.986-6.91-3.986s-6.887,3.948-6.918,3.986a2.057,2.057,0,0,1-2.837.644c0-.008,0-.008-.009-.008a2.074,2.074,0,0,1-.628-2.847c.156-.24,3.824-5.894,10.392-5.894s10.238,5.653,10.393,5.894h-.009A2.056,2.056,0,0,1,5140.884-2472.313Z" transform="translate(-5119.58 2494.649)" fill="#b1b5c4"/></g></g></g><path d="M2890-8597l66.831,39.917L3022.754-8597" transform="translate(-1445 11954.268)" fill="none" stroke="#b1b5c4" stroke-width="3"/></g><ellipse cx="28" cy="6" rx="28" ry="6" transform="translate(866.724 3496.474) rotate(-3)" fill="#ccd0d9"/><g transform="translate(532.271 1083.342)"><path d="M312.517,15.016l-3.933-.746.747-4a1.862,1.862,0,0,0-3.663-.678l-.745,4-4.069-.746a1.862,1.862,0,0,0-.678,3.662l4.069.746-.747,4a1.862,1.862,0,0,0,3.663.678l.745-4,3.933.746a1.862,1.862,0,0,0,.678-3.662" transform="translate(-53.11 2301.75)" fill="#ccd0d9"/><path d="M305.584,11.54l-1.967-.373.373-2a.931.931,0,0,0-1.832-.339l-.373,2-2.035-.373a.931.931,0,0,0-.339,1.831l2.035.373-.373,2a.931.931,0,0,0,1.832.339l.373-2,1.967.373a.931.931,0,0,0,.339-1.831" transform="translate(-126.547 2294.049)" fill="#ccd0d9"/><path d="M308.022,12.762l-2.658-.5.5-2.7a1.259,1.259,0,0,0-2.475-.458l-.5,2.7-2.75-.5a1.259,1.259,0,1,0-.458,2.475l2.75.5-.5,2.7a1.259,1.259,0,0,0,2.475.458l.5-2.7,2.658.5a1.259,1.259,0,0,0,.458-2.475" transform="translate(207.675 2298.935)" fill="#ccd0d9"/><path d="M306.112,11.805,304,11.4l.4-2.153a1,1,0,0,0-1.971-.365l-.4,2.153-2.19-.4a1,1,0,0,0-.365,1.971l2.19.4-.4,2.153a1,1,0,0,0,1.971.365l.4-2.153,2.117.4a1,1,0,0,0,.365-1.971" transform="translate(158.438 2269.128)" fill="#ccd0d9"/><path d="M375.4,79.116a5.9,5.9,0,1,0,5.9,5.9,5.9,5.9,0,0,0-5.9-5.9m0,9.111a3.292,3.292,0,1,1,3.292-3.292,3.317,3.317,0,0,1-3.292,3.292" transform="translate(91.729 2268.498)" fill="#ccd0d9"/><path d="M373.2,79.116a3.7,3.7,0,1,0,3.7,3.7,3.7,3.7,0,0,0-3.7-3.7m0,5.719a2.067,2.067,0,1,1,2.067-2.067,2.082,2.082,0,0,1-2.067,2.067" transform="translate(212.921 2250.288)" fill="#ccd0d9"/><path d="M373.333,79.116a3.833,3.833,0,1,0,3.833,3.833,3.835,3.835,0,0,0-3.833-3.833m0,5.924a2.141,2.141,0,1,1,2.141-2.141,2.157,2.157,0,0,1-2.141,2.141" transform="translate(-234.771 2258.96)" fill="#ccd0d9"/><path d="M373.733,79.116a4.233,4.233,0,1,0,4.233,4.233,4.234,4.234,0,0,0-4.233-4.233m0,6.541a2.364,2.364,0,1,1,2.364-2.364,2.381,2.381,0,0,1-2.364,2.364" transform="translate(-132.428 2294.965)" fill="#ccd0d9"/></g></g></svg>