<svg xmlns="http://www.w3.org/2000/svg" xmlns:xlink="http://www.w3.org/1999/xlink" width="512" height="350.134" viewBox="0 0 512 350.134"><defs><clipPath id="a"><rect width="512" height="186.148" transform="translate(5212.903 -2312.745)" fill="none"/></clipPath></defs><g transform="translate(-5212.903 2400.734)"><rect width="23.248" height="3.306" transform="translate(5694.49 -2103.127)" fill="#b1b5c4"/><rect width="19.551" height="3.306" transform="translate(5219.712 -2103.127)" fill="#b1b5c4"/><rect width="19.162" height="3.307" transform="translate(5265.235 -2076.572)" fill="#b1b5c4"/><rect width="34.531" height="3.307" transform="translate(5311.73 -2076.572)" fill="#b1b5c4"/><rect width="15.465" height="3.307" transform="translate(5591.188 -2076.572)" fill="#b1b5c4"/><rect width="67.018" height="3.307" transform="translate(5625.233 -2076.572)" fill="#b1b5c4"/><rect width="16.925" height="3.307" transform="translate(5236.929 -2053.908)" fill="#b1b5c4"/><rect width="16.924" height="3.307" transform="translate(5700.618 -2053.908)" fill="#b1b5c4"/><path d="M5597.946-2393.822l-3.193-.6.606-3.247a1.511,1.511,0,0,0-1.218-1.756,1.51,1.51,0,0,0-1.754,1.206l-.6,3.247-3.3-.6a1.512,1.512,0,0,0-1.792,1.165,1.512,1.512,0,0,0,1.166,1.792c.025.006.05.01.076.014l3.3.6-.606,3.247a1.513,1.513,0,0,0,1.219,1.757,1.513,1.513,0,0,0,1.754-1.206l.6-3.247,3.192.6a1.511,1.511,0,0,0,1.73-1.256,1.512,1.512,0,0,0-1.179-1.716" fill="#ccd0d9"/><path d="M5671.819-2361.435l-3.023-.573.574-3.076a1.432,1.432,0,0,0-1.238-1.6,1.432,1.432,0,0,0-1.574,1.081l-.573,3.075-3.127-.573a1.431,1.431,0,0,0-1.694,1.109,1.431,1.431,0,0,0,1.108,1.694c.022.005.043.009.065.012l3.127.573-.574,3.076a1.432,1.432,0,0,0,1.185,1.642,1.432,1.432,0,0,0,1.63-1.121l.573-3.075,3.023.573a1.432,1.432,0,0,0,1.642-1.186,1.431,1.431,0,0,0-1.12-1.629" fill="#ccd0d9"/><path d="M5523.046-2367.478l-3.654-.692.694-3.717a1.732,1.732,0,0,0-1.388-2.018,1.731,1.731,0,0,0-2.017,1.388l-.692,3.716-3.78-.692a1.732,1.732,0,0,0-2.018,1.387,1.731,1.731,0,0,0,1.387,2.017l3.78.693-.693,3.716a1.731,1.731,0,0,0,1.387,2.018,1.73,1.73,0,0,0,2.017-1.387h0l.693-3.717,3.654.693a1.733,1.733,0,0,0,2.018-1.387,1.732,1.732,0,0,0-1.388-2.018" fill="#ccd0d9"/><path d="M5447.914-2337.608l-3.655-.693.694-3.716a1.732,1.732,0,0,0-1.387-2.018,1.732,1.732,0,0,0-2.018,1.387l-.692,3.717-3.78-.692a1.731,1.731,0,0,0-2.018,1.387,1.73,1.73,0,0,0,1.388,2.017l3.779.693-.693,3.716a1.732,1.732,0,0,0,1.387,2.018,1.731,1.731,0,0,0,2.017-1.387h0l.693-3.717,3.654.692a1.731,1.731,0,0,0,2.018-1.387,1.73,1.73,0,0,0-1.387-2.017" fill="#ccd0d9"/><path d="M5232.157-2296.973l-3.512,1.227-1.26-3.564a1.732,1.732,0,0,0-2.21-1.054,1.732,1.732,0,0,0-1.054,2.21l1.264,3.564-3.621,1.289a1.73,1.73,0,0,0-1.053,2.21,1.731,1.731,0,0,0,2.21,1.054l3.619-1.291,1.258,3.565a1.732,1.732,0,0,0,2.21,1.054,1.731,1.731,0,0,0,1.053-2.21h0l-1.258-3.565,3.511-1.228a1.731,1.731,0,0,0,1.053-2.21,1.73,1.73,0,0,0-2.21-1.053" fill="#ccd0d9"/><path d="M5353.937-2235.982l-2.5,1.7-1.742-2.54a1.409,1.409,0,0,0-1.96-.364,1.41,1.41,0,0,0-.363,1.961l1.741,2.538-2.577,1.779a1.41,1.41,0,0,0-.4,1.953,1.41,1.41,0,0,0,1.953.4l.042-.029,2.577-1.779,1.741,2.541a1.412,1.412,0,0,0,1.961.363,1.41,1.41,0,0,0,.363-1.96h0l-1.744-2.536,2.5-1.706a1.409,1.409,0,0,0,.327-1.966,1.409,1.409,0,0,0-1.923-.357" fill="#ccd0d9"/><path d="M5305.309-2386.968a4.864,4.864,0,0,0-4.863,4.864,4.863,4.863,0,0,0,4.863,4.863,4.863,4.863,0,0,0,4.864-4.863,4.864,4.864,0,0,0-4.864-4.864m0,7.517a2.716,2.716,0,0,1-2.716-2.716,2.716,2.716,0,0,1,2.716-2.715,2.715,2.715,0,0,1,2.716,2.715h0a2.735,2.735,0,0,1-2.716,2.716" fill="#ccd0d9"/><path d="M5318.274-2321.737a6.036,6.036,0,0,0-6.036,6.036,6.036,6.036,0,0,0,6.036,6.037,6.037,6.037,0,0,0,6.037-6.037h0a6.039,6.039,0,0,0-6.037-6.036m0,9.329a3.372,3.372,0,0,1-3.371-3.372,3.371,3.371,0,0,1,3.371-3.371,3.371,3.371,0,0,1,3.372,3.371,3.4,3.4,0,0,1-3.372,3.372" fill="#ccd0d9"/><path d="M5583.485-2333.365a5.837,5.837,0,0,0-5.837,5.836,5.836,5.836,0,0,0,5.837,5.836,5.836,5.836,0,0,0,5.836-5.836,5.836,5.836,0,0,0-5.836-5.836m0,9.019a3.259,3.259,0,0,1-3.259-3.259,3.259,3.259,0,0,1,3.259-3.258,3.258,3.258,0,0,1,3.258,3.258,3.283,3.283,0,0,1-3.258,3.259" fill="#ccd0d9"/><path d="M5390.676-2298.6a5.1,5.1,0,0,0-5.1,5.1,5.1,5.1,0,0,0,5.1,5.1,5.1,5.1,0,0,0,5.1-5.1h0a5.1,5.1,0,0,0-5.1-5.1m0,7.878a2.846,2.846,0,0,1-2.846-2.846,2.846,2.846,0,0,1,2.846-2.846,2.846,2.846,0,0,1,2.846,2.846h0a2.867,2.867,0,0,1-2.846,2.846" fill="#ccd0d9"/><path d="M5699.449-2271.068a6.478,6.478,0,0,0-6.479,6.478,6.478,6.478,0,0,0,6.479,6.478,6.478,6.478,0,0,0,6.478-6.478,6.481,6.481,0,0,0-6.478-6.478m0,10.012a3.618,3.618,0,0,1-3.618-3.618,3.617,3.617,0,0,1,3.618-3.617,3.617,3.617,0,0,1,3.617,3.617h0a3.645,3.645,0,0,1-3.617,3.618" fill="#ccd0d9"/><g clip-path="url(#a)"><path d="M5372.333-2146.884a3.412,3.412,0,0,1,1.24,2.4l2.581,29.549a3.4,3.4,0,0,1-.806,2.576,3.386,3.386,0,0,1-2.4,1.241l-12.581,1.1A1.3,1.3,0,0,0,5359-2108.8a1.29,1.29,0,0,0,.032.367l4.166,47.691a3.4,3.4,0,0,1-.806,2.576,3.4,3.4,0,0,1-2.4,1.241l-34.232,2.991a3.386,3.386,0,0,1-2.577-.807,3.377,3.377,0,0,1-1.241-2.4l-4.166-47.69a1.3,1.3,0,0,0-1.228-1.367,1.317,1.317,0,0,0-.363.031l-89.822,7.846a3.378,3.378,0,0,1-2.576-.806,3.383,3.383,0,0,1-1.241-2.4l-2.044-23.406a14.421,14.421,0,0,1,.494-4.466l42.338-122.8a4.155,4.155,0,0,1,3.868-2.991l36.572-3.2a3.238,3.238,0,0,1,2.869.781c.545.644.589,1.672.122,3.085l-39.278,113.986a1.241,1.241,0,0,0,.1,1.171.934.934,0,0,0,.929.5l44.468-3.885a1.3,1.3,0,0,0,1.367-1.221,1.3,1.3,0,0,0-.032-.369l-3.169-36.278a3.4,3.4,0,0,1,.807-2.576,3.4,3.4,0,0,1,2.4-1.241l34.232-2.99a3.417,3.417,0,0,1,2.576.806,3.413,3.413,0,0,1,1.24,2.4l3.169,36.28a1.3,1.3,0,0,0,1.22,1.368,1.283,1.283,0,0,0,.371-.033l12.581-1.1A3.406,3.406,0,0,1,5372.333-2146.884Z" fill="#ccd0d9" stroke="#b1b5c4" stroke-miterlimit="3.999" stroke-width="2.999"/><path d="M5425.71-2077.548q-20.3-16.359-23.006-47.372l-6.747-77.242q-2.658-30.426,14.508-49.912t49.349-22.294q32.186-2.811,52.616,13.388t23.089,46.627l6.747,77.242q2.711,31.017-14.591,50.656T5478.19-2064Q5446-2061.19,5425.71-2077.548Zm69.6-31.729q7.049-8.718,5.872-22.185l-7.028-80.46q-1.175-13.453-9.629-20.83t-21.624-6.219q-12.876,1.125-19.924,9.848t-5.872,22.184l7.028,80.46q1.176,13.463,9.63,20.831t21.329,6.24q13.164-1.146,20.215-9.869Z" fill="#fff" stroke="#b1b5c4" stroke-miterlimit="3.999" stroke-width="2.999"/><path d="M5716.114-2176.913a3.406,3.406,0,0,1,1.241,2.4l2.581,29.549a3.393,3.393,0,0,1-.806,2.576,3.394,3.394,0,0,1-2.4,1.241l-12.58,1.1a1.3,1.3,0,0,0-1.367,1.224,1.326,1.326,0,0,0,.033.367l4.165,47.691a3.394,3.394,0,0,1-.808,2.576,3.388,3.388,0,0,1-2.4,1.241l-34.232,2.991a3.383,3.383,0,0,1-2.576-.807,3.377,3.377,0,0,1-1.241-2.4l-4.166-47.691a1.3,1.3,0,0,0-1.23-1.366,1.289,1.289,0,0,0-.362.031l-89.826,7.847a3.381,3.381,0,0,1-2.575-.807,3.376,3.376,0,0,1-1.243-2.4l-2.045-23.407a14.469,14.469,0,0,1,.5-4.465l42.34-122.8a4.153,4.153,0,0,1,3.865-2.991l36.573-3.194a3.231,3.231,0,0,1,2.869.781c.544.643.588,1.671.122,3.085l-39.277,113.986a1.24,1.24,0,0,0,.1,1.17.929.929,0,0,0,.928.5l44.469-3.885a1.3,1.3,0,0,0,1.369-1.224,1.3,1.3,0,0,0-.032-.366l-3.169-36.278a3.39,3.39,0,0,1,.807-2.576,3.4,3.4,0,0,1,2.4-1.241l34.232-2.99a3.4,3.4,0,0,1,2.576.807,3.417,3.417,0,0,1,1.243,2.4l3.169,36.28a1.3,1.3,0,0,0,1.218,1.368,1.287,1.287,0,0,0,.372-.033l12.58-1.1A3.417,3.417,0,0,1,5716.114-2176.913Z" fill="#ccd0d9" stroke="#b1b5c4" stroke-miterlimit="3.999" stroke-width="2.999"/></g><rect width="118.67" height="3.306" transform="translate(5544.596 -2129.904)" fill="#b1b5c4"/><rect width="13.618" height="3.306" transform="translate(5704.12 -2129.904)" fill="#b1b5c4"/><rect width="56.417" height="3.306" transform="translate(5445.38 -2129.904)" fill="#b1b5c4"/><rect width="28.208" height="3.306" transform="translate(5376.318 -2129.904)" fill="#b1b5c4"/><rect width="2.918" height="3.306" transform="translate(5219.712 -2129.904)" fill="#b1b5c4"/><rect width="175.524" height="120.095" rx="6.492" transform="translate(5363.099 -2383.836) rotate(-4.992)" fill="#fff" stroke="#b1b5c4" stroke-miterlimit="9.998" stroke-width="2.999"/><path d="M5363.693-2377.031l1.537,17.6,174.859-15.274-1.538-17.6a6.6,6.6,0,0,0-7.15-6h0l-161.706,14.125A6.6,6.6,0,0,0,5363.693-2377.031Zm140.42-2.326a4.542,4.542,0,0,1-5.847-2.658,4.55,4.55,0,0,1-.278-1.913,4.554,4.554,0,0,1,3.419-4.071,4.541,4.541,0,0,1,5.5,3.31,4.546,4.546,0,0,1,.057,1.935,4.461,4.461,0,0,1-2.854,3.4Zm11.216-.98a4.546,4.546,0,0,1-5.854-2.659,4.537,4.537,0,0,1-.212-2.432,4.457,4.457,0,0,1,2.853-3.4,4.548,4.548,0,0,1,5.854,2.663,4.561,4.561,0,0,1,.212,2.428,4.465,4.465,0,0,1-2.853,3.4Zm11.213-.979a4.548,4.548,0,0,1-5.854-2.661,4.56,4.56,0,0,1-.212-2.429,4.462,4.462,0,0,1,2.854-3.4,4.547,4.547,0,0,1,5.853,2.661,4.545,4.545,0,0,1,.212,2.43,4.462,4.462,0,0,1-2.853,3.4Z" fill="#b1b5c4"/><circle cx="22.887" cy="22.887" r="22.887" transform="translate(5433.125 -2345.405)" fill="#fff"/><line x2="14.678" y2="12.319" transform="translate(5448.735 -2328.79)" fill="none" stroke="#b1b5c4" stroke-linecap="round" stroke-miterlimit="9.998" stroke-width="5.999"/><line x1="12.319" y2="14.678" transform="translate(5449.914 -2329.969)" fill="none" stroke="#b1b5c4" stroke-linecap="round" stroke-miterlimit="9.998" stroke-width="5.999"/><path d="M5491.959-2299.092l-12.852-10.787a26.646,26.646,0,0,0-5.738-34.041,26.648,26.648,0,0,0-37.538,3.319c-.384.467-.762.945-1.118,1.437a26.721,26.721,0,0,0,3.144,34.868,26.657,26.657,0,0,0,35.834.873l12.852,10.787a4.206,4.206,0,0,0,5.925-.506l.009-.012a4.2,4.2,0,0,0,.976-3.073A4.207,4.207,0,0,0,5491.959-2299.092Zm-19.063-13.166a20.117,20.117,0,0,1-27.944,5.342l-.011-.008a20.1,20.1,0,0,1-3.12-2.613,20.2,20.2,0,0,1-2.208-25.286,20.131,20.131,0,0,1,27.962-5.328,20,20,0,0,1,3.114,2.613,20.2,20.2,0,0,1,2.207,25.279Z" fill="#ccd0d9" stroke="#b1b5c4" stroke-miterlimit="9.998" stroke-width="2.999"/><ellipse cx="24.342" cy="5.836" rx="24.342" ry="5.836" transform="translate(5436.467 -2257.689) rotate(-7)" fill="#ccd0d9"/></g></svg>