<svg xmlns="http://www.w3.org/2000/svg" xmlns:xlink="http://www.w3.org/1999/xlink" width="512.05" height="368.243" viewBox="0 0 512.05 368.243"><defs><clipPath id="a"><rect width="488" height="200" transform="translate(8646.422 -5610.096)" fill="none"/></clipPath></defs><g transform="translate(-1269.04 -2178.126)"><g transform="translate(604.085 -11)"><path d="M306.124,11.811l-2.12-.4.4-2.157a1,1,0,0,0-1.974-.366l-.4,2.157-2.193-.4a1,1,0,1,0-.366,1.974l2.193.4-.4,2.157a1,1,0,0,0,1.974.366l.4-2.157,2.12.4a1,1,0,0,0,.366-1.974" transform="translate(738.581 2209.983)" fill="#ccd0d9"/><path d="M309.608,13.558l-3.108-.589.59-3.162A1.472,1.472,0,0,0,304.2,9.27l-.589,3.162-3.215-.589a1.472,1.472,0,1,0-.536,2.894l3.215.589-.59,3.162a1.472,1.472,0,0,0,2.894.536l.589-3.162,3.108.589a1.472,1.472,0,0,0,.536-2.894" transform="translate(800.139 2248.146)" fill="#ccd0d9"/><path d="M311.895,14.7l-3.757-.712.713-3.821a1.779,1.779,0,0,0-3.5-.648l-.712,3.821-3.886-.712a1.778,1.778,0,1,0-.648,3.5l3.886.712-.713,3.821a1.779,1.779,0,0,0,3.5.648l.712-3.821,3.757.712a1.778,1.778,0,0,0,.648-3.5" transform="translate(659.905 2236.23)" fill="#ccd0d9"/><path d="M311.895,14.7l-3.757-.712.713-3.821a1.779,1.779,0,0,0-3.5-.648l-.712,3.821-3.886-.712a1.778,1.778,0,1,0-.648,3.5l3.886.712-.713,3.821a1.779,1.779,0,0,0,3.5.648l.712-3.821,3.757.712a1.778,1.778,0,0,0,.648-3.5" transform="translate(582.664 2266.938)" fill="#ccd0d9"/><path d="M13.247,6.641,9.49,5.928,10.2,2.107a1.779,1.779,0,0,0-3.5-.648L5.993,5.281,2.107,4.568a1.778,1.778,0,1,0-.648,3.5l3.886.712L4.632,12.6a1.779,1.779,0,0,0,3.5.648l.712-3.821,3.757.712a1.778,1.778,0,0,0,.648-3.5" transform="translate(684.955 2316.699) rotate(-30)" fill="#ccd0d9"/><path d="M10.792,5.41l-3.06-.58.581-3.113a1.449,1.449,0,0,0-2.85-.528L4.883,4.3l-3.166-.58a1.449,1.449,0,1,0-.528,2.849l3.166.58-.581,3.113a1.449,1.449,0,0,0,2.85.528L7.2,7.679l3.06.58a1.449,1.449,0,0,0,.528-2.849" transform="translate(774.489 2281.921) rotate(-45)" fill="#ccd0d9"/><path d="M377.2,79.116a7.7,7.7,0,1,0,7.7,7.7,7.7,7.7,0,0,0-7.7-7.7m0,11.9a4.3,4.3,0,1,1,4.3-4.3,4.332,4.332,0,0,1-4.3,4.3" transform="translate(402.453 2139.53)" fill="#ccd0d9"/><path d="M375.5,79.116a6,6,0,1,0,6,6,6,6,0,0,0-6-6m0,9.272a3.35,3.35,0,1,1,3.35-3.35,3.375,3.375,0,0,1-3.35,3.35" transform="translate(658.434 2206.884)" fill="#ccd0d9"/><path d="M374.74,79.116a5.24,5.24,0,1,0,5.24,5.24,5.242,5.242,0,0,0-5.24-5.24m0,8.1a2.926,2.926,0,1,1,2.926-2.926,2.948,2.948,0,0,1-2.926,2.926" transform="translate(460.975 2242.622)" fill="#ccd0d9"/><path d="M377.5,79.116a8,8,0,1,0,8,8,8,8,0,0,0-8-8m0,12.364a4.468,4.468,0,1,1,4.468-4.468A4.5,4.5,0,0,1,377.5,91.48" transform="translate(768.992 2138.929)" fill="#ccd0d9"/></g><g transform="translate(-7365.382 7905.727)"><rect width="43" height="3.125" transform="translate(8634.422 -5413.222)" fill="#b1b5c4"/><rect width="33" height="3.125" transform="translate(8833.422 -5413.222)" fill="#b1b5c4"/><rect width="50" height="3.125" transform="translate(8911.422 -5413.222)" fill="#b1b5c4"/><rect width="63" height="3.125" transform="translate(9005.422 -5413.222)" fill="#b1b5c4"/><rect width="35" height="3.125" transform="translate(9111.472 -5413.222)" fill="#b1b5c4"/><rect width="19.7" height="3.4" transform="translate(8672.473 -5386.059)" fill="#b1b5c4"/><rect width="35.5" height="3.4" transform="translate(8720.272 -5386.059)" fill="#b1b5c4"/><rect width="15.899" height="3.4" transform="translate(9007.572 -5386.059)" fill="#b1b5c4"/><rect width="68.899" height="3.4" transform="translate(9042.572 -5386.059)" fill="#b1b5c4"/><rect width="17.4" height="3.4" transform="translate(8643.372 -5362.758)" fill="#b1b5c4"/><rect width="17.399" height="3.4" transform="translate(9120.072 -5362.758)" fill="#b1b5c4"/><g clip-path="url(#a)"><path d="M8833.349-5448.459a3.512,3.512,0,0,1,1.275,2.464l2.653,30.378a3.494,3.494,0,0,1-.828,2.649,3.492,3.492,0,0,1-2.466,1.276l-12.934,1.13a1.331,1.331,0,0,0-1.4,1.257h0a1.333,1.333,0,0,0,.032.378l4.282,49.029a3.5,3.5,0,0,1-.83,2.649,3.493,3.493,0,0,1-2.464,1.276l-35.193,3.074a3.469,3.469,0,0,1-2.647-.83,3.469,3.469,0,0,1-1.276-2.464l-4.283-49.03a1.336,1.336,0,0,0-1.263-1.4h0a1.327,1.327,0,0,0-.375.033l-92.342,8.066a3.477,3.477,0,0,1-2.647-.829,3.473,3.473,0,0,1-1.276-2.465l-2.1-24.063a14.948,14.948,0,0,1,.509-4.591l43.528-126.249a4.27,4.27,0,0,1,3.975-3.075l37.6-3.284a3.328,3.328,0,0,1,2.95.8c.56.662.6,1.719.125,3.172l-40.379,117.185a1.273,1.273,0,0,0,.1,1.2.958.958,0,0,0,.955.519l45.716-3.994a1.334,1.334,0,0,0,1.407-1.256,1.337,1.337,0,0,0-.033-.379l-3.258-37.3a3.489,3.489,0,0,1,.829-2.649,3.505,3.505,0,0,1,2.465-1.276l35.193-3.074a3.5,3.5,0,0,1,2.646.829,3.507,3.507,0,0,1,1.277,2.465l3.258,37.3a1.333,1.333,0,0,0,1.253,1.406,1.383,1.383,0,0,0,.383-.033l12.933-1.13A3.512,3.512,0,0,1,8833.349-5448.459Z" fill="#ccd0d9" stroke="#b1b5c4" stroke-miterlimit="3.999" stroke-width="2.999"/><path d="M8833.134-5445.863l2.656,30.408a2.032,2.032,0,0,1-.507,1.549,2.064,2.064,0,0,1-1.422.727l-12.849,1.122a3.151,3.151,0,0,0-.687.07,2.877,2.877,0,0,0-1.767,1.268,2.868,2.868,0,0,0-.364,2.019l4.276,48.964a2.024,2.024,0,0,1-.507,1.549,2.061,2.061,0,0,1-1.422.727l-17.6,1.537-5.683-65.054a5.03,5.03,0,0,0-5.449-4.575h0l-90.13,7.873a4.146,4.146,0,0,1-4.492-3.765,4.17,4.17,0,0,1,.2-1.69l46.17-136.752,19.438-1.7.179-.025a1.842,1.842,0,0,1,1.526.348,2.506,2.506,0,0,1-.176,1.661l-40.369,117.144a2.827,2.827,0,0,0,.207,2.481,2.544,2.544,0,0,0,2.39,1.276l45.636-3.986a2.482,2.482,0,0,0,.666-.078,2.783,2.783,0,0,0,1.768-1.258,2.816,2.816,0,0,0,.385-2.021l-3.253-37.241a2.059,2.059,0,0,1,.5-1.548,2.091,2.091,0,0,1,1.432-.728l35.219-3.076a1.98,1.98,0,0,1,1.54.508,1.98,1.98,0,0,1,.737,1.431l3.25,37.21a2.667,2.667,0,0,0,.07.687,2.851,2.851,0,0,0,3.276,2.132l12.92-1.129a2.041,2.041,0,0,1,1.476.474l.022.028A1.982,1.982,0,0,1,8833.134-5445.863Z" fill="#ccd0d9"/><path d="M8887.68-5376.879q-20.868-16.818-23.651-48.7l-6.937-79.409q-2.733-31.281,14.915-51.313t50.735-22.92q33.086-2.889,54.092,13.764t23.738,47.936l6.936,79.409q2.786,31.887-15,52.077t-50.874,23.084Q8908.546-5360.061,8887.68-5376.879Zm71.56-32.619q7.247-8.963,6.037-22.808l-7.226-82.717q-1.208-13.832-9.9-21.416t-22.23-6.393q-13.239,1.156-20.482,10.124T8899.4-5509.9l7.225,82.717q1.208,13.839,9.9,21.416t21.928,6.414q13.537-1.173,20.785-10.145Z" fill="#fff" stroke="#b1b5c4" stroke-miterlimit="3.999" stroke-width="2.999"/><path d="M9055.3-5588.376l36.4-3.179a3.508,3.508,0,0,1,2.647.83,3.507,3.507,0,0,1,1.276,2.464l17.762,203.336a3.489,3.489,0,0,1-.83,2.648,3.486,3.486,0,0,1-2.465,1.276l-35.192,3.074a3.476,3.476,0,0,1-2.648-.829,3.478,3.478,0,0,1-1.276-2.465l-14.4-164.838a1.754,1.754,0,0,0-.7-1.151,1,1,0,0,0-1.23-.193l-29.07,10.722-1.178.4q-2.707.237-3-3.072l-3.16-25.789a4.277,4.277,0,0,1,2.339-4.448l30.295-17.5A8.974,8.974,0,0,1,9055.3-5588.376Z" fill="#ccd0d9" stroke="#b1b5c4" stroke-miterlimit="3.999" stroke-width="2.999"/></g></g><g transform="translate(-6669.15 8233.451) rotate(-8)"><path d="M9017.708-4827.771l-57.915-17.375a4.317,4.317,0,0,0-2.485,0l-57.918,17.375a4.325,4.325,0,0,0-3.081,4.144v63.707c0,8.286,3.354,16.77,9.971,25.212,5.053,6.448,12.042,12.923,20.776,19.245a186.36,186.36,0,0,0,29.728,17.407,4.33,4.33,0,0,0,3.535,0,186.511,186.511,0,0,0,29.727-17.407c8.733-6.322,15.724-12.8,20.776-19.245,6.616-8.442,9.969-16.924,9.969-25.212v-63.707A4.328,4.328,0,0,0,9017.708-4827.771Z" fill="#fff" stroke="#b1b5c4" stroke-width="3"/><g transform="translate(8958.33 -4843.792)"><path d="M9021.087-4823.505v63.705c0,7.946-3.253,16.126-9.661,24.306-4.966,6.349-11.86,12.728-20.479,18.95a185.879,185.879,0,0,1-29.486,17.275,4.115,4.115,0,0,1-1.461.058l.156-43.82h19.582a6.6,6.6,0,0,0,6.584-6.583v-30.7a6.6,6.6,0,0,0-6.584-6.583h-2.191v-8.774a17.54,17.54,0,0,0-17.138-17.538l.107-30.538c.205.029.409.068.614.117l57.911,17.372A2.865,2.865,0,0,1,9021.087-4823.505Z" transform="translate(-8960 4843.75)" fill="#ccd0d9"/></g><path d="M8979.03-4786.079h-2.191v-8.774a17.54,17.54,0,0,0-17.138-17.538c-.137-.009-.272-.009-.409-.009a17.481,17.481,0,0,0-12.405,5.141,17.483,17.483,0,0,0-5.141,12.406v8.774h-2.192a6.588,6.588,0,0,0-6.584,6.583v30.7a6.581,6.581,0,0,0,6.584,6.583h39.477a6.593,6.593,0,0,0,6.583-6.583v-30.7A6.6,6.6,0,0,0,8979.03-4786.079Zm-14.665,20.44v.01a5.94,5.94,0,0,1-2.143,2.142l-.009-.01v6.662a2.911,2.911,0,0,1-2.727,2.911,1.309,1.309,0,0,1-.2.01,2.917,2.917,0,0,1-2.921-2.92v-6.662a5.843,5.843,0,0,1-2.143-7.984,5.842,5.842,0,0,1,5.073-2.932,2.353,2.353,0,0,1,.263.01,5.808,5.808,0,0,1,2.658.779A5.854,5.854,0,0,1,8964.365-4765.639Zm6.622-20.44H8947.6l-.011-8.774a11.7,11.7,0,0,1,11.705-11.7c.127,0,.263,0,.39.01a11.7,11.7,0,0,1,11.306,11.685Z" transform="translate(-0.961 -0.864)" fill="#ccd0d9" stroke="#b1b5c4" stroke-linecap="round" stroke-linejoin="round" stroke-width="3"/></g><ellipse cx="28.222" cy="6" rx="28.222" ry="6" transform="translate(1525.04 2346.526) rotate(-9)" fill="#ccd0d9"/></g></svg>