<svg xmlns="http://www.w3.org/2000/svg" xmlns:xlink="http://www.w3.org/1999/xlink" width="512" height="357.365" viewBox="0 0 512 357.365"><defs><clipPath id="a"><rect width="512" height="200" transform="translate(8490.839 -4280.296)" fill="none"/></clipPath></defs><g transform="translate(-1294 -4032.356)"><g transform="translate(-7196.839 8419.297)"><g clip-path="url(#a)"><path d="M8684.878-4096.317a75.968,75.968,0,0,1-2.394,28.093,59.69,59.69,0,0,1-21.7,32.659q-16.462,12.8-39.921,14.852-22.863,2-41.115-7.471a60.058,60.058,0,0,1-27.13-27.787,87.251,87.251,0,0,1-5.955-16.15l-.052-.6q-.29-3.3,3.319-3.624l36.4-3.179q3-.263,4.2,2.967a10.46,10.46,0,0,0,1.166,2.929,17.314,17.314,0,0,1,1.086,2.027,25.3,25.3,0,0,0,10.074,11.244,24.094,24.094,0,0,0,14.5,2.976,24.806,24.806,0,0,0,14.347-5.8,26.359,26.359,0,0,0,8.221-13.448q2.476-6.276,1.644-15.9a42.859,42.859,0,0,0-4.072-15.4,20.324,20.324,0,0,0-9.474-11.3,26.072,26.072,0,0,0-15.108-2.924,32.489,32.489,0,0,0-15.3,5.277q-6.877,4.542-8.732,11.067a3.793,3.793,0,0,1-3.647,3.35l-37,3.232a3.479,3.479,0,0,1-2.648-.829,3.479,3.479,0,0,1-1.277-2.465l-10.588-121.219a3.49,3.49,0,0,1,.83-2.649,3.492,3.492,0,0,1,2.464-1.276l124.229-10.851a3.51,3.51,0,0,1,2.647.829,3.514,3.514,0,0,1,1.276,2.465l2.548,29.163a3.5,3.5,0,0,1-.83,2.648,3.488,3.488,0,0,1-2.464,1.276L8580.5-4194.8a1.334,1.334,0,0,0-1.406,1.256v0a1.394,1.394,0,0,0,.033.377l3.591,44.547q.183,2.108,1.883.745,12.775-9.9,30.521-11.455,21.051-1.838,37.785,7.459a57.9,57.9,0,0,1,24.972,27.37A97.779,97.779,0,0,1,8684.878-4096.317Z" fill="#ccd0d9" stroke="#b1b5c4" stroke-miterlimit="3.999" stroke-width="2.999"/><path d="M8683.391-4096.157a74.124,74.124,0,0,1-2.368,27.565,58.3,58.3,0,0,1-21.166,31.836c-10.694,8.321-23.855,13.214-39.124,14.548l-.04,0c-14.86,1.3-28.413-1.161-40.272-7.321a58.8,58.8,0,0,1-26.453-27.1,87.756,87.756,0,0,1-5.82-15.75l-.044-.488c-.1-1.175.181-1.842,1.953-2l16.106-1.407c3.842,10.664,10.965,25.347,27.958,34.681,7.358,4.044,17.491,5.839,27.81,4.938,20.7-1.808,37.206-16.749,42.065-38.078a60.314,60.314,0,0,0-8.278-45.483c-7-10.469-16.823-17.047-28.437-19.023A55.193,55.193,0,0,0,8582.229-4126c-5.709,5.186-10.556,7.707-16.12,8.343l-8.137-93.135,107.012-9.348,1.243,14.243a2.1,2.1,0,0,1-.508,1.55,2.053,2.053,0,0,1-1.431.727l-83.843,7.324a3.064,3.064,0,0,0-.676.079,2.839,2.839,0,0,0-1.766,1.268,2.821,2.821,0,0,0-.366,2.009l3.581,44.448a2.681,2.681,0,0,0,1.45,2.483,2.706,2.706,0,0,0,2.842-.68c8.243-6.39,18.242-10.144,29.727-11.147h.01c13.665-1.184,26.094,1.263,36.926,7.282a56.671,56.671,0,0,1,24.317,26.649A95.93,95.93,0,0,1,8683.391-4096.157Z" fill="#ccd0d9"/><path d="M8732.183-4047.436q-20.87-16.818-23.651-48.7l-6.937-79.409q-2.73-31.281,14.916-51.313t50.73-22.919q33.083-2.891,54.092,13.763t23.737,47.936l6.936,79.409q2.786,31.885-15,52.078t-50.874,23.08Q8753.044-4030.621,8732.183-4047.436Zm71.561-32.619q7.245-8.964,6.036-22.807l-7.226-82.717q-1.207-13.834-9.9-21.416t-22.235-6.387q-13.239,1.155-20.483,10.124t-6.036,22.807l7.225,82.717q1.208,13.844,9.9,21.415t21.928,6.414q13.541-1.184,20.791-10.151Z" fill="#fff" stroke="#b1b5c4" stroke-miterlimit="3.999" stroke-width="2.999"/><path d="M8899.808-4258.933l36.4-3.179a3.5,3.5,0,0,1,2.648.829,3.51,3.51,0,0,1,1.276,2.465l17.761,203.335a3.488,3.488,0,0,1-.829,2.648,3.491,3.491,0,0,1-2.465,1.277l-35.188,3.074a3.478,3.478,0,0,1-2.649-.831,3.468,3.468,0,0,1-1.274-2.464l-14.4-164.838a1.755,1.755,0,0,0-.7-1.151.994.994,0,0,0-1.229-.193l-29.071,10.721-1.177.4q-2.708.237-3-3.073l-3.162-25.788a4.28,4.28,0,0,1,2.338-4.448l30.3-17.5A8.982,8.982,0,0,1,8899.808-4258.933Z" fill="#ccd0d9" stroke="#b1b5c4" stroke-miterlimit="3.999" stroke-width="2.999"/><ellipse cx="17.722" cy="6" rx="17.722" ry="6" transform="translate(8732.805 -4220.736) rotate(-21)" fill="#ccd0d9"/><ellipse cx="5" cy="17.222" rx="5" ry="17.222" transform="translate(8786.036 -4228.731) rotate(-74)" fill="#ccd0d9"/></g><rect width="47.593" height="3.399" transform="translate(8955.246 -4083.695)" fill="#b1b5c4"/><rect width="49.277" height="3.399" transform="translate(8755.891 -4083.695)" fill="#b1b5c4"/><rect width="25.69" height="3.399" transform="translate(8685.826 -4083.695)" fill="#b1b5c4"/><rect width="62.5" height="3.399" transform="translate(8850.343 -4083.695)" fill="#b1b5c4"/><rect width="150.887" height="3.399" transform="translate(8490.839 -4083.695)" fill="#b1b5c4"/></g><g transform="matrix(0.985, -0.174, 0.174, 0.985, -172.767, 943.48)"><path d="M63.444,81.279V65.4h-2a15.839,15.839,0,0,1,0-31.678h2V17.835H43.612a3.949,3.949,0,0,1-3.949-3.949V7.942a7.942,7.942,0,1,0-15.883,0v5.945a3.949,3.949,0,0,1-3.949,3.949H0v55.5a7.951,7.951,0,0,0,7.942,7.942Z" transform="matrix(0.978, -0.208, 0.208, 0.978, 1086.164, 3418.279)" fill="#fff" stroke="#b1b5c4" stroke-width="3"/><path d="M72.609,64.279a7.965,7.965,0,0,0,7.863-8.046V0H64.747V2.023a15.686,15.686,0,1,1-31.363,0V0H17.658V20.093a3.956,3.956,0,0,1-3.91,4H7.863a8.048,8.048,0,0,0,0,16.092h5.886a3.956,3.956,0,0,1,3.91,4V64.279Z" transform="translate(1180.157 3420.72) rotate(16)" fill="#ccd0d9" stroke="#b1b5c4" stroke-width="3"/><path d="M8.046,0A8.055,8.055,0,0,0,0,8.046V64.276H16.091V62.254a16.047,16.047,0,1,1,32.094,0v2.022H64.276V44.185a4,4,0,0,1,4-4H74.3a8.046,8.046,0,1,0,0-16.092H68.277a4,4,0,0,1-4-4V0Z" transform="translate(1088.714 3344.78)" fill="#ccd0d9" stroke="#b1b5c4" stroke-width="3"/></g><g transform="translate(537.3 1878.306)"><rect width="19.7" height="3.4" transform="translate(794.8 2484.716)" fill="#b1b5c4"/><rect width="35.5" height="3.4" transform="translate(842.6 2484.716)" fill="#b1b5c4"/><rect width="68.899" height="3.4" transform="translate(1164.9 2484.716)" fill="#b1b5c4"/><rect width="17.4" height="3.4" transform="translate(765.7 2508.016)" fill="#b1b5c4"/><rect width="17.399" height="3.4" transform="translate(1242.4 2508.016)" fill="#b1b5c4"/></g><g transform="translate(1188.932 1781.013)"><path d="M312.517,15.016l-3.933-.746.747-4a1.862,1.862,0,0,0-3.663-.678l-.745,4-4.069-.746a1.862,1.862,0,0,0-.678,3.662l4.069.746-.747,4a1.862,1.862,0,0,0,3.663.678l.745-4,3.933.746a1.862,1.862,0,0,0,.678-3.662" transform="translate(-63.097 2301.75)" fill="#ccd0d9"/><path d="M312.518,15.016l-3.933-.746.747-4a1.863,1.863,0,0,0-3.663-.678l-.745,4-4.069-.746a1.862,1.862,0,1,0-.678,3.662l4.069.746-.747,4a1.863,1.863,0,0,0,3.663.678l.745-4,3.933.746a1.862,1.862,0,0,0,.678-3.662" transform="translate(-103.547 2351.341)" fill="#ccd0d9"/><path d="M308.022,12.762l-2.658-.5.5-2.7a1.259,1.259,0,0,0-2.475-.458l-.5,2.7-2.75-.5a1.259,1.259,0,1,0-.458,2.475l2.75.5-.5,2.7a1.259,1.259,0,0,0,2.475.458l.5-2.7,2.658.5a1.259,1.259,0,0,0,.458-2.475" transform="translate(283.353 2340.935)" fill="#ccd0d9"/><path d="M306.112,11.805,304,11.4l.4-2.153a1,1,0,0,0-1.971-.365l-.4,2.153-2.19-.4a1,1,0,0,0-.365,1.971l2.19.4-.4,2.153a1,1,0,0,0,1.971.365l.4-2.153,2.117.4a1,1,0,0,0,.365-1.971" transform="translate(131.065 2269.128)" fill="#ccd0d9"/><path d="M375.4,79.116a5.9,5.9,0,1,0,5.9,5.9,5.9,5.9,0,0,0-5.9-5.9m0,9.111a3.292,3.292,0,1,1,3.292-3.292,3.317,3.317,0,0,1-3.292,3.292" transform="translate(135.21 2224.802)" fill="#ccd0d9"/><path d="M373.2,79.116a3.7,3.7,0,1,0,3.7,3.7,3.7,3.7,0,0,0-3.7-3.7m0,5.719a2.067,2.067,0,1,1,2.067-2.067,2.082,2.082,0,0,1-2.067,2.067" transform="translate(139.599 2189.171)" fill="#ccd0d9"/><path d="M375.635,79.116a6.135,6.135,0,1,0,6.135,6.135,6.138,6.138,0,0,0-6.135-6.135m0,9.482a3.426,3.426,0,1,1,3.426-3.426,3.452,3.452,0,0,1-3.426,3.426" transform="translate(-242.771 2239.96)" fill="#ccd0d9"/><path d="M374.351,79.116a4.851,4.851,0,1,0,4.851,4.851,4.853,4.853,0,0,0-4.851-4.851m0,7.5a2.709,2.709,0,1,1,2.709-2.709,2.729,2.729,0,0,1-2.709,2.709" transform="translate(-171.552 2185.427)" fill="#ccd0d9"/></g></g></svg>