<svg xmlns="http://www.w3.org/2000/svg" xmlns:xlink="http://www.w3.org/1999/xlink" width="512" height="337.157" viewBox="0 0 512 337.157"><defs><clipPath id="a"><rect width="503.307" height="191.371" transform="translate(5873.766 -4242.87)" fill="none"/></clipPath></defs><g transform="translate(-1279 -2248.171)"><g transform="translate(-4590.419 6587.278)"><g clip-path="url(#a)"><path d="M6040.307-4083.05a3.344,3.344,0,0,1,1.22,2.357l2.539,29.066a3.336,3.336,0,0,1-.793,2.536,3.338,3.338,0,0,1-2.358,1.221l-12.376,1.081a1.275,1.275,0,0,0-1.339,1.2h0a1.283,1.283,0,0,0,.033.361l4.1,46.914a3.352,3.352,0,0,1-.795,2.535,3.342,3.342,0,0,1-2.357,1.22l-33.674,2.942a3.316,3.316,0,0,1-2.534-.794,3.324,3.324,0,0,1-1.222-2.358l-4.1-46.914a1.28,1.28,0,0,0-1.209-1.34h0a1.265,1.265,0,0,0-.359.033l-88.358,7.717a3.323,3.323,0,0,1-2.533-.794,3.32,3.32,0,0,1-1.223-2.357l-2.009-23.025a14.262,14.262,0,0,1,.487-4.393l41.65-120.8a4.083,4.083,0,0,1,3.8-2.943l35.978-3.143a3.191,3.191,0,0,1,2.824.765q.8.951.119,3.035l-38.637,112.13a1.224,1.224,0,0,0,.1,1.148.919.919,0,0,0,.914.5l43.744-3.822a1.277,1.277,0,0,0,1.347-1.2,1.308,1.308,0,0,0-.033-.362l-3.118-35.691a3.338,3.338,0,0,1,.794-2.534,3.346,3.346,0,0,1,2.359-1.221l33.673-2.942a3.358,3.358,0,0,1,2.534.793,3.355,3.355,0,0,1,1.223,2.359l3.117,35.691a1.276,1.276,0,0,0,1.2,1.345,1.322,1.322,0,0,0,.365-.032l12.375-1.081A3.356,3.356,0,0,1,6040.307-4083.05Z" fill="#ccd0d9" stroke="#b1b5c4" stroke-miterlimit="3.999" stroke-width="2.999"/><path d="M6040.1-4080.563l2.541,29.1a1.938,1.938,0,0,1-.485,1.482,1.978,1.978,0,0,1-1.36.7l-12.3,1.073a2.942,2.942,0,0,0-.655.067,2.747,2.747,0,0,0-1.69,1.214,2.734,2.734,0,0,0-.351,1.931l4.092,46.852a1.937,1.937,0,0,1-.485,1.482,1.975,1.975,0,0,1-1.359.7l-16.841,1.47-5.437-62.247a4.814,4.814,0,0,0-5.214-4.378h0l-86.243,7.532a3.963,3.963,0,0,1-4.3-3.6v0h0a3.934,3.934,0,0,1,.191-1.617l44.179-130.852,18.6-1.627.171-.024a1.762,1.762,0,0,1,1.46.333,2.4,2.4,0,0,1-.168,1.589l-38.627,112.091a2.7,2.7,0,0,0,.2,2.374,2.436,2.436,0,0,0,2.286,1.22l43.668-3.814a2.4,2.4,0,0,0,.637-.074,2.657,2.657,0,0,0,1.69-1.205,2.685,2.685,0,0,0,.371-1.933l-3.113-35.634a1.97,1.97,0,0,1,.479-1.481,2,2,0,0,1,1.37-.7l33.7-2.943a1.887,1.887,0,0,1,1.474.486,1.9,1.9,0,0,1,.705,1.369l3.111,35.6a2.52,2.52,0,0,0,.066.657,2.73,2.73,0,0,0,3.136,2.04l12.361-1.08a1.956,1.956,0,0,1,1.413.453l.021.027A1.894,1.894,0,0,1,6040.1-4080.563Z" fill="#ccd0d9"/><path d="M6092.839-4014.471q-19.971-16.092-22.631-46.6l-6.637-75.983q-2.613-29.929,14.271-49.1t48.546-21.932q31.659-2.766,51.759,13.17t22.713,45.868l6.637,75.985q2.664,30.508-14.353,49.83t-48.679,22.088Q6112.8-3998.382,6092.839-4014.471Zm68.472-31.213q6.936-8.574,5.777-21.823l-6.914-79.149q-1.155-13.235-9.473-20.491t-21.271-6.118q-12.667,1.106-19.6,9.688t-5.776,21.823l6.913,79.149q1.156,13.242,9.473,20.491t20.982,6.139q12.951-1.128,19.887-9.712Z" fill="#fff" stroke="#b1b5c4" stroke-miterlimit="3.999" stroke-width="2.999"/><path d="M6363.813-4089.621a78.577,78.577,0,0,1-2.667,29.234,57.084,57.084,0,0,1-20.655,30.8q-15.359,11.781-37.518,13.717-21.875,1.914-39.378-7.58a61.035,61.035,0,0,1-26.335-27.571,82.134,82.134,0,0,1-6.717-23.774q-.3-3.456,3.158-3.756l33.962-2.965q3.456-.3,3.755,3.151,1.975,9.4,4.4,13.829a23.114,23.114,0,0,0,9.509,10.916,23.613,23.613,0,0,0,14.323,2.953q16.116-1.407,20.931-16.041a47.4,47.4,0,0,0,2.269-20.5q-1.182-13.522-6.253-21.785-7.806-12.948-23.347-11.591a13.968,13.968,0,0,0-6.455,2.448,87.431,87.431,0,0,0-7.882,6.054,3.825,3.825,0,0,1-2.228,1.064,2.771,2.771,0,0,1-2.74-1.5l-19.069-22.406a3.525,3.525,0,0,1-.747-1.963,3.924,3.924,0,0,1,.9-2.979l42.268-44a1.206,1.206,0,0,0,.331-1.189q-.193-.558-1.053-.484l-67.636,5.907a3.326,3.326,0,0,1-2.535-.793,3.332,3.332,0,0,1-1.222-2.358l-2.438-27.918a3.335,3.335,0,0,1,.794-2.533,3.349,3.349,0,0,1,2.358-1.222l120.019-10.484a3.358,3.358,0,0,1,2.535.795,3.345,3.345,0,0,1,1.221,2.357l2.766,31.66a6.082,6.082,0,0,1-1.637,4.5l-34.687,37.831a1.191,1.191,0,0,0-.332,1.189c.128.383.575.526,1.346.459q25.466,2.711,38.274,26.528Q6362.3-4106.888,6363.813-4089.621Z" fill="#ccd0d9" stroke="#b1b5c4" stroke-miterlimit="3.999" stroke-width="2.999"/></g><rect width="21.645" height="3.4" transform="translate(5869.419 -4054.899)" fill="#b1b5c4"/><rect width="27.225" height="3.4" transform="translate(6044 -4054.899)" fill="#b1b5c4"/><rect width="53.452" height="3.4" transform="translate(6112.226 -4054.899)" fill="#b1b5c4"/><rect width="30.226" height="3.4" transform="translate(6206.677 -4054.899)" fill="#b1b5c4"/><rect width="22.419" height="3.4" transform="translate(6359 -4054.899)" fill="#b1b5c4"/></g><g transform="translate(-6164.394 7296.989)"><rect width="18.85" height="3.253" transform="translate(7491.238 -4737.209)" fill="#b1b5c4"/><rect width="33.968" height="3.253" transform="translate(7536.976 -4737.209)" fill="#b1b5c4"/><rect width="15.213" height="3.253" transform="translate(7811.88 -4737.209)" fill="#b1b5c4"/><rect width="65.927" height="3.253" transform="translate(7845.371 -4737.209)" fill="#b1b5c4"/><rect width="16.649" height="3.253" transform="translate(7463.394 -4714.915)" fill="#b1b5c4"/><rect width="16.648" height="3.253" transform="translate(7919.527 -4714.915)" fill="#b1b5c4"/></g><g transform="translate(-6139.419 7298.989)"><path d="M7708.667-5032.2h-.009a69.172,69.172,0,0,0-97.54,0,69.173,69.173,0,0,0,.008,97.541,68.814,68.814,0,0,0,48.766,20.122,68.853,68.853,0,0,0,48.776-20.122A69.145,69.145,0,0,0,7708.667-5032.2Zm-83.022,14.512.206-.207a48.7,48.7,0,0,1,60.245-6.256l-66.924,66.932a48.7,48.7,0,0,1,6.475-60.474Zm68.511,68.511a48.7,48.7,0,0,1-60.474,6.472l66.934-66.931a48.7,48.7,0,0,1-6.461,60.456Z" transform="translate(-3 3)" fill="#ccd0d9" stroke="#b1b5c4" stroke-width="3"/><ellipse cx="28.684" cy="5.676" rx="28.684" ry="5.676" transform="translate(7645.457 -4900.832) rotate(-10.018)" fill="#ccd0d9"/></g><g transform="translate(-6147.419 7296.989)"><path d="M7875.188-5023.424l-1.8-.341.341-1.828a.852.852,0,0,0-.682-.992.852.852,0,0,0-.993.681v0l-.34,1.828-1.86-.341a.852.852,0,0,0-.992.681v0a.851.851,0,0,0,.682.992h0l1.859.341-.342,1.828a.852.852,0,0,0,.683.992.851.851,0,0,0,.992-.681h0l.34-1.828,1.8.341a.851.851,0,0,0,.992-.682h0a.851.851,0,0,0-.682-.992h0" fill="#ccd0d9"/><path d="M7578.457-4928.141l-2.486-.47.472-2.528a1.178,1.178,0,0,0-.943-1.373,1.178,1.178,0,0,0-1.373.943l-.471,2.528-2.571-.471a1.178,1.178,0,0,0-1.373.943h0a1.176,1.176,0,0,0,.942,1.372h0l2.572.471-.472,2.528a1.177,1.177,0,0,0,.941,1.373h0a1.179,1.179,0,0,0,1.373-.943h0l.471-2.528,2.486.471a1.176,1.176,0,0,0,1.372-.942h0a1.179,1.179,0,0,0-.943-1.373" fill="#ccd0d9"/><path d="M7801.769-4972.286l-1.679-.318.319-1.708a.8.8,0,0,0-.637-.927.8.8,0,0,0-.927.638l-.319,1.708-1.736-.319a.8.8,0,0,0-.927.637h0a.8.8,0,0,0,.637.927h0l1.736.319-.319,1.708a.8.8,0,0,0,.638.927.8.8,0,0,0,.927-.636h0l.319-1.708,1.679.318a.8.8,0,0,0,.928-.636h0a.8.8,0,0,0-.637-.927h0" fill="#ccd0d9"/><path d="M7487.281-5035.325l-2.535.886-.908-2.574a1.251,1.251,0,0,0-1.6-.761,1.25,1.25,0,0,0-.761,1.594h0l.908,2.574-2.614.932a1.251,1.251,0,0,0-.761,1.6,1.25,1.25,0,0,0,1.6.761l2.613-.932.908,2.574a1.25,1.25,0,0,0,1.6.761,1.25,1.25,0,0,0,.761-1.6h0l-.908-2.574,2.534-.887a1.248,1.248,0,0,0,.761-1.594h0a1.249,1.249,0,0,0-1.595-.76h0" fill="#ccd0d9"/><path d="M7458.479-4908.828l-2.2,1.5-1.531-2.234a1.239,1.239,0,0,0-1.728-.29h0a1.238,1.238,0,0,0-.314,1.693l1.531,2.233-2.265,1.563a1.238,1.238,0,0,0-.321,1.723,1.239,1.239,0,0,0,1.723.321h0l2.266-1.563,1.531,2.234a1.239,1.239,0,0,0,1.729.29h0a1.239,1.239,0,0,0,.313-1.694l-1.531-2.233,2.2-1.5a1.238,1.238,0,0,0,.322-1.721h0a1.237,1.237,0,0,0-1.722-.321h0" fill="#ccd0d9"/><path d="M7490.314-4982.621a5.1,5.1,0,0,0-5.1,5.1h0a5.1,5.1,0,0,0,5.1,5.1h0a5.1,5.1,0,0,0,5.1-5.1h0a5.1,5.1,0,0,0-5.1-5.1h0m0,7.89a2.851,2.851,0,0,1-2.851-2.851,2.852,2.852,0,0,1,2.851-2.851,2.851,2.851,0,0,1,2.852,2.851h0a2.873,2.873,0,0,1-2.852,2.851" fill="#ccd0d9"/><path d="M7927.246-4940.806a4.137,4.137,0,0,0-4.137,4.137,4.137,4.137,0,0,0,4.137,4.137,4.136,4.136,0,0,0,4.137-4.137,4.136,4.136,0,0,0-4.137-4.137m0,6.394a2.311,2.311,0,0,1-2.311-2.31h0a2.31,2.31,0,0,1,2.311-2.31,2.309,2.309,0,0,1,2.31,2.309h0a2.326,2.326,0,0,1-2.31,2.311" fill="#ccd0d9"/><path d="M7548.97-5031.031a5.733,5.733,0,0,0-5.733,5.732,5.732,5.732,0,0,0,5.733,5.732,5.732,5.732,0,0,0,5.732-5.732,5.732,5.732,0,0,0-5.732-5.732m0,8.86a3.2,3.2,0,0,1-3.2-3.2h0a3.2,3.2,0,0,1,3.2-3.2,3.2,3.2,0,0,1,3.2,3.2h0a3.225,3.225,0,0,1-3.2,3.2" fill="#ccd0d9"/><path d="M7768.409-5027.841a4.138,4.138,0,0,0-4.138,4.137,4.137,4.137,0,0,0,4.138,4.138,4.138,4.138,0,0,0,4.138-4.138,4.138,4.138,0,0,0-4.138-4.137m0,6.395a2.311,2.311,0,0,1-2.311-2.311h0a2.311,2.311,0,0,1,2.311-2.311,2.311,2.311,0,0,1,2.311,2.311h0a2.327,2.327,0,0,1-2.311,2.311" fill="#ccd0d9"/></g></g></svg>