<svg xmlns="http://www.w3.org/2000/svg" xmlns:xlink="http://www.w3.org/1999/xlink" width="512" height="322.768" viewBox="0 0 512 322.768"><defs><clipPath id="a"><rect width="505.291" height="197.379" transform="translate(3894.936 -1864.017)" fill="none"/></clipPath></defs><g transform="translate(-3894.936 1938.332)"><path d="M4027-1876.206l-3.881-.736.737-3.948a1.838,1.838,0,0,0-1.473-2.142,1.838,1.838,0,0,0-2.142,1.473l-.735,3.948-4.016-.737a1.839,1.839,0,0,0-2.142,1.473,1.837,1.837,0,0,0,1.473,2.141l4.015.737-.737,3.947a1.839,1.839,0,0,0,1.473,2.142,1.838,1.838,0,0,0,2.142-1.473l.736-3.947,3.881.736a1.838,1.838,0,0,0,2.142-1.473,1.839,1.839,0,0,0-1.473-2.141" fill="#ccd0d9"/><path d="M3940.446-1880.2l-3.881-.736.737-3.948a1.839,1.839,0,0,0-1.517-2.112,1.839,1.839,0,0,0-2.1,1.443l-.735,3.948-4.016-.737a1.838,1.838,0,0,0-2.141,1.473,1.836,1.836,0,0,0,1.472,2.141l4.016.737-.737,3.947a1.838,1.838,0,0,0,1.517,2.112,1.838,1.838,0,0,0,2.1-1.443l.735-3.947,3.881.736a1.838,1.838,0,0,0,2.142-1.472,1.838,1.838,0,0,0-1.473-2.142h0" fill="#ccd0d9"/><path d="M4344.829-1924.283l-2.623-.493.493-2.665a1.242,1.242,0,0,0-1.035-1.419,1.242,1.242,0,0,0-1.407.967l-.494,2.665-2.714-.494a1.243,1.243,0,0,0-1.475.955,1.242,1.242,0,0,0,.955,1.475l.068.013,2.714.493-.493,2.665a1.242,1.242,0,0,0,1.035,1.42,1.242,1.242,0,0,0,1.407-.968l.494-2.665,2.623.494a1.242,1.242,0,0,0,1.419-1.036,1.242,1.242,0,0,0-.967-1.407" fill="#ccd0d9"/><path d="M4265.92-1919.222l-3.022-.573.573-3.074a1.43,1.43,0,0,0-1.177-1.646,1.43,1.43,0,0,0-1.636,1.125l-.573,3.074-3.126-.574a1.431,1.431,0,0,0-1.646,1.178,1.431,1.431,0,0,0,1.125,1.636l3.126.573-.573,3.075a1.43,1.43,0,0,0,1.146,1.667,1.431,1.431,0,0,0,1.668-1.146l.573-3.075,3.022.574a1.431,1.431,0,0,0,1.645-1.178,1.431,1.431,0,0,0-1.124-1.636" fill="#ccd0d9"/><path d="M4288.255-1883.068a7.345,7.345,0,0,0-7.345,7.345,7.345,7.345,0,0,0,7.345,7.346,7.346,7.346,0,0,0,7.346-7.346h0a7.349,7.349,0,0,0-7.346-7.345m0,11.349a4.1,4.1,0,0,1-4.1-4.1,4.1,4.1,0,0,1,4.1-4.1,4.1,4.1,0,0,1,4.1,4.1,4.133,4.133,0,0,1-4.1,4.1" fill="#ccd0d9"/><path d="M4371.8-1867.872a3.652,3.652,0,0,0-3.652,3.652,3.651,3.651,0,0,0,3.652,3.651,3.65,3.65,0,0,0,3.651-3.651,3.652,3.652,0,0,0-3.651-3.652h0m0,5.644a2.039,2.039,0,0,1-2.04-2.039,2.039,2.039,0,0,1,2.04-2.04,2.04,2.04,0,0,1,2.04,2.04h0a2.054,2.054,0,0,1-2.04,2.039" fill="#ccd0d9"/><path d="M3944.54-1842.948a6.055,6.055,0,0,0-6.055,6.055,6.055,6.055,0,0,0,6.055,6.055,6.055,6.055,0,0,0,6.055-6.055,6.059,6.059,0,0,0-6.055-6.055m0,9.358a3.381,3.381,0,0,1-3.381-3.381,3.382,3.382,0,0,1,3.381-3.381,3.381,3.381,0,0,1,3.381,3.381h0a3.406,3.406,0,0,1-3.381,3.381" fill="#ccd0d9"/><path d="M3973.44-1909.471a4.787,4.787,0,0,0-4.787,4.787,4.787,4.787,0,0,0,4.787,4.788,4.789,4.789,0,0,0,4.788-4.788,4.789,4.789,0,0,0-4.788-4.787m0,7.4a2.673,2.673,0,0,1-2.673-2.673,2.674,2.674,0,0,1,2.673-2.674,2.674,2.674,0,0,1,2.674,2.674,2.693,2.693,0,0,1-2.674,2.673" fill="#ccd0d9"/><rect width="18.948" height="3.354" transform="translate(4381.276 -1669.992)" fill="#b1b5c4"/><rect width="36.714" height="3.354" transform="translate(4216.465 -1669.992)" fill="#b1b5c4"/><rect width="54.478" height="3.354" transform="translate(4120.736 -1669.992)" fill="#b1b5c4"/><rect width="26.845" height="3.354" transform="translate(4052.64 -1669.992)" fill="#b1b5c4"/><rect width="109.644" height="3.354" transform="translate(3901.844 -1669.992)" fill="#b1b5c4"/><rect width="19.442" height="3.355" transform="translate(3948.03 -1641.914)" fill="#b1b5c4"/><rect width="35.035" height="3.355" transform="translate(3995.204 -1641.914)" fill="#b1b5c4"/><rect width="15.691" height="3.355" transform="translate(4278.739 -1641.914)" fill="#b1b5c4"/><rect width="67.996" height="3.355" transform="translate(4313.28 -1641.914)" fill="#b1b5c4"/><rect width="17.172" height="3.355" transform="translate(3919.312 -1618.92)" fill="#b1b5c4"/><rect width="17.171" height="3.355" transform="translate(4389.765 -1618.92)" fill="#b1b5c4"/><g clip-path="url(#a)"><path d="M4052.582-1678.329a74.953,74.953,0,0,1-2.363,27.725,58.894,58.894,0,0,1-21.416,32.231q-16.243,12.633-39.4,14.659-22.563,1.974-40.577-7.374a59.263,59.263,0,0,1-26.773-27.424,85.956,85.956,0,0,1-5.877-15.937l-.052-.592q-.285-3.264,3.277-3.577l35.923-3.137q2.961-.259,4.145,2.928a10.4,10.4,0,0,0,1.15,2.891,16.8,16.8,0,0,1,1.073,2,24.968,24.968,0,0,0,9.942,11.1,23.785,23.785,0,0,0,14.31,2.938,24.475,24.475,0,0,0,14.158-5.724,26,26,0,0,0,8.113-13.272q2.443-6.192,1.623-15.692a42.248,42.248,0,0,0-4.019-15.2,20.055,20.055,0,0,0-9.349-11.151,25.727,25.727,0,0,0-14.911-2.885,32.036,32.036,0,0,0-15.095,5.207q-6.786,4.482-8.618,10.923a3.742,3.742,0,0,1-3.6,3.3l-36.516,3.189a3.425,3.425,0,0,1-2.613-.818,3.42,3.42,0,0,1-1.259-2.432l-10.45-119.631a3.441,3.441,0,0,1,.819-2.613,3.445,3.445,0,0,1,2.432-1.26l122.6-10.709a3.469,3.469,0,0,1,2.614.819,3.467,3.467,0,0,1,1.26,2.431l2.513,28.781a3.447,3.447,0,0,1-.818,2.614,3.447,3.447,0,0,1-2.433,1.26l-82.822,7.234a1.315,1.315,0,0,0-1.382,1.239h0a1.3,1.3,0,0,0,.032.373l3.544,43.963q.18,2.08,1.858.736,12.608-9.771,30.121-11.306,20.775-1.815,37.29,7.361a57.146,57.146,0,0,1,24.644,27.011A96.488,96.488,0,0,1,4052.582-1678.329Z" fill="#ccd0d9" stroke="#b1b5c4" stroke-miterlimit="3.999" stroke-width="2.999"/><path d="M4051.115-1678.171a73.186,73.186,0,0,1-2.338,27.2,57.539,57.539,0,0,1-20.888,31.419c-10.554,8.211-23.544,13.04-38.612,14.357h-.039c-14.667,1.282-28.041-1.147-39.745-7.226a58.016,58.016,0,0,1-26.106-26.739,86.581,86.581,0,0,1-5.745-15.544l-.042-.481c-.1-1.16.178-1.819,1.928-1.974l15.889-1.389c3.791,10.524,10.821,25.014,27.592,34.227,7.263,3.991,17.262,5.761,27.445,4.872,20.429-1.784,36.719-16.528,41.514-37.579a59.52,59.52,0,0,0-8.17-44.886c-6.9-10.332-16.6-16.823-28.064-18.774a54.465,54.465,0,0,0-44.46,13.055c-5.634,5.117-10.419,7.6-15.91,8.233l-8.029-91.915,105.608-9.225,1.228,14.057a2.074,2.074,0,0,1-.5,1.528,2.033,2.033,0,0,1-1.412.719l-82.744,7.227a2.977,2.977,0,0,0-.666.078,2.807,2.807,0,0,0-1.745,1.252,2.786,2.786,0,0,0-.36,1.983l3.535,43.864a2.642,2.642,0,0,0,1.429,2.451,2.671,2.671,0,0,0,2.806-.671c8.134-6.307,18-10.012,29.336-11h.009c13.487-1.167,25.752,1.248,36.442,7.188a55.923,55.923,0,0,1,24,26.3A94.68,94.68,0,0,1,4051.115-1678.171Z" fill="#ccd0d9"/><path d="M4099.564-1630.113q-20.595-16.6-23.342-48.062l-6.845-78.368q-2.7-30.87,14.721-50.64t50.069-22.62q32.652-2.853,53.384,13.583t23.424,47.312l6.846,78.369q2.748,31.468-14.8,51.395t-50.207,22.781Q4120.153-1613.516,4099.564-1630.113Zm70.621-32.192q7.154-8.845,5.958-22.508l-7.13-81.634q-1.195-13.65-9.771-21.134t-21.937-6.3q-13.065,1.141-20.216,9.987t-5.958,22.508l7.132,81.634q1.191,13.657,9.771,21.135t21.64,6.331Q4163.032-1653.455,4170.185-1662.305Z" fill="#fff" stroke="#b1b5c4" stroke-miterlimit="3.999" stroke-width="2.999"/><path d="M4268.763-1644.892q-20.595-16.6-23.342-48.062l-6.845-78.369q-2.7-30.868,14.72-50.64t50.071-22.619q32.65-2.853,53.383,13.583t23.425,47.308l6.845,78.369q2.75,31.469-14.8,51.4t-50.206,22.781Q4289.353-1628.294,4268.763-1644.892Zm70.622-32.191q7.149-8.847,5.957-22.51l-7.131-81.632q-1.192-13.652-9.771-21.136t-21.937-6.3q-13.065,1.141-20.215,9.986t-5.957,22.509l7.13,81.633q1.194,13.657,9.77,21.136t21.641,6.33q13.365-1.162,20.516-10.013Z" fill="#ccd0d9" stroke="#b1b5c4" stroke-miterlimit="3.999" stroke-width="2.999"/></g><rect width="118.112" height="29.16" rx="5.953" transform="translate(4059.753 -1926.412) rotate(-5)" fill="#fff" stroke="#b4b6c2" stroke-width="3"/><circle cx="2.411" cy="2.411" r="2.411" transform="translate(4068.215 -1915.119)" fill="#b4b6c2"/><circle cx="2.411" cy="2.411" r="2.411" transform="translate(4075.42 -1915.749)" fill="#b4b6c2"/><circle cx="2.411" cy="2.411" r="2.411" transform="translate(4082.623 -1916.379)" fill="#b4b6c2"/><circle cx="4.821" cy="4.821" r="4.821" transform="translate(4159.499 -1925.259)" fill="#b4b6c2"/><rect width="19.596" height="4.821" rx="1.974" transform="translate(4135.101 -1920.769) rotate(-5)" fill="#b4b6c2"/><rect width="118.112" height="29.16" rx="5.953" transform="translate(4062.621 -1893.626) rotate(-5)" fill="#fff" stroke="#b4b6c2" stroke-width="3"/><circle cx="2.411" cy="2.411" r="2.411" transform="translate(4071.084 -1882.332)" fill="#b4b6c2"/><circle cx="2.411" cy="2.411" r="2.411" transform="translate(4078.288 -1882.962)" fill="#b4b6c2"/><circle cx="2.411" cy="2.411" r="2.411" transform="translate(4085.492 -1883.593)" fill="#b4b6c2"/><circle cx="4.821" cy="4.821" r="4.821" transform="translate(4162.367 -1892.473)" fill="#b4b6c2"/><rect width="19.596" height="4.821" rx="1.974" transform="translate(4137.969 -1887.982) rotate(-5)" fill="#b4b6c2"/><rect width="118.112" height="29.16" rx="5.953" transform="translate(4065.478 -1860.975) rotate(-5)" fill="#fff" stroke="#b4b6c2" stroke-width="3"/><circle cx="2.411" cy="2.411" r="2.411" transform="translate(4073.94 -1849.681)" fill="#b4b6c2"/><circle cx="2.411" cy="2.411" r="2.411" transform="translate(4081.145 -1850.311)" fill="#b4b6c2"/><circle cx="2.411" cy="2.411" r="2.411" transform="translate(4088.348 -1850.942)" fill="#b4b6c2"/><circle cx="4.821" cy="4.821" r="4.821" transform="translate(4165.224 -1859.821)" fill="#b4b6c2"/><rect width="19.596" height="4.821" rx="1.974" transform="translate(4140.826 -1855.331) rotate(-5)" fill="#b4b6c2"/><path d="M4246.023-1859.436l-23.385-59.355a12.63,12.63,0,0,0-16.644-6.484,12.633,12.633,0,0,0-4.91,3.835c-.021.027-.038.055-.059.082l-36.94,51.762a12.624,12.624,0,0,0,2.258,17.708,12.626,12.626,0,0,0,6.189,2.546l60.183,7.4a12.757,12.757,0,0,0,11.839-4.974A12.448,12.448,0,0,0,4246.023-1859.436Zm-41.551-41.952a5.05,5.05,0,0,1,5.629-4.4,5.05,5.05,0,0,1,4.4,5.629l-2.464,20.05a5.052,5.052,0,0,1-5.629,4.4,5.051,5.051,0,0,1-4.4-5.629h0Zm-.532,45.73a7.575,7.575,0,0,1-6.6-8.44,7.576,7.576,0,0,1,8.439-6.6,7.575,7.575,0,0,1,6.6,8.44v.005a7.585,7.585,0,0,1-8.439,6.593Z" fill="#ccd0d9" stroke="#b1b5c4" stroke-miterlimit="3.999" stroke-width="3"/><ellipse cx="24.703" cy="5.923" rx="24.703" ry="5.923" transform="translate(4108.379 -1818.087) rotate(-7.018)" fill="#ccd0d9"/></g></svg>