<svg xmlns="http://www.w3.org/2000/svg" xmlns:xlink="http://www.w3.org/1999/xlink" width="512" height="349.367" viewBox="0 0 512 349.367"><defs><clipPath id="a"><rect width="512" height="200" transform="translate(129 4651)" fill="#fff" stroke="#707070" stroke-width="1"/></clipPath></defs><g transform="translate(-129 -4552.273)"><g transform="translate(-628.7 2390.225)"><rect width="19.7" height="3.4" transform="translate(794.8 2484.716)" fill="#b1b5c4"/><rect width="35.5" height="3.4" transform="translate(842.6 2484.716)" fill="#b1b5c4"/><rect width="68.899" height="3.4" transform="translate(1164.9 2484.716)" fill="#b1b5c4"/><rect width="17.4" height="3.4" transform="translate(765.7 2508.016)" fill="#b1b5c4"/><rect width="17.399" height="3.4" transform="translate(1242.4 2508.016)" fill="#b1b5c4"/></g><g clip-path="url(#a)"><g transform="matrix(0.996, -0.087, 0.087, 0.996, -522.053, 1225.957)"><g transform="translate(-8192.792 6380.041)"><path d="M8685.616-2707.3a75.975,75.975,0,0,1-4.831,27.784,59.694,59.694,0,0,1-24.463,30.653q-17.517,11.325-41.071,11.325-22.954,0-40.317-11.023a60.069,60.069,0,0,1-24.613-30.049,87.2,87.2,0,0,1-4.528-16.61v-.6q0-3.319,3.623-3.322h36.542q3.015,0,3.926,3.322a10.5,10.5,0,0,0,.906,3.02,17.119,17.119,0,0,1,.906,2.114,25.3,25.3,0,0,0,9.06,12.08,24.1,24.1,0,0,0,14.193,4.228,24.806,24.806,0,0,0,14.8-4.53,26.355,26.355,0,0,0,9.362-12.684q3.013-6.037,3.021-15.7a42.833,42.833,0,0,0-2.718-15.7,20.327,20.327,0,0,0-8.456-12.08,26.071,26.071,0,0,0-14.8-4.228,32.489,32.489,0,0,0-15.7,3.926q-7.248,3.927-9.664,10.268a3.793,3.793,0,0,1-3.927,3.02h-37.149a3.477,3.477,0,0,1-2.566-1.057,3.473,3.473,0,0,1-1.058-2.567v-121.706a3.487,3.487,0,0,1,1.058-2.567,3.49,3.49,0,0,1,2.566-1.057h124.727a3.511,3.511,0,0,1,2.566,1.057,3.512,3.512,0,0,1,1.058,2.567v29.28a3.5,3.5,0,0,1-1.058,2.567,3.491,3.491,0,0,1-2.566,1.057h-84.259a1.333,1.333,0,0,0-1.51,1.131,1.37,1.37,0,0,0,0,.379l-.3,44.7q0,2.116,1.812.906,13.591-8.755,31.408-8.758,21.135,0,37,10.721a57.916,57.916,0,0,1,22.5,29.445A97.807,97.807,0,0,1,8685.616-2707.3Z" fill="#ccd0d9" stroke="#b1b5c4" stroke-width="3"/><path d="M8684.12-2707.27a74.108,74.108,0,0,1-4.76,27.26,58.3,58.3,0,0,1-23.86,29.88c-11.38,7.36-24.92,11.09-40.25,11.09h-.04c-14.92,0-28.21-3.63-39.49-10.8a58.8,58.8,0,0,1-24-29.3,87.788,87.788,0,0,1-4.43-16.2v-.49c0-1.18.34-1.82,2.12-1.82h16.17c2.9,10.96,8.72,26.21,24.84,36.99,6.98,4.67,16.92,7.34,27.28,7.34,20.78,0,38.53-13.45,45.229-34.28a60.327,60.327,0,0,0-4.29-46.04c-6.06-11.04-15.279-18.45-26.68-21.43a55.2,55.2,0,0,0-46.04,9.26c-6.14,4.67-11.189,6.76-16.79,6.91v-93.51h107.44v14.3a2.109,2.109,0,0,1-.641,1.5,2.059,2.059,0,0,1-1.489.6H8590.26a3.072,3.072,0,0,0-.68.02,2.836,2.836,0,0,0-1.87,1.11,2.823,2.823,0,0,0-.54,1.97l-.3,44.6a2.679,2.679,0,0,0,1.229,2.6,2.706,2.706,0,0,0,2.891-.43c8.77-5.65,19.06-8.52,30.59-8.52h.01c13.72.01,25.891,3.53,36.16,10.47a56.675,56.675,0,0,1,21.91,28.67A95.983,95.983,0,0,1,8684.12-2707.27Z" fill="#ccd0d9"/></g><path d="M7441.983-2936.38q-19.329-18.573-19.328-50.585v-79.728q0-31.405,19.328-49.83t52.548-18.422q33.219,0,52.7,18.422t19.48,49.83v79.728q0,32.015-19.48,50.585t-52.7,18.573Q7461.307-2917.807,7441.983-2936.38Zm74.142-26.274q8-8.3,8-22.2v-83.05q0-13.887-8-22.2t-21.594-8.305q-13.291,0-21.291,8.305t-8,22.2v83.05q0,13.895,8,22.2t21.291,8.3Q7508.122-2954.349,7516.125-2962.654Z" transform="translate(-6905.641 6661.923)" fill="#fff" stroke="#b1b5c4" stroke-width="3"/><path d="M7650.966-2958.275a1.207,1.207,0,0,0,1.208.6h81.842a3.506,3.506,0,0,1,2.566,1.057,3.51,3.51,0,0,1,1.058,2.567v29.294a3.493,3.493,0,0,1-1.058,2.567,3.486,3.486,0,0,1-2.566,1.057h-135.9a3.471,3.471,0,0,1-2.566-1.057,3.474,3.474,0,0,1-1.058-2.567v-27.784a6.146,6.146,0,0,1,1.813-4.53q14.793-14.5,30.2-31.559t19.328-21.291q8.452-9.966,17.214-19.026,27.477-30.5,27.482-45.3a22.332,22.332,0,0,0-7.549-17.365q-7.554-6.8-19.63-6.8t-19.63,6.8q-7.552,6.8-7.551,17.969v7.55a3.493,3.493,0,0,1-1.057,2.567,3.488,3.488,0,0,1-2.567,1.057h-35.636a3.472,3.472,0,0,1-2.566-1.057,3.475,3.475,0,0,1-1.058-2.567v-14.194a51.908,51.908,0,0,1,10.269-28.841,59.574,59.574,0,0,1,24.915-19.177q15.549-6.639,34.881-6.644,21.439,0,37.3,8t24.461,21.593a55.284,55.284,0,0,1,8.607,30.2,60.032,60.032,0,0,1-6.342,25.972q-6.341,13.293-19.025,28.69-9.365,11.778-20.235,23.254t-32.313,33.22l-4.53,4.53A.98.98,0,0,0,7650.966-2958.275Z" transform="translate(-6905.641 6661.923)" fill="#ccd0d9" stroke="#b1b5c4" stroke-width="3"/></g></g><rect width="118" height="3.399" transform="translate(129 4847.601)" fill="#b1b5c4"/><rect width="25" height="3.399" transform="translate(290 4847.601)" fill="#b1b5c4"/><rect width="55" height="3.399" transform="translate(358 4847.601)" fill="#b1b5c4"/><rect width="8.901" height="3.399" transform="translate(630.099 4847.601)" fill="#b1b5c4"/><path d="M0,0H40L39,3.4H0Z" transform="translate(456 4847.601)" fill="#b1b5c4"/><g transform="translate(-3829.894 10264.295) rotate(-9)"><path d="M4936.744-4918.4a5.72,5.72,0,0,1-1.082-.1,5.718,5.718,0,0,1-4.54-6.689,74.738,74.738,0,0,1,29.965-46.866,5.719,5.719,0,0,1,7.978,1.313,5.718,5.718,0,0,1-1.312,7.977,63.346,63.346,0,0,0-25.4,39.726A5.717,5.717,0,0,1,4936.744-4918.4Z" fill="#fff" stroke="#b1b5c4" stroke-width="3"/><path d="M5121.818-4918.4a5.7,5.7,0,0,0,1.081-.1,5.717,5.717,0,0,0,4.54-6.689,74.733,74.733,0,0,0-29.964-46.866,5.718,5.718,0,0,0-7.977,1.313,5.716,5.716,0,0,0,1.312,7.977,63.346,63.346,0,0,1,25.4,39.726A5.719,5.719,0,0,0,5121.818-4918.4Z" transform="translate(-23.845)" fill="#fff" stroke="#b1b5c4" stroke-width="3"/><path d="M5062.59-4946.8a61.111,61.111,0,0,0-43.426-17.908,61.115,61.115,0,0,0-43.434,17.908,60.551,60.551,0,0,0-17.989,43.232,60.569,60.569,0,0,0,17.989,43.24,61.186,61.186,0,0,0,43.434,17.908,61.182,61.182,0,0,0,43.426-17.908,60.637,60.637,0,0,0,17.989-43.24A60.584,60.584,0,0,0,5062.59-4946.8Zm-2.9,71.893a11.577,11.577,0,0,1-11.6,11.552,11.569,11.569,0,0,1-5.743-1.513,45.184,45.184,0,0,1-23.183,6.364,45.212,45.212,0,0,1-45.268-45.064,45.213,45.213,0,0,1,45.268-45.065,45.212,45.212,0,0,1,45.267,45.065,44.566,44.566,0,0,1-6.283,22.894A11.5,11.5,0,0,1,5059.686-4874.909Z" transform="translate(-2.756 -0.868)" fill="#ccd0d9" stroke="#b1b5c4" stroke-width="3"/><path d="M5062.377-4861.185a3.5,3.5,0,0,1-2.962,1.624,3.448,3.448,0,0,1-1.873-.552l-.354-.222c-4.322-2.756-29.454-18.864-34.708-24.11a11,11,0,0,1,0-15.524,10.989,10.989,0,0,1,7.795-3.241,10.979,10.979,0,0,1,7.761,3.209c5.246,5.246,21.346,30.369,24.11,34.7.09.141.165.265.231.355A3.522,3.522,0,0,1,5062.377-4861.185Z" transform="translate(-13.511 -12.635)" fill="#ccd0d9" stroke="#b1b5c4" stroke-width="3"/></g><ellipse cx="25.025" cy="6" rx="25.025" ry="6" transform="translate(347.278 4706.348) rotate(-7)" fill="#ccd0d9"/><g transform="translate(-1.689 2297.932)"><path d="M312.517,15.016l-3.933-.746.747-4a1.862,1.862,0,0,0-3.663-.678l-.745,4-4.069-.746a1.862,1.862,0,0,0-.678,3.662l4.069.746-.747,4a1.862,1.862,0,0,0,3.663.678l.745-4,3.933.746a1.862,1.862,0,0,0,.678-3.662" transform="translate(-82.267 2356.128)" fill="#ccd0d9"/><path d="M312.518,15.016l-3.933-.746.747-4a1.863,1.863,0,0,0-3.663-.678l-.745,4-4.069-.746a1.862,1.862,0,1,0-.678,3.662l4.069.746-.747,4a1.863,1.863,0,0,0,3.663.678l.745-4,3.933.746a1.862,1.862,0,0,0,.678-3.662" transform="translate(-155.547 2332.572)" fill="#ccd0d9"/><path d="M308.022,12.762l-2.658-.5.5-2.7a1.259,1.259,0,0,0-2.475-.458l-.5,2.7-2.75-.5a1.259,1.259,0,1,0-.458,2.475l2.75.5-.5,2.7a1.259,1.259,0,0,0,2.475.458l.5-2.7,2.658.5a1.259,1.259,0,0,0,.458-2.475" transform="translate(283.353 2308.344)" fill="#ccd0d9"/><path d="M306.112,11.805,304,11.4l.4-2.153a1,1,0,0,0-1.971-.365l-.4,2.153-2.19-.4a1,1,0,0,0-.365,1.971l2.19.4-.4,2.153a1,1,0,0,0,1.971.365l.4-2.153,2.117.4a1,1,0,0,0,.365-1.971" transform="translate(151.065 2356.128)" fill="#ccd0d9"/><path d="M375.4,79.116a5.9,5.9,0,1,0,5.9,5.9,5.9,5.9,0,0,0-5.9-5.9m0,9.111a3.292,3.292,0,1,1,3.292-3.292,3.317,3.317,0,0,1-3.292,3.292" transform="translate(135.21 2245.396)" fill="#ccd0d9"/><path d="M373.2,79.116a3.7,3.7,0,1,0,3.7,3.7,3.7,3.7,0,0,0-3.7-3.7m0,5.719a2.067,2.067,0,1,1,2.067-2.067,2.082,2.082,0,0,1-2.067,2.067" transform="translate(108.599 2191.171)" fill="#ccd0d9"/><path d="M375.635,79.116a6.135,6.135,0,1,0,6.135,6.135,6.138,6.138,0,0,0-6.135-6.135m0,9.482a3.426,3.426,0,1,1,3.426-3.426,3.452,3.452,0,0,1-3.426,3.426" transform="translate(-188.12 2217.125)" fill="#ccd0d9"/><path d="M374.351,79.116a4.851,4.851,0,1,0,4.851,4.851,4.853,4.853,0,0,0-4.851-4.851m0,7.5a2.709,2.709,0,1,1,2.709-2.709,2.729,2.729,0,0,1-2.709,2.709" transform="translate(-123.001 2190.02)" fill="#ccd0d9"/></g></g></svg>