<svg xmlns="http://www.w3.org/2000/svg" version="1.1" xmlns:xlink="http://www.w3.org/1999/xlink" xmlns:svgjs="http://svgjs.com/svgjs" width="1440" height="560" preserveAspectRatio="none" viewBox="0 0 1440 560"><g mask="url(&quot;#SvgjsMask1016&quot;)" fill="none"><path d="M52.051,129.476C79.147,129.24,103.762,113.166,116.275,89.131C127.932,66.739,122.067,40.776,109.68,18.779C97.002,-3.735,77.874,-24.043,52.051,-24.915C24.946,-25.83,0.776,-8.868,-12.737,14.646C-26.2,38.074,-27.418,66.732,-14.14,90.266C-0.634,114.204,24.567,129.715,52.051,129.476" fill="rgba(28, 83, 142, 0.4)" class="triangle-float2"></path><path d="M182.22578786018298 94.59109614015L103.35456531215327-53.74409946014967 33.890592259883306 173.46231868817972z" fill="rgba(28, 83, 142, 0.4)" class="triangle-float3"></path><path d="M-83.76 9.09 a92.85 92.85 0 1 0 185.7 0 a92.85 92.85 0 1 0 -185.7 0z" fill="rgba(28, 83, 142, 0.4)" class="triangle-float3"></path><path d="M1223.05 30.29 a135.24 135.24 0 1 0 270.48 0 a135.24 135.24 0 1 0 -270.48 0z" fill="rgba(28, 83, 142, 0.4)" class="triangle-float1"></path><path d="M1495.9366377853826 125.94577430786123L1458.1448606556132-37.7483965760583 1332.242466901463 163.73755143763051z" fill="rgba(28, 83, 142, 0.4)" class="triangle-float3"></path><path d="M1240.8 12.52 a99.72 99.72 0 1 0 199.44 0 a99.72 99.72 0 1 0 -199.44 0z" fill="rgba(28, 83, 142, 0.4)" class="triangle-float1"></path><path d="M31.788,538.934C54.458,538.977,77.776,532.498,89.834,513.301C102.597,492.981,103.016,466.344,90.074,446.137C77.967,427.234,54.179,421.069,31.788,422.671C12.21,424.072,-3.091,437.007,-13.646,453.556C-25.32,471.86,-36.074,493.915,-25.875,513.08C-15.269,533.011,9.211,538.891,31.788,538.934" fill="rgba(28, 83, 142, 0.4)" class="triangle-float1"></path><path d="M86.622,648.013C125.669,649.184,160.176,622.094,177.376,587.019C192.803,555.561,182.544,519.683,164.187,489.84C146.876,461.697,119.604,441.449,86.622,439.476C49.698,437.268,9.556,447.415,-8.871,479.489C-27.25,511.479,-13.359,549.746,4.83,581.845C23.36,614.546,49.053,646.886,86.622,648.013" fill="rgba(28, 83, 142, 0.4)" class="triangle-float3"></path><path d="M108.616,663.559C149.429,663.595,191.873,651.805,212.841,616.79C234.289,580.972,226.106,536.962,206.494,500.106C185.365,460.401,153.498,423.845,108.616,420.929C59.138,417.714,9.169,441.984,-14.085,485.775C-36.232,527.481,-22.118,577.744,4.705,616.609C27.844,650.136,67.879,663.523,108.616,663.559" fill="rgba(28, 83, 142, 0.4)" class="triangle-float3"></path><path d="M1361.0796099257916 633.9879915264036L1498.6971533663423 537.6271502194278 1402.3363120593665 400.0096067788772 1264.7187686188158 496.370448085853z" fill="rgba(28, 83, 142, 0.4)" class="triangle-float1"></path><path d="M1203.85 497.48 a173.63 173.63 0 1 0 347.26 0 a173.63 173.63 0 1 0 -347.26 0z" fill="rgba(28, 83, 142, 0.4)" class="triangle-float1"></path><path d="M1285.9098875068983 415.67926600558127L1294.7023281557128 583.4490278443496 1462.4720899944814 574.656587195535 1453.6796493456666 406.8868253567666z" fill="rgba(28, 83, 142, 0.4)" class="triangle-float1"></path></g><defs><mask id="SvgjsMask1016"><rect width="1440" height="560" fill="#ffffff"></rect></mask><style>
            @keyframes float1 {
                0%{transform: translate(0, 0)}
                50%{transform: translate(-10px, 0)}
                100%{transform: translate(0, 0)}
            }

            .triangle-float1 {
                animation: float1 5s infinite;
            }

            @keyframes float2 {
                0%{transform: translate(0, 0)}
                50%{transform: translate(-5px, -5px)}
                100%{transform: translate(0, 0)}
            }

            .triangle-float2 {
                animation: float2 4s infinite;
            }

            @keyframes float3 {
                0%{transform: translate(0, 0)}
                50%{transform: translate(0, -10px)}
                100%{transform: translate(0, 0)}
            }

            .triangle-float3 {
                animation: float3 6s infinite;
            }
        </style></defs></svg>