<svg xmlns="http://www.w3.org/2000/svg">
    <defs>
        <symbol id="icon_link" viewBox="0 0 24 24">
            <path id="prefix__Path_2495" d="M0 0h24v24H0z" data-name="Path 2495" style="fill:none" />
            <path id="prefix__Path_2496" d="M17.657 14.828l-1.414-1.414L17.657 12A4 4 0 0 0 12 6.343l-1.414 1.414-1.414-1.414 1.414-1.414a6 6 0 1 1 8.485 8.485l-1.414 1.414zm-2.829 2.829l-1.414 1.414a6 6 0 1 1-8.485-8.485l1.414-1.414 1.414 1.414L6.343 12A4 4 0 0 0 12 17.657l1.414-1.414zm0-9.9l1.415 1.415-7.071 7.07-1.415-1.414 7.071-7.07z" data-name="Path 2496" />
        </symbol>
        <symbol id="submitfly" viewBox="0 0 24 24">
            <path d="m8.75 17.612v4.638c0 .324.208.611.516.713.077.025.156.037.234.037.234 0 .46-.11.604-.306l2.713-3.692z" />
            <path d="m23.685.139c-.23-.163-.532-.185-.782-.054l-22.5 11.75c-.266.139-.423.423-.401.722.023.3.222.556.505.653l6.255 2.138 13.321-11.39-10.308 12.419 10.483 3.583c.078.026.16.04.242.04.136 0 .271-.037.39-.109.19-.116.319-.311.352-.53l2.75-18.5c.041-.28-.077-.558-.307-.722z" />
        </symbol>
        <symbol id="share-digg" viewBox="0 0 24 24">
            <g transform="translate(-848 -3519)">
                <g transform="translate(-15 595)">
                    <g transform="translate(863 2924)">
                        <rect fill="none" width="24" height="24" />
                    </g>
                </g>
                <g transform="translate(849 3519.5)">
                    <path d="M7.186,4.5H9.393V6.695H7.186Z" transform="translate(-0.59)" />
                    <path d="M23.488,8.078H17.761v7.5H21.28v1.226H17.761v1.756h5.727ZM21.28,13.816H19.955V9.844H21.28Z" transform="translate(-1.459 -0.294)" />
                    <path d="M7.186,8.077H9.393v7.5H7.186Z" transform="translate(-0.59 -0.294)" />
                    <path d="M5.709,4.5H3.514V7.783H0v7.5H5.709ZM3.515,13.522H2.19V9.55H3.515Z" />
                    <path d="M16.287,8.078H10.552v7.5h3.532v1.226H10.552v1.756h5.735ZM14.08,13.816H12.755V9.844H14.08Z" transform="translate(-0.867 -0.294)" />
                </g>
            </g>
        </symbol>
        <symbol id="share-email" viewBox="0 0 24 24">
            <g transform="translate(-1102 -3519)">
                <g transform="translate(1103 3459)">
                    <g transform="translate(0 64)">
                        <path d="M7.076,65.339C10.1,67.9,15.394,72.4,16.951,73.8a.92.92,0,0,0,1.331,0c1.559-1.4,6.857-5.9,9.877-8.461a.458.458,0,0,0,.064-.632A1.82,1.82,0,0,0,26.785,64H8.45a1.82,1.82,0,0,0-1.439.706A.458.458,0,0,0,7.076,65.339Z" transform="translate(-6.617 -64)" />
                        <path d="M21.736,126.454a.456.456,0,0,0-.489.066C17.9,129.359,13.624,133,12.28,134.21a1.856,1.856,0,0,1-2.559,0c-1.433-1.291-6.233-5.371-8.966-7.688a.458.458,0,0,0-.755.35V138.4a1.835,1.835,0,0,0,1.833,1.833H20.168A1.835,1.835,0,0,0,22,138.4V126.87A.458.458,0,0,0,21.736,126.454Z" transform="translate(0 -123.73)" />
                    </g>
                </g>
            </g>
        </symbol>
        <symbol id="share-facebook" viewBox="0 0 24 24">
            <g transform="translate(-146 -3521)">
                <g transform="translate(114.71 3522)">
                    <path fill="currentColor" d="M44.709,22.011V11.971h3.368l.505-3.914H44.709v-2.5c0-1.133.313-1.9,1.939-1.9H48.72V.153A28.078,28.078,0,0,0,45.7,0c-2.988,0-5.033,1.824-5.033,5.172V8.058H37.29v3.914h3.379v10.04Z" />
                </g>
            </g>
        </symbol>
        <symbol id="share-linkedin" viewBox="0 0 24 24">
            <g transform="translate(-1216 -3516)">
                <g transform="translate(1216.968 3516.968)">
                    <path d="M22.743,22.675h.006V14.582c0-3.959-.852-7.008-5.48-7.008a4.8,4.8,0,0,0-4.327,2.378h-.064V7.944H8.489v14.73h4.569V15.38c0-1.92.364-3.777,2.742-3.777,2.343,0,2.378,2.192,2.378,3.9v7.172Z" transform="translate(-0.748 -0.675)" />
                    <path d="M.4,7.977H4.97v14.73H.4Z" transform="translate(-0.032 -0.707)" />
                    <path d="M2.649,0A2.662,2.662,0,1,0,5.3,2.649,2.65,2.65,0,0,0,2.649,0Z" />
                </g>
            </g>
        </symbol>
        <symbol id="share-pinterest" viewBox="0 0 24 24">
            <g transform="translate(-613 -3519)">
                <path d="M11.636,0C5.508,0,2.25,3.927,2.25,8.209c0,1.985,1.109,4.462,2.886,5.247.507.228.44-.05.876-1.718a.4.4,0,0,0-.1-.388c-2.539-2.937-.5-8.975,5.357-8.975,8.47,0,6.888,11.721,1.474,11.721a2,2,0,0,1-2.106-2.451c.4-1.614,1.179-3.35,1.179-4.513,0-2.932-4.369-2.5-4.369,1.388a4.7,4.7,0,0,0,.425,2.011S6.471,16.209,6.21,17.27a15.07,15.07,0,0,0,.1,4.954.147.147,0,0,0,.268.068A17.567,17.567,0,0,0,8.9,17.934c.173-.638.884-3.228.884-3.228a3.862,3.862,0,0,0,3.259,1.554c4.281,0,7.376-3.763,7.376-8.433C20.4,3.35,16.568,0,11.636,0Z" transform="translate(613.75 3520)" />
            </g>
        </symbol>
        <symbol id="share-reddit" viewBox="0 0 24 24">
            <g transform="translate(-1460 -3521)">
                <path d="M19.548,8.574a2.454,2.454,0,0,0-1.756.748,11.792,11.792,0,0,0-6.358-1.99L12.718,1.46l4.089.931a1.835,1.835,0,0,0,1.817,1.845,1.869,1.869,0,1,0-1.636-2.7L12.471.519a.432.432,0,0,0-.511.335l-1.41,6.473A11.938,11.938,0,0,0,4.23,9.341a2.45,2.45,0,0,0-1.78-.767,2.482,2.482,0,0,0-1.061,4.71,5.344,5.344,0,0,0-.121,1.162c0,3.943,4.377,7.137,9.751,7.137,5.4,0,9.774-3.195,9.774-7.137a4.57,4.57,0,0,0-.143-1.182,2.483,2.483,0,0,0-1.1-4.691ZM5.134,13.533a1.829,1.829,0,1,1,1.841,1.845,1.847,1.847,0,0,1-1.841-1.845Zm9.936,4.4c-1.688,1.712-6.45,1.712-8.138,0a.444.444,0,0,1,.612-.644c1.289,1.341,5.564,1.364,6.909,0a.446.446,0,0,1,.617.644Zm-.038-2.549a1.856,1.856,0,1,1,1.841-1.843A1.833,1.833,0,0,1,15.032,15.382Z" transform="translate(1461 3521.5)" />
            </g>
        </symbol>
        <symbol id="share-skype" viewBox="0 0 24 24">
            <g transform="translate(-391 -3693)">
                <g transform="translate(392 3694)">
                    <path d="M21.368,13.335a10.2,10.2,0,0,0,.242-2.221A10.42,10.42,0,0,0,11.117.769,10.737,10.737,0,0,0,9.322.92,6.123,6.123,0,0,0,6.086,0,6.042,6.042,0,0,0,0,6,5.913,5.913,0,0,0,.836,9.035a10.253,10.253,0,0,0-.213,2.079A10.421,10.421,0,0,0,11.116,21.461a10.782,10.782,0,0,0,1.922-.173A6.137,6.137,0,0,0,15.916,22,6.043,6.043,0,0,0,22,16,5.915,5.915,0,0,0,21.368,13.335ZM16.5,16.059a4.756,4.756,0,0,1-2.133,1.594,8.626,8.626,0,0,1-3.278.571,8.092,8.092,0,0,1-3.758-.778A4.877,4.877,0,0,1,5.6,15.932a3.252,3.252,0,0,1-.671-1.869,1.286,1.286,0,0,1,.437-.975,1.548,1.548,0,0,1,1.1-.4A1.4,1.4,0,0,1,7.389,13,2.373,2.373,0,0,1,8,13.889a5.116,5.116,0,0,0,.6,1.052,2.334,2.334,0,0,0,.881.674,3.686,3.686,0,0,0,1.524.268,3.731,3.731,0,0,0,2.113-.543,1.511,1.511,0,0,0,.777-1.291,1.268,1.268,0,0,0-.4-.98,2.893,2.893,0,0,0-1.119-.611c-.477-.146-1.125-.305-1.925-.47a15.385,15.385,0,0,1-2.75-.811,4.534,4.534,0,0,1-1.8-1.3A3.2,3.2,0,0,1,5.219,7.8a3.329,3.329,0,0,1,.712-2.093,4.417,4.417,0,0,1,2.038-1.4,9.016,9.016,0,0,1,3.079-.478,8.411,8.411,0,0,1,2.449.319A5.421,5.421,0,0,1,15.229,5a3.715,3.715,0,0,1,1.02,1.132,2.47,2.47,0,0,1,.329,1.18,1.4,1.4,0,0,1-.43,1,1.452,1.452,0,0,1-1.078.444,1.344,1.344,0,0,1-.9-.278,3.366,3.366,0,0,1-.627-.822,3.447,3.447,0,0,0-.942-1.15,2.984,2.984,0,0,0-1.753-.4,3.318,3.318,0,0,0-1.818.443,1.18,1.18,0,0,0-.65.991.9.9,0,0,0,.21.6,1.857,1.857,0,0,0,.626.469,4.654,4.654,0,0,0,.844.323c.291.08.78.2,1.452.352.85.179,1.629.381,2.32.6a7.434,7.434,0,0,1,1.8.807,3.56,3.56,0,0,1,1.182,1.231,3.653,3.653,0,0,1,.426,1.823A3.9,3.9,0,0,1,16.5,16.059Z" />
                </g>
            </g>
        </symbol>
        <symbol id="share-telegram" viewBox="0 0 24 24">
            <path fill="currentColor" d="m2.0729,10.7932s10.00821,-4.10737 13.47922,-5.55368c1.33061,-0.57847 5.84296,-2.42975 5.84296,-2.42975s2.08267,-0.80986 1.90909,1.15703c-0.05789,0.80994 -0.52067,3.64459 -0.98345,6.71071c-0.69425,4.33884 -1.44631,9.08257 -1.44631,9.08257s-0.11569,1.33061 -1.09914,1.562s-2.60334,-0.80986 -2.89253,-1.04133c-0.23147,-0.1735 -4.33884,-2.77684 -5.84296,-4.04956c-0.40497,-0.34708 -0.86775,-1.04125 0.05781,-1.8512c2.08267,-1.90909 4.57023,-4.28095 6.07434,-5.78507c0.69425,-0.69425 1.38842,-2.31406 -1.50411,-0.34716c-4.10737,2.83473 -8.15693,5.49587 -8.15693,5.49587s-0.92564,0.57847 -2.66114,0.05781c-1.73558,-0.52059 -3.76037,-1.21484 -3.76037,-1.21484s-1.38834,-0.86775 0.98353,-1.79339z"/>
        </symbol>
        <symbol id="share-tumblr" viewBox="0 0 24 24">
            <g transform="translate(-732 -2913)">
                <path d="M152.6,41.5h.357a7.545,7.545,0,0,0,3.139-.781l-.676-1.971a7.215,7.215,0,0,1-1.355.189h-.118a2.909,2.909,0,0,1-2.545-1.192,3.626,3.626,0,0,1-.589-2.053V27.358h4.863V25.567h-4.846V19.5h-2a9.216,9.216,0,0,1-1.181,3.274,7.529,7.529,0,0,1-3.479,3.032v1.553H146.6v8.689C146.6,38.207,148.2,41.409,152.6,41.5Z" transform="translate(593.833 2894.5)" />
            </g>
        </symbol>
        <symbol id="share-twitter" viewBox="0 0 24 24">
            <g transform="translate(-501 -3520)">
                <path d="M19.741,6.708A9,9,0,0,0,22,4.367h0a9.42,9.42,0,0,1-2.6.712,4.486,4.486,0,0,0,1.985-2.493,9.025,9.025,0,0,1-2.86,1.092,4.51,4.51,0,0,0-7.8,3.084,4.644,4.644,0,0,0,.1,1.029,12.77,12.77,0,0,1-9.3-4.718A4.51,4.51,0,0,0,2.918,9.1,4.458,4.458,0,0,1,.88,8.544v.05a4.532,4.532,0,0,0,3.614,4.432,4.485,4.485,0,0,1-1.183.149,3.981,3.981,0,0,1-.853-.077A4.555,4.555,0,0,0,6.672,16.24a9.067,9.067,0,0,1-5.593,1.923A8.531,8.531,0,0,1,0,18.1a12.7,12.7,0,0,0,6.919,2.024A12.75,12.75,0,0,0,19.741,6.708Z" transform="translate(502 3520.75)" />
            </g>
        </symbol>
        <symbol id="share-wechat" viewBox="0 0 24 24">
            <g transform="translate(-256 -3700)">
                <g transform="translate(257 3670)">
                    <g transform="translate(0 32)">
                        <g transform="translate(0 0)">
                            <path d="M8.173,32C3.659,32,0,35.05,0,38.811a6.447,6.447,0,0,0,3.121,5.337L2.043,46.3l2.935-1.257a9.279,9.279,0,0,0,1.982.493,5.7,5.7,0,0,1-.15-1.279c0-3.755,3.666-6.811,8.173-6.811a9.886,9.886,0,0,1,1.214.083C15.478,34.382,12.161,32,8.173,32ZM5.449,37.108A1.022,1.022,0,1,1,6.47,36.086,1.022,1.022,0,0,1,5.449,37.108Zm5.449,0a1.022,1.022,0,1,1,1.022-1.022A1.022,1.022,0,0,1,10.9,37.108Z" transform="translate(0 -32)" />
                        </g>
                    </g>
                    <g transform="translate(8.173 38.811)">
                        <g transform="translate(0 0)">
                            <path d="M205.621,197.449c0-3.009-3.05-5.449-6.811-5.449S192,194.44,192,197.449s3.05,5.449,6.811,5.449a8.321,8.321,0,0,0,1.778-.211l3.671,1.573-1.27-2.538A5.133,5.133,0,0,0,205.621,197.449Zm-8.854-.341a1.022,1.022,0,1,1,1.022-1.022A1.022,1.022,0,0,1,196.767,197.108Zm4.086,0a1.022,1.022,0,1,1,1.022-1.022A1.022,1.022,0,0,1,200.854,197.108Z" transform="translate(-192 -192)" />
                        </g>
                    </g>
                </g>
            </g>
        </symbol>
        <symbol id="share-weibo" viewBox="0 0 24 24">
            <g transform="translate(-142 -3703)">
                <g transform="translate(143 3703.5)">
                    <path d="M23.289,7.7c.094,1.206-.113,2.651-.922,2.722-1.322.116-.633-1.316-.615-2.177A4.244,4.244,0,0,0,17.507,4.01c-.6,0-2,.4-1.784-.847.1-.55.571-.543,1.045-.605A5.582,5.582,0,0,1,23.289,7.7Z" transform="translate(-1.306)" />
                    <path d="M16.14,10.817c1.536.826,3.38,1.238,3.075,3.689C18.652,19.026,9.08,22.061,3.1,18.741,1.462,17.829-.235,16.5.027,13.841c.226-2.286,1.788-4.056,3.322-5.564a10.827,10.827,0,0,1,5.1-3.084c2.277-.563,2.95,1.3,2.337,3.145C12.109,8.25,14.9,6.8,16.14,8.216c.545.623.336,1.739,0,2.6Zm-1.66,5.806a3.611,3.611,0,0,0,.984-2.358c-.009-4.029-7-4.929-10.824-2.722C.287,14.056,2.124,18.57,7.468,18.922c2.831.187,5.665-.8,7.011-2.3Z" transform="translate(0 -0.216)" />
                    <path d="M19.662,9.721c-.9.059-.561-.6-.615-1.391a1.654,1.654,0,0,0-.8-1.21c-.7-.323-1.783.235-1.783-.725,0-.713.629-.639.985-.666C20.708,5.485,20.91,9.639,19.662,9.721Z" transform="translate(-1.369 -0.268)" />
                    <path d="M12.211,14.6c1.31,3.895-5.517,5.705-6.765,2.359C4.61,14.717,6.616,12.936,8.7,12.721A3.174,3.174,0,0,1,12.211,14.6Zm-3.137.666a.464.464,0,0,0,.861-.242C9.867,14.586,9.068,14.65,9.073,15.261ZM7.967,17.318c1.148-.269,1.3-2.395-.431-2C6.081,15.656,6.362,17.693,7.967,17.318Z" transform="translate(-0.437 -0.848)" />
                </g>
            </g>
        </symbol>
        <symbol id="share-whatsapp" viewBox="0 0 24 24">
            <g transform="translate(-975 -3531)">
                <g transform="translate(976 3532)">
                    <path d="M11,0H11a10.993,10.993,0,0,0-8.9,17.447L.723,21.534l4.228-1.352A11,11,0,1,0,11,0Zm6.4,15.533a3.1,3.1,0,0,1-2.159,1.552c-.575.122-1.325.22-3.853-.828a13.78,13.78,0,0,1-5.477-4.837A6.282,6.282,0,0,1,4.609,8.1,3.512,3.512,0,0,1,5.734,5.426a1.6,1.6,0,0,1,1.125-.395c.136,0,.258.007.369.012.323.014.485.033.7.543.265.639.912,2.218.989,2.38a.655.655,0,0,1,.047.6,1.9,1.9,0,0,1-.356.5c-.162.187-.316.33-.479.531-.148.175-.316.362-.129.685A9.764,9.764,0,0,0,9.782,12.5a8.087,8.087,0,0,0,2.58,1.591.7.7,0,0,0,.776-.122A13.309,13.309,0,0,0,14,12.83a.614.614,0,0,1,.789-.239c.3.1,1.869.88,2.192,1.041s.536.239.615.375A2.74,2.74,0,0,1,17.4,15.533Z" />
                </g>
            </g>
        </symbol>

        <symbol id="share-instagram" viewBox="0 0 24 24">
            <g transform="translate(-256 -3529)">
                <g transform="translate(256.551 3530)">
                    <path d="M22.425,6.479a8.052,8.052,0,0,0-.512-2.673A5.645,5.645,0,0,0,18.688.581,8.073,8.073,0,0,0,16.015.069C14.835.013,14.461,0,11.469,0S8.1.013,6.927.065A8.054,8.054,0,0,0,4.254.577,5.377,5.377,0,0,0,2.3,1.851,5.425,5.425,0,0,0,1.03,3.8,8.074,8.074,0,0,0,.517,6.474C.462,7.654.449,8.029.449,11.02s.013,3.366.065,4.542a8.052,8.052,0,0,0,.512,2.673A5.644,5.644,0,0,0,4.25,21.46a8.074,8.074,0,0,0,2.673.512c1.175.052,1.55.065,4.542.065s3.366-.013,4.542-.065a8.05,8.05,0,0,0,2.673-.512A5.637,5.637,0,0,0,21.9,18.235a8.079,8.079,0,0,0,.512-2.673c.052-1.175.065-1.55.065-4.542s0-3.366-.056-4.542Zm-1.984,9a6.04,6.04,0,0,1-.379,2.045,3.655,3.655,0,0,1-2.092,2.092,6.061,6.061,0,0,1-2.045.379c-1.162.052-1.511.065-4.451.065s-3.293-.013-4.451-.065a6.037,6.037,0,0,1-2.045-.379,3.391,3.391,0,0,1-1.266-.822,3.426,3.426,0,0,1-.822-1.266,6.062,6.062,0,0,1-.379-2.045c-.052-1.162-.065-1.511-.065-4.451s.013-3.293.065-4.451a6.037,6.037,0,0,1,.379-2.045,3.349,3.349,0,0,1,.827-1.266,3.421,3.421,0,0,1,1.266-.822,6.066,6.066,0,0,1,2.045-.379C8.189,2.015,8.537,2,11.478,2s3.293.013,4.451.065a6.04,6.04,0,0,1,2.045.379,3.388,3.388,0,0,1,1.266.822,3.425,3.425,0,0,1,.822,1.266,6.065,6.065,0,0,1,.379,2.045c.052,1.162.065,1.511.065,4.451s-.013,3.285-.065,4.447Zm0,0" transform="translate(0 0)" />
                    <path d="M130.61,124.5a5.661,5.661,0,1,0,5.661,5.661A5.662,5.662,0,0,0,130.61,124.5Zm0,9.333a3.672,3.672,0,1,1,3.672-3.672A3.673,3.673,0,0,1,130.61,133.833Zm0,0" transform="translate(-119.141 -119.14)" />
                    <path d="M365.093,89.923a1.322,1.322,0,1,1-1.322-1.322A1.322,1.322,0,0,1,365.093,89.923Zm0,0" transform="translate(-346.418 -84.788)" />
                </g>
            </g>
        </symbol>
    </defs>
</svg>