<svg xmlns="http://www.w3.org/2000/svg" xmlns:xlink="http://www.w3.org/1999/xlink">
  <symbol viewBox="0 0 24 24" id="inventory">
    <path d="M16 0H0v24h24V0zm-1 1v5a1 1 0 01-1 1h-4a1 1 0 01-1-1V1zm8 22H1V1h7v5a2 2 0 002 2h4a2 2 0 002-2V1h7z"/>
  </symbol>
  <symbol viewBox="0 0 24 24" id="URL-rewriting">
    <path d="M23 7v10H1V7h22m1-1H0v12h24V6z"/>
    <path d="M8.525 10l-1.451 4H5.959l-.9-2.483L4.131 14H3.016l-1.442-4h1.093l.943 2.707L4.592 10h.981l.952 2.707L7.5 10zM15.475 10l-1.449 4H12.91l-.9-2.483L11.082 14H9.967l-1.442-4h1.093l.943 2.707.981-2.707h.982l.95 2.707.974-2.707zM22.426 10l-1.449 4h-1.115l-.9-2.483-.93 2.483h-1.115l-1.442-4h1.093l.944 2.707.982-2.707h.98l.952 2.707L21.4 10z"/>
  </symbol>
  <symbol viewBox="0 0 24 24" id="add-ons">
    <path d="M23.473 15.897a.773.773 0 00-.311-.066.764.764 0 00-.51.195 2.149 2.149 0 110-3.2.764.764 0 001.274-.569V5.69a.764.764 0 00-.764-.764h-5.255a3.723 3.723 0 00-.167-2.777A3.616 3.616 0 0015.333.185a3.676 3.676 0 00-4.391 4.74H5.69a.766.766 0 00-.765.765v5.253a3.7 3.7 0 00-2.962.265 3.613 3.613 0 00-1.789 2.355 3.676 3.676 0 004.751 4.347v5.253a.766.766 0 00.765.765h6.567a.765.765 0 00.541-1.3 2.148 2.148 0 113.227.03.764.764 0 00.568 1.275h6.57a.766.766 0 00.765-.765v-6.573a.765.765 0 00-.455-.698zm-.547 7.029h-5.87a3.147 3.147 0 00.233-3 3.1 3.1 0 00-2.109-1.763 3.139 3.139 0 00-3.387 4.758H5.925v-6.4l-1.312.442a2.643 2.643 0 01-.855.141 2.682 2.682 0 11.855-5.221l1.312.445V5.926h6.4l-.444-1.312a2.709 2.709 0 01-.018-1.646 2.682 2.682 0 115.1 1.647l-.444 1.311h6.405v5.868a3.14 3.14 0 100 5.264z"/>
  </symbol>
  <symbol viewBox="0 0 24 24" id="buy-together-products">
    <path d="M21.024 12v-.024H18V0H6v12H0v12h24V12zm-1 1v3.976h-4V13h4zM10 1h4v4h-4zM7 1h2v5h6V1h2v10.976h-1.976V12H7zM4 13h4v4H4zM1 23V13h2v5h6v-5h2v10zm22 0H12V13h3.024v4.976h6V13H23z"/>
  </symbol>
  <symbol viewBox="0 0 24 24" id="cancellation-penalty-rules">
    <path d="M15.3 0H3v24h18V5.7zM20 23H4V1h10v6.1h6zM15 6.1v-5l5 5z"/>
    <rect width="10" height="1" rx=".5" transform="translate(5.949 10.092)"/>
    <rect width="6" height="1" rx=".5" transform="translate(6 7.1)"/>
    <rect width="4" height="1" rx=".5" transform="translate(6 4)"/>
    <path d="M12.707 17.318l2.829-2.828a.5.5 0 10-.708-.708L12 16.611l-2.828-2.829a.5.5 0 10-.708.708l2.829 2.828-2.829 2.828a.5.5 0 00.708.708L12 18.025l2.828 2.829a.5.5 0 10.708-.708z"/>
  </symbol>
  <symbol viewBox="0 0 24 24" id="cancellation-requests">
    <path d="M16 0H0v24h24V0zm-1 1v5a.945.945 0 01-1 1h-4a.945.945 0 01-1-1V1zm8 22H1V1h7v5a2.006 2.006 0 002 2h4a2.006 2.006 0 002-2V1h7z"/>
    <path d="M17.025 16.323l2.829-2.828a.5.5 0 10-.708-.708l-2.828 2.829-2.828-2.829a.5.5 0 10-.708.708l2.829 2.828-2.829 2.828a.5.5 0 10.708.707l2.828-2.828 2.828 2.828a.5.5 0 00.708-.707z"/>
  </symbol>
  <symbol viewBox="0 0 24 24" id="currency">
    <path d="M12 1A11 11 0 111 12 10.968 10.968 0 0112 1m0-1a12 12 0 1012 12A12.035 12.035 0 0012 0z"/>
    <path d="M15.536 12.937a4.623 4.623 0 00-2.288-1.111l-.248-.06V7.021a4.317 4.317 0 011.057.286 5.881 5.881 0 011.618 1.074l.463-.832a4.062 4.062 0 00-1.654-1.144A5.9 5.9 0 0013 6.066V4h-1v2.014a4.565 4.565 0 00-2.785.886 2.9 2.9 0 00-1.122 2.383 2.644 2.644 0 00.809 1.9 4.173 4.173 0 002.127 1.133l.971.229v4.483a6.413 6.413 0 01-2.046-.307 5.862 5.862 0 01-1.816-1.1l-.438.808A5.812 5.812 0 0012 18v2h1v-2.069a4.472 4.472 0 002.131-.81 2.734 2.734 0 001.169-2.289 2.57 2.57 0 00-.764-1.895zm-4.276-1.6a3.144 3.144 0 01-1.573-.786 1.956 1.956 0 01-.508-1.411 1.882 1.882 0 01.8-1.618A3.634 3.634 0 0112 6.961v4.561zm3.168 5.144a3.4 3.4 0 01-1.428.481v-4.185a3.927 3.927 0 011.7.8 1.734 1.734 0 01.533 1.329 1.789 1.789 0 01-.805 1.579z"/>
  </symbol>
  <symbol viewBox="0 0 24 24" id="duration-discount">
    <circle cx="1" cy="1" r="1" transform="translate(8.15 8.15)"/>
    <circle cx="1" cy="1" r="1" transform="translate(13.85 13.85)"/>
    <path d="M13.9 1.027a4.642 4.642 0 01.318.367 2.95 2.95 0 001.208 1.018 2.032 2.032 0 00.709.118 4.742 4.742 0 00.886-.108 3.819 3.819 0 01.458-.068 4.654 4.654 0 01.172.45 3 3 0 00.792 1.378 2.944 2.944 0 001.488.559 4.54 4.54 0 01.465.094 4.6 4.6 0 01.011.492 3.033 3.033 0 00.287 1.573 2.961 2.961 0 001.2 1.029 4.405 4.405 0 01.415.256 4.5 4.5 0 01-.154.465 3.042 3.042 0 00-.267 1.578 2.961 2.961 0 00.771 1.37 4.024 4.024 0 01.317.406 4.024 4.024 0 01-.317.406 2.961 2.961 0 00-.771 1.37 3.032 3.032 0 00.267 1.578 4.667 4.667 0 01.154.465 4.56 4.56 0 01-.416.257 2.959 2.959 0 00-1.2 1.029 3.02 3.02 0 00-.282 1.569 4.866 4.866 0 01-.012.492 4.54 4.54 0 01-.465.094 2.934 2.934 0 00-1.488.559 3 3 0 00-.792 1.377 4.523 4.523 0 01-.173.453 4.3 4.3 0 01-.456-.071 4.753 4.753 0 00-.887-.108 2.031 2.031 0 00-.708.118 2.944 2.944 0 00-1.208 1.018c-.093.114-.221.273-.314.363-.113-.052-.277-.151-.4-.222A2.974 2.974 0 0012 22.2a2.974 2.974 0 00-1.513.548c-.123.073-.3.177-.392.226a4.642 4.642 0 01-.318-.367 2.95 2.95 0 00-1.208-1.018 2.032 2.032 0 00-.709-.118 4.742 4.742 0 00-.886.108 3.819 3.819 0 01-.458.068 4.655 4.655 0 01-.172-.45 3 3 0 00-.792-1.378 2.944 2.944 0 00-1.488-.559 4.54 4.54 0 01-.465-.094 4.6 4.6 0 01-.011-.492 3.033 3.033 0 00-.282-1.574 2.961 2.961 0 00-1.2-1.029 4.405 4.405 0 01-.415-.256 4.5 4.5 0 01.154-.465 3.042 3.042 0 00.267-1.578 2.961 2.961 0 00-.771-1.37A4.024 4.024 0 011.023 12a4.024 4.024 0 01.317-.406 2.961 2.961 0 00.771-1.37 3.032 3.032 0 00-.267-1.578 4.667 4.667 0 01-.154-.465 4.559 4.559 0 01.416-.257 2.959 2.959 0 001.2-1.029 3.02 3.02 0 00.282-1.569 4.866 4.866 0 01.012-.492 4.54 4.54 0 01.465-.094 2.934 2.934 0 001.488-.559A3 3 0 006.345 2.8a4.522 4.522 0 01.173-.453 4.3 4.3 0 01.456.071 4.753 4.753 0 00.887.108 2.031 2.031 0 00.708-.118 2.944 2.944 0 001.208-1.014c.093-.114.221-.273.314-.363.113.052.277.151.4.222A2.974 2.974 0 0012 1.8a2.974 2.974 0 001.513-.548c.123-.073.3-.177.392-.226M10.034 0a.664.664 0 00-.118.01c-.668.119-1.07 1.233-1.693 1.463a1.041 1.041 0 01-.362.057c-.439 0-.96-.181-1.4-.181A.909.909 0 006 1.456c-.583.344-.584 1.528-1.1 1.964s-1.665.234-2.1.755-.026 1.634-.363 2.225S.952 7.191.721 7.835s.522 1.541.405 2.219C1.012 10.713 0 11.308 0 12s1.012 1.287 1.126 1.946c.117.678-.632 1.586-.405 2.219s1.382.85 1.716 1.435-.06 1.7.37 2.224 1.583.317 2.1.755S5.416 22.2 6 22.543a.911.911 0 00.467.108c.435 0 .956-.181 1.395-.181a1.071 1.071 0 01.363.056c.623.231 1.024 1.345 1.693 1.464a.664.664 0 00.118.01c.622 0 1.324-.8 1.966-.8s1.344.8 1.966.8a.664.664 0 00.118-.01c.668-.119 1.07-1.233 1.693-1.463a1.041 1.041 0 01.362-.057c.439 0 .96.181 1.4.181a.909.909 0 00.459-.107c.582-.342.583-1.528 1.1-1.964s1.665-.234 2.1-.755.034-1.634.371-2.224 1.485-.792 1.716-1.436-.522-1.541-.4-2.219C22.988 13.287 24 12.692 24 12s-1.012-1.287-1.126-1.946c-.117-.678.632-1.586.4-2.219S21.9 6.985 21.563 6.4s.06-1.7-.37-2.224-1.583-.317-2.1-.755S18.584 1.8 18 1.457a.911.911 0 00-.467-.108c-.435 0-.956.181-1.4.181a1.071 1.071 0 01-.363-.056C15.154 1.243 14.753.129 14.084.01a.664.664 0 00-.118-.01c-.622 0-1.324.8-1.966.8S10.656 0 10.034 0z"/>
    <rect width="1" height="12" rx=".5" transform="rotate(45 -.993 22.882)"/>
  </symbol>
  <symbol viewBox="0 0 24 24" id="import-export">
    <path d="M12 1A11 11 0 111 12 11.013 11.013 0 0112 1m0-1a12 12 0 1012 12A12 12 0 0012 0z"/>
    <path d="M12.589 10.4L8.5 6l-4.09 4.4.732.682L8 8.005V18h1V8.007l2.856 3.073zM18.857 12.92L16 15.995V6h-1v9.993l-2.856-3.073-.732.682L15.5 18l4.089-4.4z"/>
  </symbol>
  <symbol viewBox="0 0 24 24" id="product-inventory-stock">
    <path d="M12 12V0H0v24h24V12zM4 1h4v4H4zm7 22H1V13h2v4a.945.945 0 001 1h4a.945.945 0 001-1v-4h2zm-7-6v-4h4v4zm7-5H1V1h2v4a.945.945 0 001 1h4a.945.945 0 001-1V1h2zm5 1h4v4h-4zm7 10H12V13h3v4a.945.945 0 001 1h4a.945.945 0 001-1v-4h2z"/>
    <path d="M22.6 3.348l-6.01 6.01-3.19-3.181.707-.707 2.475 2.475 5.3-5.3z"/>
  </symbol>
  <symbol viewBox="0 0 24 24" id="language">
    <path d="M22.382 6l-.528-.839a11.988 11.988 0 00-19.708 0L1.618 6a11.932 11.932 0 000 12l.526.836a11.987 11.987 0 0019.706 0l.529-.836a11.932 11.932 0 000-12zm.584 5.5h-4.979a22.537 22.537 0 00-.42-3.961 17.939 17.939 0 003.912-1.092 10.926 10.926 0 011.487 5.053zM7.649 17.28a32.628 32.628 0 013.851-.27v5.919c-1.5-.389-3.017-2.48-3.851-5.649zm8.7-10.56a32.628 32.628 0 01-3.851.27V1.071c1.502.389 3.019 2.48 3.853 5.649zM11.5 1.071V6.99a32.628 32.628 0 01-3.851-.27C8.483 3.551 10 1.46 11.5 1.071zm0 6.919v3.51H7.013a21.348 21.348 0 01.409-3.811 33.483 33.483 0 004.078.301zm0 4.51v3.51a33.468 33.468 0 00-4.078.3 21.348 21.348 0 01-.409-3.81zm1 10.429V17.01a32.628 32.628 0 013.851.27c-.834 3.169-2.351 5.26-3.851 5.649zm0-6.919V12.5h4.487a21.347 21.347 0 01-.409 3.811 33.468 33.468 0 00-4.078-.301zm0-4.51V7.99a33.483 33.483 0 004.078-.3 21.347 21.347 0 01.409 3.811zm8.428-5.9a17.533 17.533 0 01-3.583.967A11.885 11.885 0 0014.8 1.391 10.994 10.994 0 0120.928 5.6zM9.2 1.391a11.885 11.885 0 00-2.545 5.175A17.533 17.533 0 013.072 5.6 10.994 10.994 0 019.2 1.391zM2.521 6.447a17.939 17.939 0 003.912 1.092 22.537 22.537 0 00-.42 3.961H1.034a10.926 10.926 0 011.487-5.053zM1.034 12.5h4.979a22.559 22.559 0 00.42 3.962 17.8 17.8 0 00-3.911 1.094A10.942 10.942 0 011.034 12.5zm2.038 5.9a17.536 17.536 0 013.583-.968A11.884 11.884 0 009.2 22.609 10.994 10.994 0 013.072 18.4zM14.8 22.609a11.884 11.884 0 002.544-5.176 17.536 17.536 0 013.583.968 10.994 10.994 0 01-6.127 4.208zm6.677-5.053a17.8 17.8 0 00-3.911-1.094 22.559 22.559 0 00.42-3.962h4.979a10.942 10.942 0 01-1.487 5.056z"/>
  </symbol>
  <symbol viewBox="0 0 24.1 24.1" id="late-charges-management">
    <path d="M20.9 2H17V.5a.5.5 0 00-1 0V2H8V.5a.5.5 0 00-1 0V2H3.2A3.222 3.222 0 000 5.2v15.7a3.222 3.222 0 003.2 3.2h17.7a3.222 3.222 0 003.2-3.2V5.2A3.289 3.289 0 0020.9 2zM23 20.8a2.22 2.22 0 01-2.2 2.2H3.2A2.22 2.22 0 011 20.8V8h22zM23 7H1V5.2A2.22 2.22 0 013.2 3H7v1.5a.5.5 0 001 0V3h8v1.5a.5.5 0 001 0V3h3.8A2.22 2.22 0 0123 5.2z"/>
    <path d="M15.111 15.869a2.441 2.441 0 00-1.054-.613c-.27-.079-.621-.157-1.007-.236v-2.737a4.288 4.288 0 011.7.61l.5-.852a4.792 4.792 0 00-1.364-.531 6.926 6.926 0 00-.836-.152V9.05h-1v2.268a4.138 4.138 0 00-2.3.618 1.9 1.9 0 00-.891 1.614 1.682 1.682 0 00.446 1.241 2.5 2.5 0 001.081.635 15.313 15.313 0 001.664.366v2.585a5.8 5.8 0 01-1.632-.243 4.5 4.5 0 01-1.348-.636l-.52.838a4.414 4.414 0 001.487.7 7.054 7.054 0 001.989.277h.024v1.737h1v-1.819a3.9 3.9 0 001.567-.529 1.865 1.865 0 00.933-1.637 1.6 1.6 0 00-.439-1.196zm-3.995-1.234a2.005 2.005 0 01-.788-.4.894.894 0 01-.316-.718 1.082 1.082 0 01.56-.942 2.944 2.944 0 011.478-.346v2.6c-.371-.065-.7-.13-.934-.194zm2.72 3.409a2.285 2.285 0 01-.786.263v-2.325c.086.02.185.039.26.059a2.105 2.105 0 01.778.374.822.822 0 01.309.68 1.048 1.048 0 01-.561.949z"/>
  </symbol>
  <symbol viewBox="0 0 24 24" id="link-products-pickup-add">
    <path d="M16 0v1h6.293L11.979 11.314l.707.707L23 1.707V8h1V0z"/>
    <path d="M19 7.121V23H1V5h15.879l1-1H0v20h20V6.121z"/>
    <path d="M3 20h6v1H3zM3 18h6v1H3z"/>
  </symbol>
  <symbol viewBox="0 0 24 24" id="rental-add-ons">
    <path d="M2.665 21.435a3.949 3.949 0 002.8 1.2 3.949 3.949 0 002.8-1.2l4.786-4.785a.483.483 0 000-.7.483.483 0 00-.7 0l-4.786 4.785a2.878 2.878 0 01-2.1.9 2.723 2.723 0 01-2.1-.9 2.9 2.9 0 010-4.2l4.786-4.785a.483.483 0 000-.7.483.483 0 00-.7 0l-4.786 4.785a3.867 3.867 0 000 5.6zM10.951 8.15a.483.483 0 00.7 0l4.785-4.786a2.878 2.878 0 012.1-.9 2.724 2.724 0 012.1.9 2.9 2.9 0 010 4.2l-4.785 4.786a.483.483 0 000 .7.483.483 0 00.7 0l4.785-4.786a3.984 3.984 0 000-5.7 3.949 3.949 0 00-2.8-1.2 3.949 3.949 0 00-2.8 1.2L10.951 7.35a.6.6 0 000 .8z"/>
    <path d="M16.251 7.85a.483.483 0 010 .7l-7.8 7.8a.483.483 0 01-.7 0 .483.483 0 010-.7l7.8-7.8a.483.483 0 01.7 0z"/>
  </symbol>
  <symbol viewBox="0 0 24 24" id="verification-fields">
    <path d="M11.012 9.7L8.647 7.336l.707-.707 1.658 1.658 3.635-3.635.707.707z"/>
    <path d="M12 2a4.946 4.946 0 015 5A5 5 0 017 7a4.946 4.946 0 015-5m0-1a5.942 5.942 0 00-6 6 6 6 0 0012 0 5.942 5.942 0 00-6-6zM20 16H4.151a4.1 4.1 0 00-4.068 3.173A4 4 0 004 24h15.849a4.1 4.1 0 004.068-3.173A4 4 0 0020 16zm0 1a3.011 3.011 0 012.846 3.974A3.049 3.049 0 0119.9 23H4.1a3.049 3.049 0 01-2.942-2.026A3.011 3.011 0 014 17h16"/>
  </symbol>
  <symbol viewBox="0 0 24 24" id="manage-shop">
    <path d="M17.5 13.942h-2a1.535 1.535 0 00-1.5 1.494v1.991a1.535 1.535 0 001.5 1.494h2a1.535 1.535 0 001.5-1.494v-1.991a1.469 1.469 0 00-1.5-1.494zm.5 3.485a.471.471 0 01-.5.5h-2a.471.471 0 01-.5-.5v-1.991a.471.471 0 01.5-.5h2a.471.471 0 01.5.5z"/>
    <path d="M23.5 6.971L20.6 1.1A1.89 1.89 0 0018.8 0H5.3a1.89 1.89 0 00-1.8 1.1L.6 6.971H0v1.9a3.262 3.262 0 002 2.988v10.448A1.682 1.682 0 003.7 24H20a2 2 0 002-1.992V11.851a2.9 2.9 0 002-2.789V7.071h-.5zM4.3 1.494A1.149 1.149 0 015.2.9h13.5a.961.961 0 01.9.6l2.7 5.377H1.6zM7 7.967h4v.9a2.079 2.079 0 01-1.3 1.992A2.064 2.064 0 017 8.963zm6 0h4v.9a2 2 0 11-4 .1zm-12 1v-1h4v.9a2.079 2.079 0 01-1.3 1.992A2.064 2.064 0 011 8.963zm10 13.938H6v-7.469a.471.471 0 01.5-.5h4a.471.471 0 01.5.5zm9 0h-8v-7.469a1.535 1.535 0 00-1.5-1.494h-4A1.535 1.535 0 005 15.436v7.469H3.7a.682.682 0 01-.7-.7V11.95a2.94 2.94 0 003-2.987v-.1a3.116 3.116 0 002.4 3.087A3.045 3.045 0 0012 9.062v-.1a3.117 3.117 0 002.4 3.087A3.045 3.045 0 0018 9.162v-.1a3.115 3.115 0 002.4 3.087h.5v9.959c.1.299-.4.797-.9.797zm3-14.042a2 2 0 11-4 .1v-1h4z"/>
  </symbol>
  <symbol viewBox="0 0 24 24" id="messages">
    <path d="M21.358.992a1.568 1.568 0 011.559 1.573v13.74a1.559 1.559 0 01-1.559 1.56h-9.695l-.284.257L6.227 22.8l.422-3.821.122-1.111H2.642a1.559 1.559 0 01-1.559-1.56V2.552A1.56 1.56 0 012.642.992h18.29M21.358 0H2.642A2.553 2.553 0 00.09 2.552v13.753a2.552 2.552 0 002.552 2.552h3.02L5.2 23.049a.857.857 0 00.752.951h.093a.849.849 0 00.569-.22l5.429-4.923h9.315a2.552 2.552 0 002.552-2.552V2.571A2.562 2.562 0 0021.358 0z"/>
    <rect width="16" height="1" rx=".5" transform="translate(4 4.909)"/>
    <rect width="16" height="1" rx=".5" transform="translate(4 8.909)"/>
    <rect width="16" height="1" rx=".5" transform="translate(4 12.909)"/>
  </symbol>
  <symbol viewBox="0 0 24 24" id="meta-tags">
    <path d="M18.9 5.3v7.1L8.6 22.7l-7.1-7.1L11.8 5.3h7.1m.7-.7a.908.908 0 00-.7-.3h-7.1a.908.908 0 00-.7.3L.8 14.9a.967.967 0 000 1.4l7.1 7.1a.967.967 0 001.4 0l10.3-10.3a.908.908 0 00.3-.7V5.3a.779.779 0 00-.3-.7z"/>
    <path d="M8.642 14.3L7.46 16.778 9.939 15.6l.837.838L6.9 18.217l-.884-.883L7.8 13.461zM8.3 10.043l1.015-1.015 3.675 7.639-1.015 1.015zM14.506 8.849l.883.883L13.6 13.6l-.837-.837 1.182-2.478-2.475 1.185-.837-.837z"/>
  </symbol>
  <symbol viewBox="0 0 24 24" id="my-account">
    <path d="M12 14.518c3.343 0 5.915.753 7.644 2.239A7.913 7.913 0 0122.182 23H1.818c.064-7.006 5.564-8.482 10.182-8.482m0-1C4.789 13.518.818 16.93.818 23.124a.876.876 0 00.875.876h20.614a.876.876 0 00.875-.876c0-6.194-3.971-9.606-11.182-9.606zM12 1a4.763 4.763 0 014.81 4.927A5.082 5.082 0 0112 11.233a5.082 5.082 0 01-4.81-5.306A4.763 4.763 0 0112 1m0-1a5.741 5.741 0 00-5.81 5.927A6.08 6.08 0 0012 12.233a6.08 6.08 0 005.81-6.306A5.741 5.741 0 0012 0z"/>
  </symbol>
  <symbol viewBox="0 0 24 24" id="my-credits">
    <path d="M22 4H2a2 2 0 00-2 2v12a2 2 0 002 2h20a2 2 0 002-2V6a2 2 0 00-2-2zm1 14a1 1 0 01-1 1H2a1 1 0 01-1-1v-7h22zm0-8H1V8h22zM1 7V6a1 1 0 011-1h20a1 1 0 011 1v1z"/>
    <rect width="4" height="1" rx=".5" transform="translate(8 16)"/>
    <rect width="4" height="1" rx=".5" transform="translate(13 16)"/>
    <rect width="4" height="1" rx=".5" transform="translate(18 16)"/>
  </symbol>
  <symbol viewBox="0 0 24 24" id="options">
    <path d="M5 0a5 5 0 105 5 5 5 0 00-5-5zm0 9a4 4 0 114-4 4 4 0 01-4 4zM19 14a5 5 0 105 5 5 5 0 00-5-5zm0 9a4 4 0 114-4 4 4 0 01-4 4zM0 24h10V14H0zm1-9h8v8H1zM14 0v10h10V0zm9 9h-8V1h8z"/>
  </symbol>
  <symbol viewBox="0 0 24 24" id="order-rental">
    <path d="M16.002 0h-16v24h24V0zm-1 1v5a.945.945 0 01-1 1h-4a.945.945 0 01-1-1V1zm8 22h-22V1h7v5a2.006 2.006 0 002 2h4a2.006 2.006 0 002-2V1h7z"/>
    <path d="M20.517 13.931l-3.007-3.006-3.022 3.023.707.707 1.807-1.808v7.078h1v-7.094l1.808 1.807z"/>
  </symbol>
  <symbol viewBox="0 0 24 24" id="order-cancel-request">
    <path d="M16 0H0v24h24V0zm-1 1v5a.945.945 0 01-1 1h-4a.945.945 0 01-1-1V1zm8 22H1V1h7v5a2.006 2.006 0 002 2h4a2.006 2.006 0 002-2V1h7z"/>
    <path d="M17.025 16.323l2.829-2.828a.5.5 0 10-.708-.708l-2.828 2.829-2.828-2.829a.5.5 0 10-.708.708l2.829 2.828-2.829 2.828a.5.5 0 10.708.707l2.828-2.828 2.828 2.828a.5.5 0 00.708-.707z"/>
  </symbol>
  <symbol viewBox="0 0 24 24" id="order-sales">
    <path d="M16 0H0v24h24V0zm-1 1v5a.945.945 0 01-1 1h-4a.945.945 0 01-1-1V1zm8 22H1V1h7v5a2.006 2.006 0 002 2h4a2.006 2.006 0 002-2V1h7z"/>
    <path d="M16.812 19.513l3-3-3-3-.7.7 1.8 1.8h-7.1v1h7.1l-1.8 1.8z"/>
  </symbol>
  <symbol viewBox="0 0 24 24" id="product-performance-report">
    <path d="M15.3 0H3v24h18V5.7zM20 23H4V1h10v6.1h6zM15 6.1v-5l5 5z"/>
    <path d="M15.4 11.1h-9a.472.472 0 01-.5-.5.472.472 0 01.5-.5h9a.472.472 0 01.5.5.472.472 0 01-.5.5zM11.5 8.1h-5a.472.472 0 01-.5-.5.472.472 0 01.5-.5h5a.472.472 0 01.5.5.472.472 0 01-.5.5zM9.5 5h-3a.472.472 0 01-.5-.5.472.472 0 01.5-.5h3a.472.472 0 01.5.5.472.472 0 01-.5.5zM18 18h-1v-3h-3v-1h4z"/>
    <path d="M12.606 19.725a.5.5 0 01-.353-.146L9.775 17.1 7.3 19.579l-.707-.707 2.831-2.83a.5.5 0 01.707 0l2.477 2.476 3.886-3.886.707.707-4.239 4.24a.5.5 0 01-.356.146z"/>
  </symbol>
  <symbol viewBox="0 0 24 24" id="products-inventory">
    <path d="M21 0H0v24h24V0zm-1 1v4h-4V1zM8 1v4H4V1zM1 1h2v4a1 1 0 001 1h4a1 1 0 001-1V1h2v11H1zm3 12h4v4H4zM1 23V13h2v4a1 1 0 001 1h4a1 1 0 001-1v-4h2v10zm22 0H12V13h3v4a1 1 0 001 1h4a1 1 0 001-1v-4h2zm-7-10h4v4h-4zm5-1h-9V1h3v4a1 1 0 001 1h4a1 1 0 001-1V1h2v11z"/>
  </symbol>
  <symbol viewBox="0 0 24 24" id="related-products">
    <path d="M24,0H8V8H0V24H16V16h8ZM15,23H1V9H8v7h7Zm0-8H9V9h6Zm8,0H16V8H9V1H23Z"/>
  </symbol>
  <symbol viewBox="0 0 24 24" id="rental-report">
    <path d="M15.3 0H3v24h18V5.7zM20 23H4V1h10v6.1h6zM15 6.1v-5l5 5z"/>
    <path d="M15.4 11.1h-9a.472.472 0 01-.5-.5.472.472 0 01.5-.5h9a.472.472 0 01.5.5.472.472 0 01-.5.5zM11.5 8.1h-5a.472.472 0 01-.5-.5.472.472 0 01.5-.5h5a.472.472 0 01.5.5.472.472 0 01-.5.5zM9.5 5h-3a.472.472 0 01-.5-.5.472.472 0 01.5-.5h3a.472.472 0 01.5.5.472.472 0 01-.5.5zM11.227 16.012h6.228a.5.5 0 01.5.5v.5h-6.728v-1z"/>
    <path d="M9.049 14.512a2 2 0 11-2 2 2 2 0 012-2m0-1a3 3 0 103 3 3 3 0 00-3-3z"/>
    <rect width="1" height="3.5" rx=".5" transform="translate(16.951 16.012)"/>
    <rect width="1" height="2.5" rx=".5" transform="translate(15.052 16.012)"/>
  </symbol>
  <symbol viewBox="0 0 24 24" id="requests">
    <g transform="translate(0 -36)">
      <path d="M10.3 52.3a3.864 3.864 0 001.8-3.3 4 4 0 00-8 0 3.864 3.864 0 001.8 3.3A8.069 8.069 0 00.1 60h1a6.957 6.957 0 017-7 6.957 6.957 0 017 7h1a8.29 8.29 0 00-5.8-7.7zM5 49a2.946 2.946 0 013-3 3 3 0 010 6 3.009 3.009 0 01-3-3zM21.9 37a1.216 1.216 0 011.2 1.2v6.6a1.155 1.155 0 01-1.2 1.2h-6.3l-.3.2-1.3 1v-9a1.155 1.155 0 011.2-1.2H22m-.1-1h-6.7a2.22 2.22 0 00-2.2 2.2v10a.536.536 0 00.5.5.367.367 0 00.3-.1l2.1-1.6h5.9a2.22 2.22 0 002.2-2.2v-6.6a2.135 2.135 0 00-2.1-2.2z"/>
      <rect width="7" height="1" rx=".5" transform="translate(15 40)"/>
      <rect width="7" height="1" rx=".5" transform="translate(15 42)"/>
    </g>
  </symbol>
  <symbol viewBox="0 0 24 24" id="order-return-request">
    <path d="M16 0H0v24h24V0zm-1 1v5a.945.945 0 01-1 1h-4a.945.945 0 01-1-1V1zm8 22H1V1h7v5a2.006 2.006 0 002 2h4a2.006 2.006 0 002-2V1h7z"/>
    <path d="M13.952 13H6.965l1.973-1.973-.708-.707-3.182 3.18 3.182 3.184.707-.707L6.96 14h6.992a3 3 0 010 6h-5.9v1h5.9a4 4 0 000-8z"/>
  </symbol>
  <symbol viewBox="0 0 24 24" id="sales-report">
    <path d="M15.3 0H3v24h18V5.7zM20 23H4V1h10v6.1h6zM15 6.1v-5l5 5z"/>
    <path d="M15.4 11.1h-9a.472.472 0 01-.5-.5.472.472 0 01.5-.5h9a.472.472 0 01.5.5.472.472 0 01-.5.5zM11.5 8.1h-5a.472.472 0 01-.5-.5.472.472 0 01.5-.5h5a.472.472 0 01.5.5.472.472 0 01-.5.5zM9.5 5h-3a.472.472 0 01-.5-.5.472.472 0 01.5-.5h3a.472.472 0 01.5.5.472.472 0 01-.5.5z"/>
    <rect width="12" height="1" rx=".5" transform="translate(6 20)"/>
    <rect width="1" height="4" rx=".5" transform="translate(7 17)"/>
    <rect width="1" height="5" rx=".5" transform="translate(10 16)"/>
    <rect width="1" height="6" rx=".5" transform="translate(13 15)"/>
    <rect width="1" height="7" rx=".5" transform="translate(16 14)"/>
  </symbol>
  <symbol viewBox="0 0 24 24" id="shipping-profile">
    <path d="M8.2 1a3.58 3.58 0 013.661 3.741A3.882 3.882 0 018.2 8.8a3.882 3.882 0 01-3.66-4.063A3.579 3.579 0 018.2 1m0-1a4.584 4.584 0 00-4.66 4.741A4.865 4.865 0 008.2 9.8a4.865 4.865 0 004.661-5.063A4.584 4.584 0 008.2 0zM20 11h-9v13h13V11zm-1 1v3h-4v-3zm4 11H12V12h2v4h6v-4h3z"/>
    <path d="M19.025 17.025l-.707.707L19.586 19H15v1h4.586l-1.268 1.268.707.707L21.5 19.5zM10.161 19H1.1c.143-5.312 4.409-6.437 8-6.437.35 0 .706.015 1.064.04v-1c-.344-.023-.7-.037-1.064-.037C3.3 11.563.088 14.3.1 19.3a.718.718 0 00.72.7h9.341z"/>
  </symbol>
  <symbol viewBox="0 0 24 24" id="special-price">
    <path d="M12 1A11 11 0 111 12 10.968 10.968 0 0112 1m0-1a12 12 0 1012 12A12.035 12.035 0 0012 0z"/>
    <path d="M15.536 12.937a4.623 4.623 0 00-2.288-1.111l-.248-.06V7.021a4.317 4.317 0 011.057.286 5.881 5.881 0 011.618 1.074l.463-.832a4.062 4.062 0 00-1.654-1.144A5.9 5.9 0 0013 6.066V4h-1v2.014a4.565 4.565 0 00-2.785.886 2.9 2.9 0 00-1.122 2.383 2.644 2.644 0 00.809 1.9 4.173 4.173 0 002.127 1.133l.971.229v4.483a6.413 6.413 0 01-2.046-.307 5.862 5.862 0 01-1.816-1.1l-.438.808A5.812 5.812 0 0012 18v2h1v-2.069a4.472 4.472 0 002.131-.81 2.734 2.734 0 001.169-2.289 2.57 2.57 0 00-.764-1.895zm-4.276-1.6a3.144 3.144 0 01-1.573-.786 1.956 1.956 0 01-.508-1.411 1.882 1.882 0 01.8-1.618A3.634 3.634 0 0112 6.961v4.561zm3.168 5.144a3.4 3.4 0 01-1.428.481v-4.185a3.927 3.927 0 011.7.8 1.734 1.734 0 01.533 1.329 1.789 1.789 0 01-.805 1.579z"/>
  </symbol>
  <symbol viewBox="0 0 24 24" id="sub-users">
    <path d="M21.5 18.05V12h-9V7.95a4 4 0 10-1 0V12h-9v6.05a3 3 0 101 0V13h8v5.05a3 3 0 101 0V13h8v5.05a3 3 0 101 0zM9 4a3 3 0 113 3 3 3 0 01-3-3zM5 21a2 2 0 11-2-2 2 2 0 012 2zm9 0a2 2 0 11-2-2 2 2 0 012 2zm7 2a2 2 0 112-2 2 2 0 01-2 2z"/>
  </symbol>
  <symbol viewBox="0 0 24 24" id="product-tags">
    <path d="M14.409 9.8a1 1 0 01-1.414 1.414A1 1 0 1114.409 9.8m.707-.707a2 2 0 100 2.828 2.005 2.005 0 000-2.828z"/>
    <path d="M18.924 5.281v7.072L8.612 22.669 1.538 15.6 11.852 5.282h7.072m.708-.706a1 1 0 00-.706-.293h-7.074a.994.994 0 00-.7.293L.831 14.89a1 1 0 000 1.412l7.074 7.074a1 1 0 001.411 0L19.632 13.06a1 1 0 00.292-.706V5.28a.991.991 0 00-.292-.705z"/>
    <rect width="8" height="1" rx=".5" transform="rotate(45 -12.521 13.363)"/>
  </symbol>
  <symbol viewBox="0 0 24 24" id="tax-categories">
    <path d="M6.636 12.092H5.107v-.9H9.27v.9H7.741v3.876H6.636zM12.771 14.945h-2.218l-.423 1.023H9l2.129-4.777h1.093l2.135 4.777h-1.162zm-.348-.84l-.757-1.829-.758 1.824z"/>
    <path d="M17.617 15.968l-1.154-1.659-1.132 1.659h-1.27l1.768-2.429-1.679-2.348h1.256l1.1 1.549 1.079-1.549h1.194L17.112 13.5l1.781 2.47z"/>
    <path d="M15.343 0H3v24h18V5.657zM20 23H4V1h10v6.053h6zM15 6.053V1.075l4.978 4.978z"/>
  </symbol>
  <symbol viewBox="0 0 24 24" id="unavailable-dates">
    <path d="M20.847 2H17V.5a.5.5 0 00-1 0V2H8V.5a.5.5 0 00-1 0V2H3.153A3.153 3.153 0 000 5.153v15.694A3.153 3.153 0 003.153 24h17.694A3.153 3.153 0 0024 20.847V5.153A3.153 3.153 0 0020.847 2zM23 20.847A2.156 2.156 0 0120.847 23H3.153A2.156 2.156 0 011 20.847V8h22zM23 7H1V5.153A2.156 2.156 0 013.153 3H7v1.5a.5.5 0 001 0V3h8v1.5a.5.5 0 001 0V3h3.847A2.156 2.156 0 0123 5.153z"/>
  </symbol>
  <symbol viewBox="0 0 24 24" id="upcoming-overdue-returns">
    <g>
      <rect width="1" height="8" rx=".5" transform="translate(11.5 4.306)"/>
      <rect width="2" height="2" rx="1" transform="translate(11 13.694)"/>
      <path d="M22.943 1.054L12 22.947 1.053 1.054h21.89m0-1.054H1.053a1.052 1.052 0 00-.941 1.522l10.947 21.9a1.053 1.053 0 001.882 0l10.947-21.9A1.052 1.052 0 0022.947 0z"/>
    </g>
  </symbol>
  <symbol viewBox="0 0 24 24" id="update-credentials">
    <path d="M19.773 11h-7.914A3.953 3.953 0 1012 12h4v1.5a.5.5 0 001 0V12h2v2.5a.5.5 0 001 0v-3.273a.227.227 0 00-.227-.227zM8 15a3 3 0 113-3 3 3 0 01-3 3z"/>
    <path d="M22.86 6.92l-.751.751A11.106 11.106 0 1119.519 4H16v1h5V0h-1v3.078a12.012 12.012 0 102.86 3.842z"/>
  </symbol>
  <symbol viewBox="0 0 24 24" id="volume-discount">
    <circle cx="1" cy="1" r="1" transform="translate(8.15 8.15)"/>
    <circle cx="1" cy="1" r="1" transform="translate(13.85 13.85)"/>
    <path d="M13.9 1.027a4.642 4.642 0 01.318.367 2.95 2.95 0 001.208 1.018 2.032 2.032 0 00.709.118 4.742 4.742 0 00.886-.108 3.819 3.819 0 01.458-.068 4.654 4.654 0 01.172.45 3 3 0 00.792 1.378 2.944 2.944 0 001.488.559 4.54 4.54 0 01.465.094 4.6 4.6 0 01.011.492 3.033 3.033 0 00.287 1.573 2.961 2.961 0 001.2 1.029 4.405 4.405 0 01.415.256 4.5 4.5 0 01-.154.465 3.042 3.042 0 00-.267 1.578 2.961 2.961 0 00.771 1.37 4.024 4.024 0 01.317.406 4.024 4.024 0 01-.317.406 2.961 2.961 0 00-.771 1.37 3.032 3.032 0 00.267 1.578 4.667 4.667 0 01.154.465 4.56 4.56 0 01-.416.257 2.959 2.959 0 00-1.2 1.029 3.02 3.02 0 00-.282 1.569 4.866 4.866 0 01-.012.492 4.54 4.54 0 01-.465.094 2.934 2.934 0 00-1.488.559 3 3 0 00-.792 1.377 4.523 4.523 0 01-.173.453 4.3 4.3 0 01-.456-.071 4.753 4.753 0 00-.887-.108 2.031 2.031 0 00-.708.118 2.944 2.944 0 00-1.208 1.018c-.093.114-.221.273-.314.363-.113-.052-.277-.151-.4-.222A2.974 2.974 0 0012 22.2a2.974 2.974 0 00-1.513.548c-.123.073-.3.177-.392.226a4.642 4.642 0 01-.318-.367 2.95 2.95 0 00-1.208-1.018 2.032 2.032 0 00-.709-.118 4.742 4.742 0 00-.886.108 3.819 3.819 0 01-.458.068 4.655 4.655 0 01-.172-.45 3 3 0 00-.792-1.378 2.944 2.944 0 00-1.488-.559 4.54 4.54 0 01-.465-.094 4.6 4.6 0 01-.011-.492 3.033 3.033 0 00-.282-1.574 2.961 2.961 0 00-1.2-1.029 4.405 4.405 0 01-.415-.256 4.5 4.5 0 01.154-.465 3.042 3.042 0 00.267-1.578 2.961 2.961 0 00-.771-1.37A4.024 4.024 0 011.023 12a4.024 4.024 0 01.317-.406 2.961 2.961 0 00.771-1.37 3.032 3.032 0 00-.267-1.578 4.667 4.667 0 01-.154-.465 4.559 4.559 0 01.416-.257 2.959 2.959 0 001.2-1.029 3.02 3.02 0 00.282-1.569 4.866 4.866 0 01.012-.492 4.54 4.54 0 01.465-.094 2.934 2.934 0 001.488-.559A3 3 0 006.345 2.8a4.522 4.522 0 01.173-.453 4.3 4.3 0 01.456.071 4.753 4.753 0 00.887.108 2.031 2.031 0 00.708-.118 2.944 2.944 0 001.208-1.014c.093-.114.221-.273.314-.363.113.052.277.151.4.222A2.974 2.974 0 0012 1.8a2.974 2.974 0 001.513-.548c.123-.073.3-.177.392-.226M10.034 0a.664.664 0 00-.118.01c-.668.119-1.07 1.233-1.693 1.463a1.041 1.041 0 01-.362.057c-.439 0-.96-.181-1.4-.181A.909.909 0 006 1.456c-.583.344-.584 1.528-1.1 1.964s-1.665.234-2.1.755-.026 1.634-.363 2.225S.952 7.191.721 7.835s.522 1.541.405 2.219C1.012 10.713 0 11.308 0 12s1.012 1.287 1.126 1.946c.117.678-.632 1.586-.405 2.219s1.382.85 1.716 1.435-.06 1.7.37 2.224 1.583.317 2.1.755S5.416 22.2 6 22.543a.911.911 0 00.467.108c.435 0 .956-.181 1.395-.181a1.071 1.071 0 01.363.056c.623.231 1.024 1.345 1.693 1.464a.664.664 0 00.118.01c.622 0 1.324-.8 1.966-.8s1.344.8 1.966.8a.664.664 0 00.118-.01c.668-.119 1.07-1.233 1.693-1.463a1.041 1.041 0 01.362-.057c.439 0 .96.181 1.4.181a.909.909 0 00.459-.107c.582-.342.583-1.528 1.1-1.964s1.665-.234 2.1-.755.034-1.634.371-2.224 1.485-.792 1.716-1.436-.522-1.541-.4-2.219C22.988 13.287 24 12.692 24 12s-1.012-1.287-1.126-1.946c-.117-.678.632-1.586.4-2.219S21.9 6.985 21.563 6.4s.06-1.7-.37-2.224-1.583-.317-2.1-.755S18.584 1.8 18 1.457a.911.911 0 00-.467-.108c-.435 0-.956.181-1.4.181a1.071 1.071 0 01-.363-.056C15.154 1.243 14.753.129 14.084.01a.664.664 0 00-.118-.01c-.622 0-1.324.8-1.966.8S10.656 0 10.034 0z"/>
    <rect width="1" height="12" rx=".5" transform="rotate(45 -.993 22.882)"/>
  </symbol>
  <symbol viewBox="0 0 24 24" id="my-subscriptions">
    <path d="M0,.024V8H8.291V7H1V1.024H22.983V6.984H19.54v1h4.443V.024Z"/>
    <path d="M23.9,16.871,13.04,4.152A.435.435,0,0,0,12.71,4a.43.43,0,0,0-.281.1.419.419,0,0,0-.148.269l-2.3,16.57a.434.434,0,0,0,.368.49.335.335,0,0,0,.063,0,.423.423,0,0,0,.258-.087l4.419-3.365,1.674,5.7a.437.437,0,0,0,.418.312.414.414,0,0,0,.12-.017l2.385-.7a.437.437,0,0,0,.3-.538l-1.639-5.577,5.186.421h.032a.44.44,0,0,0,.437-.4A.424.424,0,0,0,23.9,16.871Zm-5.47-.7-1.451-.117.41,1.4,1.48,5.033-1.3.383L16.051,17.7l-.409-1.394-1.157.88-3.323,2.531L13.1,5.761l9.148,10.718Z"/>
  </symbol>
  <symbol viewBox="0 0 24 24" id="subscription-packages">
    <g transform="translate(-88.017 -7.984)">
      <path d="M105.017,9.984v20h-10v-20h10m1-1h-12v22h12v-22Z"/>
      <path d="M107.017,12.984v1h4v12h-4v1h5v-14Z"/>
      <path d="M93.017,25.984h-4v-12h4v-1h-5v14h5Z"/>
    </g>
  </symbol>
  <symbol viewBox="0 0 24 24" id="subscription-offers">
    <g transform="translate(-87.996 -39.996)">
      <path d="M112,44.979h-7V40l-4.984,4.983h-.033L95,40v4.983H88v4h2V64h20V48.979h2ZM109,63H91V49h18ZM104,42.41v2.569h-2.57Zm-8,0,2.569,2.569H96Zm15,5.569H89v-2h6V46h10v-.017h6Z"/>
      <rect width="8" height="1" transform="translate(95.996 50.996)"/>
    </g>
  </symbol>
  <!-- Buyer dashboard -->
  <symbol viewBox="0 0 24 24" id="my-offers">
    <path d="M12,1c.31,0,.916.828,1.278,1.322A5.168,5.168,0,0,0,15.226,4.21a3.168,3.168,0,0,0,1.227.215,10.656,10.656,0,0,0,1.563-.158,9.254,9.254,0,0,1,1.262-.134c.406,0,.5.085.5.089.19.19.037,1.212-.045,1.762a5.33,5.33,0,0,0,.057,2.79,5.168,5.168,0,0,0,1.888,1.948C22.172,11.084,23,11.69,23,12s-.828.916-1.322,1.278a5.168,5.168,0,0,0-1.888,1.948,5.33,5.33,0,0,0-.057,2.79c.082.55.235,1.573.045,1.762,0,0-.094.089-.5.089a9.254,9.254,0,0,1-1.262-.134,10.654,10.654,0,0,0-1.564-.157,3.148,3.148,0,0,0-1.226.214,5.168,5.168,0,0,0-1.948,1.888C12.916,22.172,12.31,23,12,23s-.916-.828-1.278-1.322A5.168,5.168,0,0,0,8.774,19.79a3.168,3.168,0,0,0-1.227-.215,10.656,10.656,0,0,0-1.563.158,9.254,9.254,0,0,1-1.262.134c-.406,0-.5-.085-.5-.089-.19-.19-.037-1.212.045-1.762a5.33,5.33,0,0,0-.057-2.79,5.168,5.168,0,0,0-1.888-1.948C1.828,12.916,1,12.31,1,12s.828-.916,1.322-1.278A5.168,5.168,0,0,0,4.21,8.774a5.33,5.33,0,0,0,.057-2.79c-.082-.55-.235-1.573-.045-1.762,0,0,.094-.089.5-.089a9.254,9.254,0,0,1,1.262.134,10.654,10.654,0,0,0,1.564.157A3.166,3.166,0,0,0,8.774,4.21a5.168,5.168,0,0,0,1.948-1.888C11.084,1.828,11.69,1,12,1m0-1C10.547,0,9.655,2.762,8.391,3.286a2.207,2.207,0,0,1-.843.139c-.877,0-1.954-.292-2.826-.292a1.641,1.641,0,0,0-1.207.382c-.987.987.314,3.567-.229,4.876C2.762,9.654,0,10.547,0,12s2.762,2.345,3.286,3.609c.543,1.309-.758,3.889.229,4.876a1.641,1.641,0,0,0,1.207.382c.872,0,1.949-.292,2.825-.292a2.213,2.213,0,0,1,.844.139C9.655,21.237,10.547,24,12,24s2.345-2.762,3.609-3.286a2.189,2.189,0,0,1,.843-.138c.877,0,1.954.291,2.826.291a1.641,1.641,0,0,0,1.207-.382c.987-.987-.314-3.567.229-4.876C21.238,14.346,24,13.453,24,12s-2.762-2.345-3.286-3.609c-.543-1.309.758-3.889-.229-4.876a1.641,1.641,0,0,0-1.207-.382c-.872,0-1.949.292-2.825.292a2.213,2.213,0,0,1-.844-.139C14.346,2.763,13.453,0,12,0Z"/>
    <path d="M7.758,16.742a.5.5,0,0,1-.354-.853L15.889,7.4a.5.5,0,1,1,.707.707L8.111,16.6A.5.5,0,0,1,7.758,16.742Z"/>
    <path d="M14.828,13.828a1,1,0,1,1-.707.293.994.994,0,0,1,.707-.293m0-1a2,2,0,1,0,1.415.586,2,2,0,0,0-1.415-.586Z"/>
    <path d="M9.172,8.172a1,1,0,1,1-.708.292,1,1,0,0,1,.708-.292m0-1a2,2,0,1,0,1.414.585,2,2,0,0,0-1.414-.585Z"/>
  </symbol>
  <symbol viewBox="0 0 24 24" id="reward-points">
    <g transform="translate(64.035 -31.935)">
      <path d="M-52.035,31.935a12,12,0,0,0-12,12,12,12,0,0,0,12,12,12,12,0,0,0,12-12A12,12,0,0,0-52.035,31.935Zm0,23a11.012,11.012,0,0,1-11-11,11.013,11.013,0,0,1,11-11,11.012,11.012,0,0,1,11,11A11.012,11.012,0,0,1-52.035,54.935Z"/>
      <path d="M-52.035,34.935a9,9,0,0,0-9,9,9,9,0,0,0,9,9,9,9,0,0,0,9-9A9,9,0,0,0-52.035,34.935Zm0,17a8.009,8.009,0,0,1-8-8,8.009,8.009,0,0,1,8-8,8.009,8.009,0,0,1,8,8A8.009,8.009,0,0,1-52.035,51.935Z"/>
      <path d="M-50.4,42.285l-1.642-4.125-1.642,4.125-4.356.287,3.341,2.836-1.1,4.3,3.753-2.372,3.753,2.372-1.1-4.3,3.345-2.836Zm.046,3.37.476,1.869-1.63-1.03-.534-.338-.535.338-1.629,1.03.476-1.869.154-.6-.476-.4-1.459-1.239,1.892-.124.63-.041.234-.587.713-1.791.713,1.791.233.587.63.041,1.894.124-1.46,1.239-.477.4Z"/>
    </g>
  </symbol>
  <symbol viewBox="0 0 24 24" id="share-earn">
    <g transform="translate(391.9 320)">
      <path d="M-371.9-304a3.864,3.864,0,0,0-3.3,1.8l-8.9-4.5h0a5.852,5.852,0,0,0,.2-1.3,5.066,5.066,0,0,0-.2-1.3h0l8.9-4.5a3.864,3.864,0,0,0,3.3,1.8,4.012,4.012,0,0,0,4-4,4.012,4.012,0,0,0-4-4,4.012,4.012,0,0,0-4,4,5.068,5.068,0,0,0,.2,1.3l-8.9,4.5a3.864,3.864,0,0,0-3.3-1.8,4.012,4.012,0,0,0-4,4,4.012,4.012,0,0,0,4,4,3.864,3.864,0,0,0,3.3-1.8l8.9,4.5a5.854,5.854,0,0,0-.2,1.3,4.012,4.012,0,0,0,4,4,4.012,4.012,0,0,0,4-4A4.012,4.012,0,0,0-371.9-304Zm0-15a2.946,2.946,0,0,1,3,3,2.946,2.946,0,0,1-3,3,2.946,2.946,0,0,1-3-3A3.009,3.009,0,0,1-371.9-319Zm-12.4,9.3c-.1-.2-.2-.3-.3-.5A.55.55,0,0,1-384.3-309.7Zm-3.6,4.7a2.946,2.946,0,0,1-3-3,2.946,2.946,0,0,1,3-3,2.946,2.946,0,0,1,3,3A2.946,2.946,0,0,1-387.9-305Zm3.6-1.3c-.1.2-.2.3-.3.5A.55.55,0,0,0-384.3-306.3Zm12.4,9.3a2.946,2.946,0,0,1-3-3,2.946,2.946,0,0,1,3-3,2.946,2.946,0,0,1,3,3A2.946,2.946,0,0,1-371.9-297Z"/>
    </g>
  </symbol>
  <symbol viewBox="0 0 24 24" id="RFQ-in-progress">
    <g transform="translate(-23 -9.56)">
      <path d="M43.4,10.56H26.6A3.645,3.645,0,0,0,23,14.242V24.878a3.645,3.645,0,0,0,3.6,3.682h1.112l-.7,3.6a.414.414,0,0,0,.153.408.39.39,0,0,0,.239.081.384.384,0,0,0,.186-.047L35.1,28.56h8.3A3.645,3.645,0,0,0,47,24.878V14.242A3.645,3.645,0,0,0,43.4,10.56ZM46,24.877a2.649,2.649,0,0,1-2.6,2.683H34.847l-.222.12-6.4,3.44.463-2.368.233-1.192H26.6A2.649,2.649,0,0,1,24,24.878V14.243a2.65,2.65,0,0,1,2.6-2.683H43.4A2.65,2.65,0,0,1,46,14.242Z"/>
      <circle cx="2" cy="2" r="2" transform="translate(27 17.56)"/>
      <circle opacity="0.6" cx="2" cy="2" r="2" transform="translate(33 17.56)"/>
      <circle opacity="0.4" cx="2" cy="2" r="2" transform="translate(39 17.56)"/>
    </g>
  </symbol>
  <symbol viewBox="0 0 24 24" id="RFQ-accepted">
    <g transform="translate(-87.969)">
      <path d="M108.368,2a2.65,2.65,0,0,1,2.6,2.682V15.317a2.65,2.65,0,0,1-2.6,2.683H99.816l-.222.119L93.2,21.56l.463-2.368L93.895,18H91.57a2.65,2.65,0,0,1-2.6-2.682V4.683A2.65,2.65,0,0,1,91.569,2h16.8m0-1h-16.8a3.645,3.645,0,0,0-3.6,3.682V15.318A3.645,3.645,0,0,0,91.569,19h1.112l-.7,3.6a.414.414,0,0,0,.153.408.39.39,0,0,0,.239.081.384.384,0,0,0,.186-.047L100.068,19h8.3a3.645,3.645,0,0,0,3.6-3.682V4.682A3.645,3.645,0,0,0,108.369,1Z"/>
      <path d="M106.479,6.477l-.643-.766-8.463,7.1-3.21-3.824-.766.643,3.857,4.6Z"/>
  </g>
  </symbol>
  <symbol viewBox="0 0 24 24" id="RFQ-rejected">
    <g transform="translate(-87.938 -31.968)">
      <path d="M108.338,32.968h-16.8a3.645,3.645,0,0,0-3.6,3.682V47.286a3.646,3.646,0,0,0,3.6,3.682H92.65l-.7,3.6a.415.415,0,0,0,.153.408.392.392,0,0,0,.425.034l7.513-4.042h8.3a3.646,3.646,0,0,0,3.6-3.682V36.65A3.645,3.645,0,0,0,108.338,32.968Zm2.6,14.317a2.65,2.65,0,0,1-2.6,2.683H99.785l-.222.119-6.4,3.441.463-2.368.233-1.192H91.539a2.65,2.65,0,0,1-2.6-2.682V36.651a2.649,2.649,0,0,1,2.6-2.683h16.8a2.649,2.649,0,0,1,2.6,2.682Z"/>
      <path d="M103.827,38.736l-.707-.707-3.182,3.182-3.182-3.182-.707.707,3.182,3.182L96.049,45.1l.707.707,3.182-3.182,3.182,3.182.707-.707-3.182-3.182Z"/>
  </g>
  </symbol>
  <symbol viewBox="0 0 24 24" id="RFQ-order">
    <path d="M16,0V1h6.3L12,11.3l.7.7L23,1.7V8h1V0Z"/>
    <path d="M19,8.978V23H1V5H15.04l1-1H0V24H20V7.978Z"/>
    <rect width="6" height="1" transform="translate(3 20)"/>
  </symbol>
  <symbol viewBox="0 0 24.009 24" id="account-settings">
    <g transform="translate(-87.8 8)">
      <path d="M96-7a3.63,3.63,0,0,1,3.7,3.7A3.919,3.919,0,0,1,96,.8a3.921,3.921,0,0,1-3.7-4.1A3.691,3.691,0,0,1,96-7m0-1a4.573,4.573,0,0,0-4.7,4.7A4.92,4.92,0,0,0,96,1.8a4.858,4.858,0,0,0,4.7-5.1A4.573,4.573,0,0,0,96-8Z"/>
      <path d="M98,11H88.9c.1-5.3,4.4-6.4,8-6.4H98v-1H96.9c-5.8,0-9,2.7-9,7.7a.684.684,0,0,0,.7.7h9.3V11Z"/>
      <path d="M106.244,4l.165,1.232.082.619.593.2a3.473,3.473,0,0,1,.661.383l.451.3.5-.214,1.015-.435.924,1.492L109.8,8.2l-.4.3v2l.4.3.839.629-.941,1.593-1.127-.451-.488-.195-.438.292a3.473,3.473,0,0,1-.661.383l-.593.2-.082.619L106.158,15h-1.916l-.151-1.132-.082-.619-.593-.2a3.473,3.473,0,0,1-.661-.383l-.451-.3-.5.214-1.015.435-.924-1.492.833-.624.4-.3v-2l-.4-.3-.88-.66.982-1.662,1.127.45.488.2.438-.292a3.473,3.473,0,0,1,.661-.383l.593-.2.082-.619L104.342,4h1.9m.356-1H104a.56.56,0,0,0-.6.5L103.2,5a4.053,4.053,0,0,0-.9.5l-1.5-.6h-.2a.55.55,0,0,0-.5.3L98.8,7.4a.619.619,0,0,0,.1.8l1.2.9v1l-1.2.9a.494.494,0,0,0-.1.7l1.3,2.1a.55.55,0,0,0,.5.3h.2l1.4-.6a4.054,4.054,0,0,0,.9.5l.2,1.5a.56.56,0,0,0,.6.5h2.6a.56.56,0,0,0,.6-.5l.2-1.5a4.053,4.053,0,0,0,.9-.5l1.5.6h.2a.55.55,0,0,0,.5-.3l1.3-2.2c.1-.3.1-.6-.1-.7l-1.2-.9V9l1.2-.9a.494.494,0,0,0,.1-.7l-1.3-2.1a.55.55,0,0,0-.5-.3h-.2l-1.4.6a4.054,4.054,0,0,0-.9-.5l-.2-1.5a.576.576,0,0,0-.6-.6Z"/>
      <path d="M105.5,8.5a.945.945,0,0,1,1,1,1,1,0,0,1-2,0,1.075,1.075,0,0,1,1-1m0-1a2,2,0,1,0,2,2,2.006,2.006,0,0,0-2-2Z"/>
    </g>
  </symbol>
  <symbol viewBox="0 0 24 24" id="manage-address">
    <path d="M12,1.078l10.2,9.844H20.26V23H15.013V15.753H8.987V23H3.74V10.922H1.8L12,1.078M12,0a.8.8,0,0,0-.559.227L.762,10.538a.8.8,0,0,0,.559,1.384H2.74V23.195A.805.805,0,0,0,3.546,24H9.182a.8.8,0,0,0,.805-.805V16.753h4.026v6.442a.8.8,0,0,0,.805.805h5.636a.805.805,0,0,0,.806-.805V11.922h1.419a.8.8,0,0,0,.559-1.384L12.559.227A.8.8,0,0,0,12,0Z"/>

  </symbol>
  <symbol viewBox="0 0 24 24" id="favorites">
    <g transform="translate(-15.504 -1.98)">
      <path d="M33.129,4.386c3.065,0,5.375,2.543,5.375,5.915,0,3.8-3.279,6.592-8.244,10.823-.836.712-1.776,1.513-2.756,2.368-.979-.855-1.92-1.657-2.756-2.368C19.784,16.893,16.5,14.1,16.5,10.3c0-3.372,2.311-5.915,5.375-5.915A4.705,4.705,0,0,1,24.816,5.4,7.1,7.1,0,0,1,26.627,7.59l.877,1.6.878-1.6A7.106,7.106,0,0,1,30.192,5.4a4.709,4.709,0,0,1,2.937-1.018m0-1a5.68,5.68,0,0,0-3.548,1.227A8.088,8.088,0,0,0,27.5,7.11a8.069,8.069,0,0,0-2.076-2.5,5.681,5.681,0,0,0-3.549-1.227c-3.634,0-6.375,2.973-6.375,6.915,0,4.259,3.42,7.173,8.6,11.584.879.749,1.875,1.6,2.911,2.5a.748.748,0,0,0,.987,0c1.036-.905,2.032-1.754,2.912-2.5C36.085,17.474,39.5,14.56,39.5,10.3c0-3.942-2.74-6.915-6.375-6.915Z"/>
    </g>
  </symbol>

  <!-- Advertise Dashboard -->
  <symbol viewBox="0 0 24 24" id="my-promotions">
    <path d="M21,8V2L8.019,8H0v8H3.019v5h4V16h1L21,22V16h3V8ZM6.019,20h-2V16h2ZM8,15H1V9H8ZM20,8V20.436L9.019,15.361V8.639L20,3.564Zm3,7H21V9h2Z"/>

  </symbol>
  <symbol viewBox="0 0 24 24" id="promotion-charges">
    <path d="M12 1A11 11 0 111 12 10.968 10.968 0 0112 1m0-1a12 12 0 1012 12A12.035 12.035 0 0012 0z"/>
    <path d="M15.536 12.937a4.623 4.623 0 00-2.288-1.111l-.248-.06V7.021a4.317 4.317 0 011.057.286 5.881 5.881 0 011.618 1.074l.463-.832a4.062 4.062 0 00-1.654-1.144A5.9 5.9 0 0013 6.066V4h-1v2.014a4.565 4.565 0 00-2.785.886 2.9 2.9 0 00-1.122 2.383 2.644 2.644 0 00.809 1.9 4.173 4.173 0 002.127 1.133l.971.229v4.483a6.413 6.413 0 01-2.046-.307 5.862 5.862 0 01-1.816-1.1l-.438.808A5.812 5.812 0 0012 18v2h1v-2.069a4.472 4.472 0 002.131-.81 2.734 2.734 0 001.169-2.289 2.57 2.57 0 00-.764-1.895zm-4.276-1.6a3.144 3.144 0 01-1.573-.786 1.956 1.956 0 01-.508-1.411 1.882 1.882 0 01.8-1.618A3.634 3.634 0 0112 6.961v4.561zm3.168 5.144a3.4 3.4 0 01-1.428.481v-4.185a3.927 3.927 0 011.7.8 1.734 1.734 0 01.533 1.329 1.789 1.789 0 01-.805 1.579z"/>
  </symbol>
</svg>