<svg xmlns="http://www.w3.org/2000/svg"
    xmlns:xlink="http://www.w3.org/1999/xlink">
    <symbol id="calender" viewBox="0 0 24.1 24.1">
        <g transform="translate(246.8 135.8)">
            <path d="M-225.9-133.8h-3.9v-1.5a.472.472,0,0,0-.5-.5.472.472,0,0,0-.5.5v1.5h-8v-1.5a.472.472,0,0,0-.5-.5.472.472,0,0,0-.5.5v1.5h-3.8a3.222,3.222,0,0,0-3.2,3.2v15.7a3.222,3.222,0,0,0,3.2,3.2h17.7a3.222,3.222,0,0,0,3.2-3.2v-15.7A3.289,3.289,0,0,0-225.9-133.8Zm2.1,18.8a2.22,2.22,0,0,1-2.2,2.2h-17.6a2.22,2.22,0,0,1-2.2-2.2v-12.8h22Zm0-13.8h-22v-1.8a2.22,2.22,0,0,1,2.2-2.2h3.8v1.5a.472.472,0,0,0,.5.5.472.472,0,0,0,.5-.5v-1.5h8v1.5a.472.472,0,0,0,.5.5.472.472,0,0,0,.5-.5v-1.5h3.8a2.22,2.22,0,0,1,2.2,2.2Z"/>
        </g>
    </symbol>
    <symbol id="time" viewBox="0 0 443.294 443.294">
        <path d="m221.647 0c-122.214 0-221.647 99.433-221.647 221.647s99.433 221.647 221.647 221.647 221.647-99.433 221.647-221.647-99.433-221.647-221.647-221.647zm0 415.588c-106.941 0-193.941-87-193.941-193.941s87-193.941 193.941-193.941 193.941 87 193.941 193.941-87 193.941-193.941 193.941z"/>
        <path d="m235.5 83.118h-27.706v144.265l87.176 87.176 19.589-19.589-79.059-79.059z"/>
    </symbol>
    <symbol id="icn-download" viewBox="0 0 24 24.1">
        <path d="M15.3,11.4L12,14.8V0h-1v14.8l-3.3-3.3l-0.7,0.7l4.6,4.6l4.6-4.6L15.3,11.4z"/>
        <path d="M24,24.1H0v-1h24V24.1z"/>
    </symbol>
</svg>