<svg xmlns="http://www.w3.org/2000/svg" width="0" height="0">
  <defs>
    <symbol id="back-home" viewBox="0 0 24 24" > 
      <path d="M12,1.078l10.2,9.844H20.26V23H15.013V15.753H8.987V23H3.74V10.922H1.8L12,1.078M12,0a.8.8,0,0,0-.559.227L.762,10.538a.8.8,0,0,0,.559,1.384H2.74V23.195A.805.805,0,0,0,3.546,24H9.182a.8.8,0,0,0,.805-.805V16.753h4.026v6.442a.8.8,0,0,0,.805.805h5.636a.805.805,0,0,0,.806-.805V11.922h1.419a.8.8,0,0,0,.559-1.384L12.559.227A.8.8,0,0,0,12,0Z"/>
    </symbol>
    <symbol id="manage-shop" viewBox="0 0 24 24">
      <path d="M17.5,13.942h-2A1.535,1.535,0,0,0,14,15.436v1.991a1.535,1.535,0,0,0,1.5,1.494h2A1.535,1.535,0,0,0,19,17.427V15.436A1.469,1.469,0,0,0,17.5,13.942Zm.5,3.485a.471.471,0,0,1-.5.5h-2a.471.471,0,0,1-.5-.5V15.436a.471.471,0,0,1,.5-.5h2a.471.471,0,0,1,.5.5Z"/>
      <path d="M23.5,6.971,20.6,1.1A1.89,1.89,0,0,0,18.8,0H5.3A1.89,1.89,0,0,0,3.5,1.1L.6,6.971H0v1H0v.9a3.262,3.262,0,0,0,2,2.988V22.307A1.682,1.682,0,0,0,3.7,24H20a2,2,0,0,0,2-1.992V11.851a2.9,2.9,0,0,0,2-2.789V7.071h-.5ZM4.3,1.494A1.149,1.149,0,0,1,5.2.9H18.7a.961.961,0,0,1,.9.6l2.7,5.377H1.6ZM7,7.967h4v.9a2.079,2.079,0,0,1-1.3,1.992A2.064,2.064,0,0,1,7,8.963Zm6,0h4v.9a2,2,0,1,1-4,.1Zm-12,1v-1H5v.9a2.079,2.079,0,0,1-1.3,1.992A2.064,2.064,0,0,1,1,8.963ZM11,22.905H6V15.436a.471.471,0,0,1,.5-.5h4a.471.471,0,0,1,.5.5Zm9,0H12V15.436a1.535,1.535,0,0,0-1.5-1.494h-4A1.535,1.535,0,0,0,5,15.436v7.469H3.7a.682.682,0,0,1-.7-.7V11.95A2.94,2.94,0,0,0,6,8.963v-.1A3.116,3.116,0,0,0,8.4,11.95,3.045,3.045,0,0,0,12,9.062v-.1a3.117,3.117,0,0,0,2.4,3.087A3.045,3.045,0,0,0,18,9.162v-.1a3.115,3.115,0,0,0,2.4,3.087h.5v9.959C21,22.407,20.5,22.905,20,22.905ZM23,8.863a2,2,0,1,1-4,.1v-1h4Z"/>
  
    </symbol>
    <symbol id="notification" viewBox="0 0 24 24">
      <path d="M22,3H2A2,2,0,0,0,0,5V19a2,2,0,0,0,2,2H22a2,2,0,0,0,2-2V5A2,2,0,0,0,22,3Zm-6.114,9.179,7.037-7.561A.991.991,0,0,1,23,5V19a1,1,0,0,1-.049.244ZM22,4a1.019,1.019,0,0,1,.11.022L12.351,14.509a.7.7,0,0,1-.357.156.485.485,0,0,1-.355-.152l-9.9-10.46A.961.961,0,0,1,2,4ZM1,19V5a.989.989,0,0,1,.045-.224l7.038,7.435L1.049,19.243A.989.989,0,0,1,1,19Zm1,1a1,1,0,0,1-.244-.049L8.77,12.937,10.913,15.2a1.492,1.492,0,0,0,1.081.465H12a1.5,1.5,0,0,0,1.083-.475L15.2,12.911l7.038,7.04A.989.989,0,0,1,22,20Z"/>
    </symbol>
    <symbol id="bell" viewBox="0 0 24 24">
      <path d="M21.929,20.221l-1.718-2.943A8.941,8.941,0,0,1,19,12.779V10.2a7.189,7.189,0,0,0-5-6.9V2a2,2,0,0,0-4,0V3.3a7.189,7.189,0,0,0-5,6.9v2.579a8.941,8.941,0,0,1-1.211,4.5L2.071,20.221a.528.528,0,0,0-.007.518A.5.5,0,0,0,2.5,21H9a3,3,0,0,0,6,0h6.5a.5.5,0,0,0,.436-.261A.528.528,0,0,0,21.929,20.221ZM11,2a1,1,0,0,1,2,0V3H11Zm1,21a2,2,0,0,1-2-2h4A2,2,0,0,1,12,23Zm2.807-3.029H3.384l1.263-2.165A9.991,9.991,0,0,0,6,12.779V10.2a6.094,6.094,0,0,1,6-6.171A6.094,6.094,0,0,1,18,10.2v2.579a10,10,0,0,0,1.353,5.028l1.263,2.164Z"/>
    </symbol>
    <symbol id="dashboard" viewBox="0 0 24 24">
      <path d="M10,1V15H1V1h9m0-1H1A1,1,0,0,0,0,1V15a1,1,0,0,0,1,1h9a1,1,0,0,0,1-1V1a1,1,0,0,0-1-1Z"/>
      <path d="M23,9V23H14V9h9m0-1H14a1,1,0,0,0-1,1V23a1,1,0,0,0,1,1h9a1,1,0,0,0,1-1V9a1,1,0,0,0-1-1Z"/>
      <path d="M23,1V5H14V1h9m0-1H14a1,1,0,0,0-1,1V5a1,1,0,0,0,1,1h9a1,1,0,0,0,1-1V1a1,1,0,0,0-1-1Z"/>
      <path d="M10,19v4H1V19h9m0-1H1a1,1,0,0,0-1,1v4a1,1,0,0,0,1,1h9a1,1,0,0,0,1-1V19a1,1,0,0,0-1-1Z"/>
    </symbol>
    <symbol id="test" viewBox="0 0 512 512" > 
      <g><path d="m266 223.1h-54.9l-17.2-29.8h89.3l26.1-45.3h-147.6c-9.4 0-18.3 5-22.9 13.3-4.8 8.3-4.8 18.3 0 26.6l94.1 163.1c7.4 12.6 23.7 16.8 36.4 9.4 3.9-2.4 7.2-5.4 9.4-9.4l3-5.4-43.3-75.1z"/><path d="m373.2 161.3c-4.8-8.3-13.5-13.3-22.9-13.3h-6.5l-70.8 122.4 25.9 45.3 74-128.1c5.1-8 5.1-18 .3-26.3z"/></g>
    </symbol>

  </defs>
</svg>
